<svg width="234" height="342" viewBox="0 0 234 342" fill="none" xmlns="http://www.w3.org/2000/svg">
<path fill-rule="evenodd" clip-rule="evenodd" d="M116.769 177.337L73.7224 158L-8.4531e-06 322.116L43.0469 341.453L43.0469 341.453L0.00108072 322.117L33.4933 306.041L43.0475 341.452L116.769 177.337Z" fill="#C80000"/>
<path fill-rule="evenodd" clip-rule="evenodd" d="M117.001 177.337L160.048 158L233.771 322.116L190.724 341.453L190.724 341.453L233.769 322.117L200.277 306.041L190.723 341.452L117.001 177.337Z" fill="#C80000"/>
<path d="M211.469 55.1609L172.758 37.1871L154.789 0L115.914 14.2227L76.8227 0.601774L59.4302 38.0621L21 56.632L35.6321 96.6251L21.6198 136.839L60.3309 154.813L78.3001 192L117.176 177.777L156.266 191.398L173.659 153.939L212.089 135.369L197.457 95.3763L211.469 55.1609Z" fill="#FFD700"/>
<path d="M93.6493 121.672H83.8015V94.7101L83.8971 90.2802L84.0565 85.436C82.4205 87.072 81.2838 88.145 80.6464 88.6549L75.2923 92.9573L70.5437 87.0295L85.5544 75.0784H93.6493V121.672ZM135.238 111.091C135.238 114.746 133.963 117.529 131.414 119.441C128.885 121.353 125.093 122.309 120.036 122.309C117.444 122.309 115.234 122.129 113.407 121.767C111.58 121.428 109.87 120.918 108.276 120.238V112.207C110.082 113.056 112.111 113.768 114.363 114.342C116.637 114.916 118.634 115.202 120.355 115.202C123.882 115.202 125.645 114.182 125.645 112.143C125.645 111.378 125.411 110.762 124.944 110.294C124.477 109.806 123.669 109.264 122.522 108.669C121.375 108.053 119.845 107.341 117.933 106.534C115.192 105.386 113.173 104.324 111.877 103.347C110.603 102.369 109.668 101.254 109.073 100C108.499 98.7257 108.212 97.1641 108.212 95.3156C108.212 92.1499 109.434 89.7066 111.877 87.9856C114.342 86.2434 117.826 85.3723 122.331 85.3723C126.622 85.3723 130.797 86.3071 134.855 88.1768L131.923 95.1882C130.139 94.4233 128.471 93.7965 126.92 93.3079C125.369 92.8192 123.786 92.5749 122.171 92.5749C119.303 92.5749 117.869 93.3503 117.869 94.9013C117.869 95.7724 118.326 96.5267 119.239 97.1641C120.174 97.8015 122.203 98.7469 125.326 100C128.11 101.127 130.149 102.178 131.445 103.156C132.741 104.133 133.698 105.259 134.314 106.534C134.93 107.809 135.238 109.328 135.238 111.091ZM159.139 114.565C160.839 114.565 162.878 114.193 165.258 113.449V120.684C162.836 121.767 159.861 122.309 156.334 122.309C152.446 122.309 149.61 121.332 147.825 119.377C146.062 117.401 145.18 114.448 145.18 110.517V93.3397H140.527V89.2285L145.881 85.9778L148.686 78.4566H154.9V86.0416H164.875V93.3397H154.9V110.517C154.9 111.899 155.283 112.918 156.048 113.577C156.834 114.236 157.864 114.565 159.139 114.565Z" fill="black"/>
</svg>
