<svg width="192" height="192" viewBox="0 0 192 192" fill="none" xmlns="http://www.w3.org/2000/svg">
<path d="M190.469 55.1609L151.758 37.1871L133.789 0L94.914 14.2227L55.8227 0.601774L38.4302 38.0621L0 56.632L14.6321 96.6251L0.619774 136.839L39.3309 154.813L57.3001 192L96.1765 177.777L135.266 191.398L152.659 153.939L191.089 135.369L176.457 95.3763L190.469 55.1609Z" fill="#FFD700"/>
<path d="M72.6493 121.672H62.8015V94.7101L62.8971 90.2802L63.0565 85.436C61.4205 87.072 60.2838 88.145 59.6464 88.6549L54.2923 92.9573L49.5437 87.0295L64.5544 75.0784H72.6493V121.672ZM114.238 111.091C114.238 114.746 112.963 117.529 110.414 119.441C107.885 121.353 104.093 122.309 99.0361 122.309C96.444 122.309 94.2344 122.129 92.4072 121.767C90.58 121.428 88.8696 120.918 87.2762 120.238V112.207C89.0821 113.056 91.1112 113.768 93.3633 114.342C95.6366 114.916 97.6338 115.202 99.3548 115.202C102.882 115.202 104.645 114.182 104.645 112.143C104.645 111.378 104.411 110.762 103.944 110.294C103.477 109.806 102.669 109.264 101.522 108.669C100.375 108.053 98.8449 107.341 96.9327 106.534C94.1919 105.386 92.1735 104.324 90.8774 103.347C89.6027 102.369 88.6678 101.254 88.0729 100C87.4993 98.7257 87.2124 97.1641 87.2124 95.3156C87.2124 92.1499 88.4341 89.7066 90.8774 87.9856C93.342 86.2434 96.8264 85.3723 101.331 85.3723C105.622 85.3723 109.797 86.3071 113.855 88.1768L110.923 95.1882C109.139 94.4233 107.471 93.7965 105.92 93.3079C104.369 92.8192 102.786 92.5749 101.171 92.5749C98.3031 92.5749 96.8689 93.3503 96.8689 94.9013C96.8689 95.7724 97.3257 96.5267 98.2393 97.1641C99.1742 97.8015 101.203 98.7469 104.326 100C107.11 101.127 109.149 102.178 110.445 103.156C111.741 104.133 112.698 105.259 113.314 106.534C113.93 107.809 114.238 109.328 114.238 111.091ZM138.139 114.565C139.839 114.565 141.878 114.193 144.258 113.449V120.684C141.836 121.767 138.861 122.309 135.334 122.309C131.446 122.309 128.61 121.332 126.825 119.377C125.062 117.401 124.18 114.448 124.18 110.517V93.3397H119.527V89.2285L124.881 85.9778L127.686 78.4566H133.9V86.0416H143.875V93.3397H133.9V110.517C133.9 111.899 134.283 112.918 135.048 113.577C135.834 114.236 136.864 114.565 138.139 114.565Z" fill="black"/>
</svg>
