<svg width="192" height="192" viewBox="0 0 192 192" fill="none" xmlns="http://www.w3.org/2000/svg">
<path d="M190.469 55.1609L151.758 37.1871L133.789 0L94.914 14.2227L55.8227 0.601774L38.4302 38.0621L0 56.632L14.6321 96.6251L0.619774 136.839L39.3309 154.813L57.3001 192L96.1765 177.777L135.266 191.398L152.659 153.939L191.089 135.369L176.457 95.3763L190.469 55.1609Z" fill="#D3D3D3"/>
<path d="M72.1841 122H39.6133V115.148L51.3095 103.324C54.7727 99.7762 57.0354 97.3222 58.0977 95.9625C59.1601 94.5814 59.9249 93.3067 60.3924 92.1381C60.8598 90.9695 61.0935 89.7585 61.0935 88.505C61.0935 86.6353 60.5729 85.2436 59.5319 84.33C58.512 83.4164 57.1416 82.9596 55.4207 82.9596C53.6147 82.9596 51.8619 83.3739 50.1622 84.2026C48.4625 85.0312 46.6884 86.2103 44.8399 87.7401L39.4858 81.398C41.7805 79.4433 43.682 78.0623 45.1905 77.255C46.699 76.4476 48.3456 75.8314 50.1303 75.4065C51.915 74.9603 53.9122 74.7373 56.1218 74.7373C59.0326 74.7373 61.6034 75.2684 63.8343 76.3307C66.0652 77.3931 67.7967 78.8803 69.029 80.7925C70.2613 82.7047 70.8775 84.8931 70.8775 87.3577C70.8775 89.5035 70.495 91.522 69.7302 93.4129C68.9865 95.2826 67.818 97.2054 66.2245 99.1813C64.6523 101.157 61.869 103.972 57.8746 107.627L51.8831 113.268V113.714H72.1841V122ZM113.582 122H103.861V101.189C103.861 98.6183 103.405 96.6955 102.491 95.4207C101.577 94.1246 100.122 93.4766 98.1248 93.4766C95.4052 93.4766 93.4399 94.3902 92.2289 96.2174C91.0178 98.0234 90.4123 101.03 90.4123 105.237V122H80.6921V86.3697H88.1177L89.4244 90.9271H89.9661C91.0497 89.2061 92.537 87.9101 94.4279 87.039C96.3401 86.1466 98.5072 85.7004 100.929 85.7004C105.072 85.7004 108.217 86.8265 110.363 89.0786C112.509 91.3095 113.582 94.539 113.582 98.767V122ZM136.176 122.637C131.99 122.637 128.697 121.012 126.296 117.761C123.917 114.511 122.727 110.006 122.727 104.249C122.727 98.4058 123.938 93.8591 126.36 90.6084C128.803 87.3364 132.16 85.7004 136.431 85.7004C140.914 85.7004 144.335 87.4426 146.693 90.9271H147.012C146.523 88.2712 146.279 85.9023 146.279 83.8201V72.4108H156.031V122H148.573L146.693 117.379H146.279C144.069 120.885 140.701 122.637 136.176 122.637ZM139.586 114.893C142.072 114.893 143.888 114.171 145.036 112.726C146.204 111.281 146.842 108.827 146.948 105.364V104.312C146.948 100.488 146.353 97.7472 145.163 96.0899C143.995 94.4327 142.082 93.6041 139.427 93.6041C137.259 93.6041 135.57 94.5283 134.359 96.3768C133.17 98.204 132.575 100.87 132.575 104.376C132.575 107.882 133.18 110.516 134.391 112.28C135.602 114.022 137.334 114.893 139.586 114.893Z" fill="black"/>
</svg>
