<svg width="234" height="342" viewBox="0 0 234 342" fill="none" xmlns="http://www.w3.org/2000/svg">
<path fill-rule="evenodd" clip-rule="evenodd" d="M116.769 177.337L73.7224 158L-8.4531e-06 322.116L43.0469 341.453L43.0469 341.453L0.00108072 322.117L33.4933 306.041L43.0475 341.452L116.769 177.337Z" fill="#C80000"/>
<path fill-rule="evenodd" clip-rule="evenodd" d="M117.001 177.337L160.048 158L233.771 322.116L190.724 341.453L190.724 341.453L233.769 322.117L200.277 306.041L190.723 341.452L117.001 177.337Z" fill="#C80000"/>
<path d="M211.469 55.1609L172.758 37.1871L154.789 0L115.914 14.2227L76.8227 0.601774L59.4302 38.0621L21 56.632L35.6321 96.6251L21.6198 136.839L60.3309 154.813L78.3001 192L117.176 177.777L156.266 191.398L173.659 153.939L212.089 135.369L197.457 95.3763L211.469 55.1609Z" fill="#D3D3D3"/>
<path d="M93.1841 122H60.6133V115.148L72.3095 103.324C75.7727 99.7762 78.0354 97.3222 79.0977 95.9625C80.1601 94.5814 80.9249 93.3067 81.3924 92.1381C81.8598 90.9695 82.0935 89.7585 82.0935 88.505C82.0935 86.6353 81.5729 85.2436 80.5319 84.33C79.512 83.4164 78.1416 82.9596 76.4207 82.9596C74.6147 82.9596 72.8619 83.3739 71.1622 84.2026C69.4625 85.0312 67.6884 86.2103 65.8399 87.7401L60.4858 81.398C62.7805 79.4433 64.682 78.0623 66.1905 77.255C67.699 76.4476 69.3456 75.8314 71.1303 75.4065C72.915 74.9603 74.9122 74.7373 77.1218 74.7373C80.0326 74.7373 82.6034 75.2684 84.8343 76.3307C87.0652 77.3931 88.7967 78.8803 90.029 80.7925C91.2613 82.7047 91.8775 84.8931 91.8775 87.3577C91.8775 89.5035 91.495 91.522 90.7302 93.4129C89.9865 95.2826 88.818 97.2054 87.2245 99.1813C85.6523 101.157 82.869 103.972 78.8746 107.627L72.8831 113.268V113.714H93.1841V122ZM134.582 122H124.861V101.189C124.861 98.6183 124.405 96.6955 123.491 95.4207C122.577 94.1246 121.122 93.4766 119.125 93.4766C116.405 93.4766 114.44 94.3902 113.229 96.2174C112.018 98.0234 111.412 101.03 111.412 105.237V122H101.692V86.3697H109.118L110.424 90.9271H110.966C112.05 89.2061 113.537 87.9101 115.428 87.039C117.34 86.1466 119.507 85.7004 121.929 85.7004C126.072 85.7004 129.217 86.8265 131.363 89.0786C133.509 91.3095 134.582 94.539 134.582 98.767V122ZM157.176 122.637C152.99 122.637 149.697 121.012 147.296 117.761C144.917 114.511 143.727 110.006 143.727 104.249C143.727 98.4058 144.938 93.8591 147.36 90.6084C149.803 87.3364 153.16 85.7004 157.431 85.7004C161.914 85.7004 165.335 87.4426 167.693 90.9271H168.012C167.523 88.2712 167.279 85.9023 167.279 83.8201V72.4108H177.031V122H169.573L167.693 117.379H167.279C165.069 120.885 161.701 122.637 157.176 122.637ZM160.586 114.893C163.072 114.893 164.888 114.171 166.036 112.726C167.204 111.281 167.842 108.827 167.948 105.364V104.312C167.948 100.488 167.353 97.7472 166.163 96.0899C164.995 94.4327 163.082 93.6041 160.427 93.6041C158.259 93.6041 156.57 94.5283 155.359 96.3768C154.17 98.204 153.575 100.87 153.575 104.376C153.575 107.882 154.18 110.516 155.391 112.28C156.602 114.022 158.334 114.893 160.586 114.893Z" fill="black"/>
</svg>
