<svg width="234" height="342" viewBox="0 0 234 342" fill="none" xmlns="http://www.w3.org/2000/svg">
<path fill-rule="evenodd" clip-rule="evenodd" d="M116.769 177.337L73.7224 158L-8.4531e-06 322.116L43.0469 341.453L43.0469 341.453L0.00108072 322.117L33.4933 306.041L43.0475 341.452L116.769 177.337Z" fill="#C80000"/>
<path fill-rule="evenodd" clip-rule="evenodd" d="M117.001 177.337L160.048 158L233.771 322.116L190.724 341.453L190.724 341.453L233.769 322.117L200.277 306.041L190.723 341.452L117.001 177.337Z" fill="#C80000"/>
<path d="M211.469 55.1609L172.758 37.1871L154.789 0L115.914 14.2227L76.8227 0.601774L59.4302 38.0621L21 56.632L35.6321 96.6251L21.6198 136.839L60.3309 154.813L78.3001 192L117.176 177.777L156.266 191.398L173.659 153.939L212.089 135.369L197.457 95.3763L211.469 55.1609Z" fill="#67463C"/>
<path d="M94.3676 85.8279C94.3676 88.7387 93.4858 91.2139 91.7224 93.2535C89.9589 95.2932 87.4837 96.6955 84.2967 97.4603V97.6516C88.0574 98.119 90.9044 99.2663 92.8378 101.093C94.7712 102.899 95.738 105.343 95.738 108.424C95.738 112.907 94.1126 116.402 90.8619 118.909C87.6112 121.394 82.9688 122.637 76.9348 122.637C71.8782 122.637 67.3952 121.798 63.4858 120.12V111.738C65.2918 112.652 67.2783 113.395 69.4455 113.969C71.6126 114.542 73.7585 114.829 75.8831 114.829C79.1339 114.829 81.5347 114.277 83.0857 113.172C84.6367 112.067 85.4122 110.293 85.4122 107.85C85.4122 105.661 84.5198 104.11 82.7351 103.197C80.9504 102.283 78.1034 101.826 74.1941 101.826H70.6565V94.2734H74.2578C77.8697 94.2734 80.5042 93.806 82.1615 92.8711C83.8399 91.915 84.6792 90.2897 84.6792 87.995C84.6792 84.4681 82.4695 82.7047 78.0503 82.7047C76.5205 82.7047 74.9589 82.9596 73.3654 83.4695C71.7932 83.9795 70.0404 84.8612 68.1069 86.1147L63.5496 79.3265C67.7989 76.267 72.8661 74.7373 78.7514 74.7373C83.5744 74.7373 87.3775 75.7146 90.1608 77.6693C92.9653 79.6239 94.3676 82.3435 94.3676 85.8279ZM124.579 85.7004C125.896 85.7004 126.99 85.796 127.861 85.9873L127.128 95.102C126.342 94.8895 125.386 94.7833 124.26 94.7833C121.158 94.7833 118.736 95.58 116.994 97.1735C115.273 98.767 114.412 100.998 114.412 103.866V122H104.692V86.3697H112.054L113.488 92.3612H113.966C115.071 90.364 116.558 88.7599 118.428 87.5489C120.319 86.3166 122.369 85.7004 124.579 85.7004ZM146.918 122.637C142.733 122.637 139.439 121.012 137.039 117.761C134.659 114.511 133.469 110.006 133.469 104.249C133.469 98.4058 134.68 93.8591 137.102 90.6084C139.546 87.3364 142.903 85.7004 147.173 85.7004C151.656 85.7004 155.077 87.4426 157.435 90.9271H157.754C157.265 88.2712 157.021 85.9023 157.021 83.8201V72.4108H166.773V122H159.315L157.435 117.379H157.021C154.811 120.885 151.444 122.637 146.918 122.637ZM150.328 114.893C152.814 114.893 154.631 114.171 155.778 112.726C156.946 111.281 157.584 108.827 157.69 105.364V104.312C157.69 100.488 157.095 97.7472 155.905 96.0899C154.737 94.4327 152.825 93.6041 150.169 93.6041C148.002 93.6041 146.313 94.5283 145.102 96.3768C143.912 98.204 143.317 100.87 143.317 104.376C143.317 107.882 143.922 110.516 145.133 112.28C146.344 114.022 148.076 114.893 150.328 114.893Z" fill="black"/>
</svg>
