<svg width="192" height="192" viewBox="0 0 192 192" fill="none" xmlns="http://www.w3.org/2000/svg">
<path d="M190.469 55.1609L151.758 37.1871L133.789 0L94.914 14.2227L55.8227 0.601774L38.4302 38.0621L0 56.632L14.6321 96.6251L0.619774 136.839L39.3309 154.813L57.3001 192L96.1765 177.777L135.266 191.398L152.659 153.939L191.089 135.369L176.457 95.3763L190.469 55.1609Z" fill="#67463C"/>
<path d="M73.3676 85.8279C73.3676 88.7387 72.4858 91.2139 70.7224 93.2535C68.9589 95.2932 66.4837 96.6955 63.2967 97.4603V97.6516C67.0574 98.119 69.9044 99.2663 71.8378 101.093C73.7712 102.899 74.738 105.343 74.738 108.424C74.738 112.907 73.1126 116.402 69.8619 118.909C66.6112 121.394 61.9688 122.637 55.9348 122.637C50.8782 122.637 46.3952 121.798 42.4858 120.12V111.738C44.2918 112.652 46.2783 113.395 48.4455 113.969C50.6126 114.542 52.7585 114.829 54.8831 114.829C58.1339 114.829 60.5347 114.277 62.0857 113.172C63.6367 112.067 64.4122 110.293 64.4122 107.85C64.4122 105.661 63.5198 104.11 61.7351 103.197C59.9504 102.283 57.1034 101.826 53.1941 101.826H49.6565V94.2734H53.2578C56.8697 94.2734 59.5042 93.806 61.1615 92.8711C62.8399 91.915 63.6792 90.2897 63.6792 87.995C63.6792 84.4681 61.4695 82.7047 57.0503 82.7047C55.5205 82.7047 53.9589 82.9596 52.3654 83.4695C50.7932 83.9795 49.0404 84.8612 47.1069 86.1147L42.5496 79.3265C46.7989 76.267 51.8661 74.7373 57.7514 74.7373C62.5744 74.7373 66.3775 75.7146 69.1608 77.6693C71.9653 79.6239 73.3676 82.3435 73.3676 85.8279ZM103.579 85.7004C104.896 85.7004 105.99 85.796 106.861 85.9873L106.128 95.102C105.342 94.8895 104.386 94.7833 103.26 94.7833C100.158 94.7833 97.736 95.58 95.9938 97.1735C94.2728 98.767 93.4123 100.998 93.4123 103.866V122H83.6921V86.3697H91.054L92.4881 92.3612H92.9661C94.071 90.364 95.5582 88.7599 97.4279 87.5489C99.3188 86.3166 101.369 85.7004 103.579 85.7004ZM125.918 122.637C121.733 122.637 118.439 121.012 116.039 117.761C113.659 114.511 112.469 110.006 112.469 104.249C112.469 98.4058 113.68 93.8591 116.102 90.6084C118.546 87.3364 121.903 85.7004 126.173 85.7004C130.656 85.7004 134.077 87.4426 136.435 90.9271H136.754C136.265 88.2712 136.021 85.9023 136.021 83.8201V72.4108H145.773V122H138.315L136.435 117.379H136.021C133.811 120.885 130.444 122.637 125.918 122.637ZM129.328 114.893C131.814 114.893 133.631 114.171 134.778 112.726C135.946 111.281 136.584 108.827 136.69 105.364V104.312C136.69 100.488 136.095 97.7472 134.905 96.0899C133.737 94.4327 131.825 93.6041 129.169 93.6041C127.002 93.6041 125.313 94.5283 124.102 96.3768C122.912 98.204 122.317 100.87 122.317 104.376C122.317 107.882 122.922 110.516 124.133 112.28C125.344 114.022 127.076 114.893 129.328 114.893Z" fill="black"/>
</svg>
