<svg width="100" height="102" viewBox="0 0 100 102" fill="none" xmlns="http://www.w3.org/2000/svg">
<path d="M98.7871 23.4989C98.78 23.456 98.7816 23.4108 98.7705 23.3688C98.7397 23.2532 98.6941 23.142 98.6347 23.0381C98.6149 23.0024 98.5847 22.9738 98.5609 22.9405C98.5183 22.8735 98.4699 22.8104 98.4164 22.7517C98.3839 22.7184 98.3426 22.6954 98.3068 22.6653C98.2538 22.6165 98.197 22.5719 98.1369 22.532L98.1266 22.5281L98.1179 22.5217L86.5105 15.8776C86.3002 15.7573 86.0621 15.694 85.8198 15.694C85.5775 15.694 85.3394 15.7573 85.1291 15.8776L73.5153 22.5209L73.5066 22.5273L73.4962 22.5312C73.4359 22.5713 73.3788 22.6162 73.3256 22.6653C73.2898 22.6946 73.2462 22.7184 73.2168 22.7509C73.1626 22.8103 73.1137 22.8742 73.0707 22.9421C73.0477 22.9754 73.0183 23.0032 72.9985 23.0381C72.9392 23.142 72.8935 23.2532 72.8627 23.3688C72.8516 23.4092 72.8532 23.4529 72.846 23.4941C72.8294 23.57 72.8193 23.6473 72.8159 23.7249V26.5525L62.4866 20.09C62.5016 20.0205 62.5112 19.9499 62.5152 19.879V8.27853C62.5115 8.20221 62.5014 8.12633 62.485 8.05169C62.4779 8.00886 62.4795 7.96365 62.4683 7.92162C62.4375 7.80626 62.3919 7.69536 62.3326 7.59167C62.3048 7.55046 62.2749 7.51074 62.2429 7.4727C62.2046 7.41373 62.1619 7.35778 62.1151 7.30535C62.0732 7.26842 62.0292 7.23399 61.9833 7.20224C61.9363 7.15997 61.8864 7.12101 61.834 7.08565H61.8261L61.8205 7.07375L50.2059 0.430418C49.9957 0.31014 49.7576 0.246864 49.5153 0.246864C49.2729 0.246864 49.0349 0.31014 48.8246 0.430418L37.21 7.07375L37.2005 7.08089H37.1925C37.1398 7.11648 37.0897 7.1557 37.0425 7.19828C36.9968 7.22978 36.9531 7.26395 36.9115 7.30059C36.864 7.35374 36.8208 7.41049 36.7821 7.47032C36.7507 7.50764 36.7213 7.54655 36.694 7.58691C36.6346 7.69085 36.589 7.80202 36.5582 7.91765C36.5471 7.9581 36.5487 8.00172 36.5415 8.04297C36.5249 8.1189 36.5148 8.19612 36.5114 8.27377V19.879C36.5153 19.9502 36.5249 20.021 36.5399 20.0908L26.213 26.5525V23.7257C26.2094 23.6494 26.1993 23.5735 26.1829 23.4989C26.1757 23.456 26.1773 23.4108 26.1662 23.3688C26.1354 23.2532 26.0898 23.142 26.0304 23.0381C26.0106 23.0024 25.9804 22.9738 25.9566 22.9405C25.914 22.8735 25.8656 22.8104 25.8121 22.7517C25.7796 22.7184 25.7383 22.6954 25.7026 22.6653C25.6496 22.6165 25.5927 22.5719 25.5327 22.532L25.5224 22.5281L25.5136 22.5217L13.9046 15.8776C13.6943 15.7573 13.4562 15.694 13.2139 15.694C12.9716 15.694 12.7335 15.7573 12.5232 15.8776L0.911818 22.5209L0.903085 22.5273L0.892765 22.5312C0.832408 22.5713 0.775334 22.6162 0.722079 22.6653C0.686354 22.6946 0.64269 22.7184 0.613316 22.7509C0.559137 22.8103 0.510259 22.8742 0.467241 22.9421C0.444218 22.9754 0.414844 23.0032 0.394997 23.0381C0.335689 23.142 0.29006 23.2532 0.259242 23.3688C0.248127 23.4092 0.249715 23.4529 0.24257 23.4941C0.225947 23.57 0.215854 23.6473 0.212402 23.7249V35.3254C0.212369 35.5746 0.279507 35.8192 0.406766 36.0336C0.534024 36.248 0.716708 36.4241 0.935635 36.5436L11.8238 42.4834V58.3764L0.911818 64.62L0.903085 64.6263L0.892765 64.6303C0.832408 64.6704 0.775334 64.7152 0.722079 64.7643C0.686354 64.7937 0.64269 64.8175 0.613316 64.85C0.559137 64.9093 0.510259 64.9733 0.467241 65.0411C0.444218 65.0744 0.414844 65.1022 0.394997 65.1371C0.335689 65.241 0.29006 65.3522 0.259242 65.4678C0.248127 65.5083 0.249715 65.5519 0.24257 65.5931C0.225947 65.6691 0.215854 65.7463 0.212402 65.8239V77.4244C0.212525 77.6738 0.279901 77.9185 0.407448 78.1329C0.534995 78.3473 0.718 78.5234 0.937222 78.6427L12.5478 84.9743C12.6131 85.0061 12.6808 85.0326 12.7503 85.0536C12.7876 85.0671 12.8225 85.0869 12.8606 85.0964C13.0917 85.1593 13.3354 85.1593 13.5664 85.0964C13.6045 85.0861 13.6394 85.0663 13.6768 85.0536C13.7462 85.0326 13.8139 85.0061 13.8792 84.9743L23.7377 79.5976L36.5193 88.0993V93.8519C36.5193 94.1011 36.5864 94.3458 36.7137 94.5601C36.8409 94.7745 37.0236 94.9507 37.2425 95.0702L48.8532 101.402C48.9184 101.434 48.9861 101.46 49.0556 101.481C49.0929 101.495 49.1278 101.514 49.1659 101.524C49.397 101.587 49.6407 101.587 49.8717 101.524C49.9098 101.514 49.9447 101.494 49.9821 101.481C50.0515 101.46 50.1192 101.434 50.1845 101.402L61.7919 95.0686C62.0109 94.9491 62.1936 94.7729 62.3208 94.5586C62.4481 94.3442 62.5152 94.0995 62.5152 93.8503V88.0977L75.2968 79.596L85.1553 84.9727C85.2206 85.0045 85.2882 85.031 85.3577 85.052C85.395 85.0655 85.43 85.0853 85.4681 85.0949C85.6991 85.1577 85.9428 85.1577 86.1738 85.0949C86.212 85.0845 86.2469 85.0647 86.2842 85.052C86.3537 85.031 86.4214 85.0045 86.4866 84.9727L98.0933 78.6427C98.3122 78.5232 98.4949 78.347 98.6222 78.1326C98.7494 77.9183 98.8166 77.6736 98.8165 77.4244V65.8247C98.8128 65.7484 98.8028 65.6725 98.7864 65.5979C98.7792 65.5551 98.7808 65.5099 98.7697 65.4678C98.7389 65.3522 98.6933 65.241 98.6339 65.1371C98.6141 65.1014 98.5839 65.0729 98.5601 65.0395C98.5175 64.9726 98.4691 64.9094 98.4156 64.8508C98.3831 64.8175 98.3418 64.7945 98.306 64.7643C98.253 64.7155 98.1962 64.6709 98.1362 64.6311L98.1258 64.6271L98.1171 64.6208L87.2051 58.3772V42.4834L98.0925 36.546C98.3114 36.4265 98.4941 36.2503 98.6214 36.036C98.7486 35.8216 98.8158 35.577 98.8157 35.3277V23.7257C98.8126 23.6494 98.803 23.5736 98.7871 23.4989ZM57.9241 82.4172L49.5153 87.0031L41.1064 82.4172L40.7507 82.2229L49.5153 77.2087L58.2798 82.2197L57.9241 82.4172ZM23.4344 34.5021L14.6024 39.318V30.8814L23.4344 26.0655V34.5021ZM13.2131 60.7804L21.9776 65.7946L21.622 65.9889L13.2131 70.5749L4.80425 65.9889L4.44859 65.7946L13.2131 60.7804ZM24.707 64.1576L14.6024 58.3756V42.4834L23.8068 37.4637L36.5153 45.725V55.8518L24.707 64.1576ZM39.2939 19.0549V10.6183L48.126 15.4374V23.8716L39.2939 19.0549ZM59.7366 19.0549L50.9046 23.8716V15.4374L59.7366 10.6199V19.0549ZM49.5153 39.928L58.2798 44.9422L57.9241 45.1365L49.5153 49.7224L41.1064 45.1365L40.7507 44.9422L49.5153 39.928ZM39.2939 47.3113L48.126 52.128V60.567L39.2939 55.7487V47.3113ZM50.9046 52.128L59.7366 47.3113V55.7487L50.9046 60.567V52.128ZM62.5152 45.725L75.2237 37.4613L84.4281 42.4834V58.3764L74.3235 64.1584L62.5152 55.8518V45.725ZM84.4265 30.8814V39.318L75.5961 34.5021V26.0655L84.4265 30.8814ZM75.5961 76.6011V68.1637L84.4281 72.9804V81.4171L75.5961 76.6011ZM94.2263 65.9889L85.8174 70.5749L77.4077 65.9889L77.0521 65.7946L85.8166 60.7804L94.5811 65.7946L94.2263 65.9889ZM85.8174 18.6813L94.5819 23.6956L94.2263 23.8899L85.8174 28.4758L77.4077 23.8899L77.0521 23.6956L85.8174 18.6813ZM72.8659 35.6815L61.0798 43.3456L50.9046 37.524V27.0347L60.2248 21.9507L72.8167 29.8281V35.3246C72.8175 35.4452 72.834 35.5652 72.8659 35.6815ZM49.5153 3.23496L58.279 8.24998L49.8995 12.82L49.5153 13.0294L49.131 12.82L40.7515 8.24918L49.5153 3.23496ZM38.8057 21.953L48.126 27.0371V37.524L37.9507 43.3456L26.1646 35.6815C26.1962 35.5651 26.2125 35.4451 26.213 35.3246V29.8281L38.8057 21.953ZM13.2131 18.6813L21.9776 23.6956L21.622 23.8899L13.2131 28.4758L4.80425 23.8899L4.44859 23.6956L13.2131 18.6813ZM2.99339 26.0655L11.8254 30.8822V39.318L2.99339 34.5021V26.0655ZM2.99339 68.1645L11.8254 72.9812V81.4179L2.99339 76.6011V68.1645ZM14.604 72.9812L23.436 68.1645V76.6011L14.604 81.4171V72.9812ZM26.136 77.8575C26.1857 77.718 26.2125 77.5716 26.2154 77.4236V66.4942L37.9975 58.2043L48.126 63.7277V74.8047L37.21 81.0483L37.2013 81.0546L37.1909 81.0586C37.1306 81.0987 37.0735 81.1435 37.0202 81.1926C36.9845 81.222 36.9409 81.2458 36.9115 81.2783C36.8573 81.3376 36.8084 81.4016 36.7654 81.4694C36.7424 81.5027 36.713 81.5305 36.6932 81.5654C36.6339 81.6693 36.5882 81.7805 36.5574 81.8961C36.5463 81.9366 36.5479 81.9802 36.5407 82.0214C36.5241 82.0974 36.514 82.1746 36.5106 82.2522V84.7633L26.136 77.8575ZM39.2939 87.349V84.5912L48.126 89.4079V97.8446L39.2939 93.0286V87.349ZM50.9046 97.8446V89.4087L59.7366 84.592V93.0294L50.9046 97.8446ZM62.5152 82.2522C62.5115 82.1759 62.5014 82.1 62.485 82.0254C62.4779 81.9826 62.4795 81.9374 62.4683 81.8953C62.4376 81.7797 62.3919 81.6685 62.3326 81.5646C62.3127 81.5289 62.2826 81.5004 62.2588 81.467C62.2161 81.4001 62.1678 81.3369 62.1143 81.2783C62.0817 81.245 62.0404 81.222 62.0047 81.1918C61.9517 81.143 61.8949 81.0984 61.8348 81.0586L61.8245 81.0546L61.8158 81.0483L50.9046 74.8047V63.7277L61.033 58.2043L72.8175 66.4942V77.4244C72.8204 77.5723 72.8472 77.7188 72.8969 77.8582L62.5176 84.7641L62.5152 82.2522ZM87.2051 81.4163V72.9804L96.0371 68.1637V76.6011L87.2051 81.4163ZM87.2051 39.3172V30.8814L96.0371 26.0655V34.5021L87.2051 39.3172Z" fill="#012747"/>
</svg>
