<svg width="138" height="142" viewBox="0 0 138 142" fill="none" xmlns="http://www.w3.org/2000/svg">
<path d="M137.748 32.5229C137.738 32.463 137.74 32.3998 137.724 32.341C137.681 32.1792 137.618 32.0237 137.535 31.8784C137.507 31.8284 137.465 31.7885 137.432 31.7419C137.372 31.6483 137.304 31.5599 137.23 31.4779C137.184 31.4313 137.127 31.3991 137.077 31.357C137.003 31.2887 136.923 31.2263 136.839 31.1706L136.825 31.165L136.813 31.1562L120.592 21.8629C120.299 21.6947 119.966 21.6062 119.627 21.6062C119.289 21.6062 118.956 21.6947 118.662 21.8629L102.433 31.1551L102.421 31.1639L102.406 31.1695C102.322 31.2256 102.242 31.2883 102.168 31.357C102.118 31.398 102.057 31.4313 102.016 31.4768C101.94 31.5598 101.872 31.6492 101.812 31.7441C101.78 31.7907 101.739 31.8296 101.711 31.8784C101.628 32.0238 101.564 32.1793 101.521 32.341C101.506 32.3976 101.508 32.4586 101.498 32.5163C101.475 32.6225 101.46 32.7305 101.456 32.8391V36.794L87.0216 27.7548C87.0426 27.6576 87.056 27.559 87.0615 27.4597V11.234C87.0564 11.1272 87.0423 11.0211 87.0194 10.9167C87.0094 10.8568 87.0116 10.7936 86.9961 10.7348C86.953 10.5734 86.8892 10.4183 86.8064 10.2733C86.7676 10.2156 86.7257 10.1601 86.681 10.1069C86.6275 10.0244 86.5678 9.94615 86.5024 9.8728C86.4439 9.82115 86.3824 9.77299 86.3182 9.72858C86.2526 9.66946 86.1829 9.61497 86.1097 9.56551H86.0986L86.0908 9.54886L69.8607 0.25674C69.5668 0.0885051 69.2341 0 68.8955 0C68.5569 0 68.2242 0.0885051 67.9304 0.25674L51.7002 9.54886L51.6869 9.55885H51.6758C51.6022 9.60862 51.5321 9.66349 51.4661 9.72304C51.4024 9.76711 51.3412 9.81489 51.2831 9.86615C51.2168 9.94049 51.1563 10.0199 51.1022 10.1036C51.0584 10.1557 51.0173 10.2102 50.9791 10.2666C50.8962 10.412 50.8324 10.5675 50.7894 10.7292C50.7739 10.7858 50.7761 10.8468 50.7661 10.9045C50.7429 11.0107 50.7288 11.1187 50.724 11.2273V27.4597C50.7295 27.5594 50.7428 27.6584 50.7639 27.7559L36.3331 36.794V32.8402C36.328 32.7334 36.3139 32.6273 36.291 32.5229C36.281 32.463 36.2832 32.3998 36.2677 32.341C36.2247 32.1792 36.1609 32.0237 36.078 31.8784C36.0503 31.8284 36.0081 31.7885 35.9748 31.7419C35.9152 31.6483 35.8477 31.5599 35.7729 31.4779C35.7274 31.4313 35.6697 31.3991 35.6198 31.357C35.5457 31.2887 35.4663 31.2263 35.3824 31.1706L35.368 31.165L35.3558 31.1562L19.1334 21.8629C18.8395 21.6947 18.5068 21.6062 18.1682 21.6062C17.8296 21.6062 17.4969 21.6947 17.2031 21.8629L0.97736 31.1551L0.965156 31.1639L0.950734 31.1695C0.866393 31.2256 0.786637 31.2883 0.712219 31.357C0.662297 31.398 0.601281 31.4313 0.560234 31.4768C0.484525 31.5598 0.416223 31.6492 0.356109 31.7441C0.323938 31.7907 0.282891 31.8296 0.255156 31.8784C0.17228 32.0238 0.108519 32.1793 0.0654532 32.341C0.0499219 32.3976 0.0521406 32.4586 0.0421563 32.5163C0.0189274 32.6225 0.00482399 32.7305 1.72734e-08 32.8391V49.0648C-4.64778e-05 49.4134 0.0937715 49.7556 0.271602 50.0554C0.449432 50.3553 0.704714 50.6017 1.01064 50.7688L16.2257 59.0769V81.3066L0.97736 90.0396L0.965156 90.0484L0.950734 90.054C0.866393 90.1101 0.786637 90.1728 0.712219 90.2415C0.662297 90.2825 0.601281 90.3158 0.560234 90.3613C0.484525 90.4443 0.416223 90.5337 0.356109 90.6286C0.323938 90.6752 0.282891 90.7141 0.255156 90.7629C0.17228 90.9083 0.108519 91.0638 0.0654532 91.2255C0.0499219 91.2821 0.0521406 91.3431 0.0421563 91.4008C0.0189274 91.507 0.00482399 91.615 1.72734e-08 91.7236V107.949C0.000170966 108.298 0.0943225 108.64 0.272556 108.94C0.450789 109.24 0.706519 109.486 1.01286 109.653L17.2375 118.509C17.3287 118.554 17.4233 118.591 17.5204 118.62C17.5725 118.639 17.6213 118.667 17.6746 118.68C17.9974 118.768 18.3379 118.768 18.6608 118.68C18.714 118.666 18.7629 118.638 18.815 118.62C18.9121 118.591 19.0067 118.554 19.0979 118.509L32.8741 110.989L50.7351 122.88V130.927C50.735 131.275 50.8288 131.617 51.0066 131.917C51.1845 132.217 51.4398 132.464 51.7457 132.631L67.9703 141.487C68.0615 141.531 68.1561 141.568 68.2532 141.598C68.3053 141.617 68.3541 141.644 68.4074 141.658C68.7303 141.746 69.0708 141.746 69.3936 141.658C69.4469 141.643 69.4957 141.616 69.5478 141.598C69.6449 141.568 69.7395 141.531 69.8307 141.487L86.0509 132.628C86.3568 132.461 86.6121 132.215 86.7899 131.915C86.9678 131.615 87.0616 131.273 87.0615 130.924V122.878L104.922 110.987L118.699 118.507C118.79 118.552 118.884 118.589 118.982 118.618C119.034 118.637 119.083 118.665 119.136 118.678C119.459 118.766 119.799 118.766 120.122 118.678C120.175 118.664 120.224 118.636 120.276 118.618C120.373 118.589 120.468 118.552 120.559 118.507L136.778 109.653C137.084 109.486 137.339 109.24 137.517 108.94C137.695 108.64 137.789 108.298 137.789 107.949V91.7247C137.784 91.618 137.77 91.5118 137.747 91.4074C137.737 91.3475 137.739 91.2843 137.723 91.2255C137.68 91.0637 137.617 90.9082 137.534 90.7629C137.506 90.713 137.464 90.673 137.43 90.6264C137.371 90.5328 137.303 90.4444 137.229 90.3624C137.183 90.3158 137.125 90.2836 137.075 90.2415C137.001 90.1732 136.922 90.1109 136.838 90.0551L136.824 90.0496L136.811 90.0407L121.563 81.3077V59.0769L136.777 50.7721C137.083 50.605 137.338 50.3586 137.516 50.0588C137.694 49.7589 137.788 49.4167 137.788 49.0681V32.8402C137.783 32.7335 137.77 32.6274 137.748 32.5229ZM80.646 114.933L68.8955 121.347L57.145 114.933L56.648 114.661L68.8955 107.648L81.143 114.657L80.646 114.933ZM32.4503 47.9133L20.1085 54.6494V42.849L32.4503 36.1128V47.9133ZM18.1671 84.6691L30.4146 91.6825L29.9176 91.9543L18.1671 98.3688L6.41663 91.9543L5.91962 91.6825L18.1671 84.6691ZM34.2287 89.3928L20.1085 81.3055V59.0769L32.9706 52.0557L50.7295 63.6109V77.7754L34.2287 89.3928ZM54.6123 26.3071V14.5067L66.9541 21.2472V33.0443L54.6123 26.3071ZM83.1787 26.3071L70.8369 33.0443V21.2472L83.1787 14.5089V26.3071ZM68.8955 55.5025L81.143 62.516L80.646 62.7878L68.8955 69.2022L57.145 62.7878L56.648 62.516L68.8955 55.5025ZM54.6123 65.8297L66.9541 72.5669V84.3707L54.6123 77.6312V65.8297ZM70.8369 72.5669L83.1787 65.8297V77.6312L70.8369 84.3707V72.5669ZM87.0615 63.6109L104.82 52.0523L117.682 59.0769V81.3066L103.562 89.3939L87.0615 77.7754V63.6109ZM117.68 42.849V54.6494L105.341 47.9133V36.1128L117.68 42.849ZM105.341 106.798V94.9963L117.682 101.733V113.534L105.341 106.798ZM131.374 91.9543L119.624 98.3688L107.872 91.9543L107.375 91.6825L119.623 84.6691L131.87 91.6825L131.374 91.9543ZM119.624 25.7846L131.871 32.798L131.374 33.0698L119.624 39.4842L107.872 33.0698L107.375 32.798L119.624 25.7846ZM101.526 49.5629L85.0558 60.2828L70.8369 52.14V37.4685L83.861 30.3574L101.457 41.3757V49.0637C101.458 49.2324 101.481 49.4002 101.526 49.5629ZM68.8955 4.17949L81.1419 11.1941L69.4325 17.5863L68.8955 17.8792L68.3586 17.5863L56.6491 11.193L68.8955 4.17949ZM53.93 30.3607L66.9541 37.4718V52.14L52.7352 60.2828L36.2655 49.5629C36.3097 49.4002 36.3324 49.2323 36.3331 49.0637V41.3757L53.93 30.3607ZM18.1671 25.7846L30.4146 32.798L29.9176 33.0698L18.1671 39.4842L6.41663 33.0698L5.91962 32.798L18.1671 25.7846ZM3.88614 36.1128L16.2279 42.8501V54.6494L3.88614 47.9133V36.1128ZM3.88614 94.9974L16.2279 101.735V113.535L3.88614 106.798V94.9974ZM20.1108 101.735L32.4525 94.9974V106.798L20.1108 113.534V101.735ZM36.2255 108.555C36.2949 108.36 36.3324 108.155 36.3365 107.948V92.661L52.8007 81.0658L66.9541 88.7915V104.285L51.7002 113.018L51.688 113.027L51.6736 113.032C51.5892 113.089 51.5095 113.151 51.4351 113.22C51.3851 113.261 51.3241 113.294 51.2831 113.34C51.2074 113.423 51.1391 113.512 51.079 113.607C51.0468 113.654 51.0057 113.693 50.978 113.741C50.8951 113.887 50.8314 114.042 50.7883 114.204C50.7728 114.261 50.775 114.322 50.765 114.379C50.7418 114.485 50.7277 114.593 50.7228 114.702V118.214L36.2255 108.555ZM54.6123 121.831V117.974L66.9541 124.711V136.511L54.6123 129.775V121.831ZM70.8369 136.511V124.712L83.1787 117.975V129.776L70.8369 136.511ZM87.0615 114.702C87.0564 114.595 87.0423 114.489 87.0194 114.385C87.0094 114.325 87.0116 114.262 86.9961 114.203C86.9531 114.041 86.8893 113.886 86.8064 113.74C86.7786 113.69 86.7365 113.65 86.7032 113.604C86.6436 113.51 86.5761 113.422 86.5013 113.34C86.4558 113.293 86.3981 113.261 86.3482 113.219C86.2741 113.151 86.1947 113.088 86.1108 113.032L86.0964 113.027L86.0842 113.018L70.8369 104.285V88.7915L84.9903 81.0658L101.458 92.661V107.949C101.462 108.156 101.499 108.361 101.569 108.556L87.0649 118.215L87.0615 114.702ZM121.563 113.533V101.733L133.905 94.9963V106.798L121.563 113.533ZM121.563 54.6483V42.849L133.905 36.1128V47.9133L121.563 54.6483Z" fill="black"/>
</svg>
