<svg width="104" height="89" viewBox="0 0 104 89" fill="none" xmlns="http://www.w3.org/2000/svg">
<g clip-path="url(#clip0)">
<path d="M61.5635 75.673H53.7462C52.6336 75.673 51.7316 76.5749 51.7316 77.6876C51.7316 78.8004 52.6336 79.7023 53.7462 79.7023H61.5635C62.77 79.7023 63.7516 80.6837 63.7516 81.8902C63.7516 83.0966 62.7702 84.0781 61.5635 84.0781H40.5199C37.3566 84.0781 34.3819 82.6834 32.359 80.2515L27.3266 74.2026C24.6264 70.9567 20.6964 69.0557 16.4915 68.9355V57.0345H23.9093C27.5674 57.0345 31.0311 58.4336 33.6626 60.9739L44.5241 71.458C45.292 72.1993 45.3278 73.4404 44.6039 74.2246C43.8661 75.0237 42.6137 75.0758 41.812 74.341L33.2847 66.5243C32.4648 65.7726 31.1902 65.8278 30.4385 66.648C29.6866 67.4683 29.742 68.7426 30.5622 69.4944L39.0896 77.3111C40.2396 78.3652 41.6949 78.8859 43.1466 78.8859C44.7673 78.8859 46.3834 78.2369 47.5647 76.9573C49.7621 74.5768 49.6535 70.8094 47.3225 68.5593L36.461 58.0752C33.0743 54.8059 28.6167 53.0055 23.9093 53.0055H16.1002C15.3423 51.2115 13.5646 49.9492 11.4978 49.9492H2.01462C0.902036 49.9492 0 50.851 0 51.9638V66.6956C0 67.8082 0.902036 68.7102 2.01462 68.7102C3.1272 68.7102 4.02924 67.8084 4.02924 66.6956V53.9782H11.498C12.0299 53.9782 12.4625 54.411 12.4625 54.9427V71.0901C12.4625 71.6218 12.0299 72.0546 11.498 72.0546H9.40559C8.29301 72.0546 7.39097 72.9564 7.39097 74.0692C7.39097 75.1818 8.29301 76.0839 9.40559 76.0839H11.4978C13.5924 76.0839 15.3886 74.7871 16.1291 72.9546C19.2698 72.9726 22.2193 74.3634 24.2292 76.7796L29.2617 82.8285C32.0526 86.1833 36.156 88.1073 40.5199 88.1073H61.5635C64.9915 88.1073 67.7806 85.3184 67.7806 81.8902C67.7806 78.4619 64.9915 75.673 61.5635 75.673Z" fill="#00203A"/>
<path d="M101.144 19.5028C100.032 19.5028 99.1296 20.4046 99.1296 21.5174V35.0218H91.6609C91.129 35.0218 90.6964 34.589 90.6964 34.0573V17.9099C90.6964 17.3782 91.129 16.9454 91.6609 16.9454H93.6054C94.718 16.9454 95.62 16.0436 95.62 14.9308C95.62 13.8182 94.718 12.9162 93.6054 12.9162H91.6609C89.5663 12.9162 87.7701 14.2129 87.0296 16.0454C83.8889 16.0274 80.9394 14.6366 78.9294 12.2204L73.897 6.17174C71.1063 2.81685 67.0027 0.8927 62.6386 0.8927H41.5954C38.1674 0.8927 35.3782 3.68162 35.3782 7.10964C35.3782 10.5377 38.1674 13.3266 41.5954 13.3266H50.2003C51.3129 13.3266 52.2149 12.4247 52.2149 11.3119C52.2149 10.1992 51.3129 9.29733 50.2003 9.29733H41.5954C40.3889 9.29733 39.4073 8.31591 39.4073 7.10943C39.4073 5.90316 40.3887 4.92154 41.5954 4.92154H62.6388C65.8023 4.92154 68.7769 6.3162 70.7998 8.74809L75.8322 14.7968C78.5323 18.0427 82.4624 19.9437 86.6674 20.0641V31.9651H79.2496C75.5915 31.9651 72.1278 30.566 69.4962 28.0257L58.6347 17.5416C57.8669 16.8003 57.831 15.5594 58.5549 14.775C59.2928 13.9757 60.5452 13.9238 61.3469 14.6586L69.8744 22.4753C70.6946 23.227 71.9686 23.1718 72.7207 22.3516C73.4725 21.5313 73.4171 20.257 72.5968 19.5052L64.0693 11.6887C61.6354 9.45771 57.8338 9.61668 55.5942 12.0425C53.3968 14.4232 53.5054 18.1906 55.8363 20.4405L66.6978 30.9246C70.0846 34.1939 74.5422 35.9943 79.2496 35.9943H87.0586C87.8166 37.7883 89.5943 39.0506 91.6611 39.0506H101.144C102.257 39.0506 103.159 38.1488 103.159 37.036V21.517C103.159 20.4046 102.257 19.5028 101.144 19.5028Z" fill="#00203A"/>
<path d="M65.0461 69.4118C64.5879 68.3979 63.3972 67.9456 62.3841 68.4035C61.3638 68.8478 60.8972 70.0349 61.3414 71.0548C61.6715 71.813 62.4121 72.2656 63.1894 72.2656C63.458 72.2656 63.7308 72.2116 63.9927 72.0975C64.0012 72.0939 64.0278 72.082 64.0361 72.0784C65.0501 71.6204 65.5041 70.4258 65.0461 69.4118Z" fill="#00203A"/>
<path d="M70.054 66.02C69.3953 65.1254 68.1294 64.9392 67.2338 65.5949C66.3362 66.2521 66.1412 67.5128 66.7984 68.4104C67.1931 68.9494 67.8048 69.2351 68.4254 69.2351C68.8384 69.2351 69.2553 69.1085 69.6139 68.846C69.6172 68.8438 69.6361 68.8297 69.6391 68.8275C70.5315 68.1666 70.7124 66.9142 70.054 66.02Z" fill="#00203A"/>
<path d="M59.4139 71.6734C59.1844 70.5884 58.1191 69.8937 57.0331 70.1182C55.9484 70.3336 55.2391 71.3843 55.4471 72.4723C55.6316 73.4374 56.476 74.1089 57.4236 74.1089C57.5489 74.1089 57.6765 74.097 57.804 74.0727C57.8171 74.07 57.8502 74.0634 57.8634 74.0606C58.9515 73.8299 59.6442 72.7616 59.4139 71.6734Z" fill="#00203A"/>
<path d="M74.2625 61.6382C73.4364 60.8931 72.1628 60.9586 71.4173 61.7848C71.4075 61.7959 71.3843 61.8221 71.3746 61.8332C70.6477 62.6756 70.7416 63.9478 71.584 64.6745C71.9646 65.0029 72.4328 65.1637 72.8988 65.1637C73.4584 65.1637 74.0147 64.932 74.4124 64.4799C75.1542 63.6536 75.0875 62.3822 74.2625 61.6382ZM73.1374 63.3369L72.9134 63.1342L73.1559 63.353L73.1374 63.3369Z" fill="#00203A"/>
<path d="M79.3902 50.7203C78.3256 50.3973 77.1993 51.0047 76.8763 52.0696C76.5491 53.133 77.1459 54.2603 78.2093 54.5875C78.4066 54.6483 78.606 54.6772 78.8023 54.6772C79.6634 54.6772 80.4607 54.1207 80.727 53.2545L80.7355 53.2269C81.0583 52.1621 80.4548 51.043 79.3902 50.7203Z" fill="#00203A"/>
<path d="M81.9707 40.3226C81.9662 40.297 81.9614 40.2714 81.9559 40.2458C81.7285 39.157 80.6614 38.4605 79.573 38.6876C78.4884 38.9136 77.7911 39.9742 78.0095 41.0586C78.1943 42.0199 79.0367 42.6926 79.9852 42.6926C80.1031 42.6926 80.2228 42.6823 80.3427 42.6608C81.4379 42.4647 82.1667 41.4178 81.9707 40.3226Z" fill="#00203A"/>
<path d="M80.123 44.6937C79.0183 44.5962 78.0371 45.4152 77.9394 46.5234C77.9376 46.5429 77.9347 46.5826 77.9335 46.6022C77.8682 47.7129 78.7155 48.6664 79.8263 48.7316C79.8666 48.7341 79.9064 48.7353 79.9463 48.7353C80.9953 48.7353 81.8767 47.9241 81.9539 46.8677C82.0458 45.7636 81.2282 44.7912 80.123 44.6937Z" fill="#00203A"/>
<path d="M77.4181 56.4528C76.451 55.9046 75.2208 56.2443 74.6723 57.2124L74.6443 57.2628C74.1138 58.2408 74.4719 59.4724 75.4497 60.0029C75.7573 60.1698 76.0884 60.2489 76.4146 60.2489C77.1256 60.2489 77.8124 59.8718 78.1761 59.2012L76.4248 58.2055L78.1775 59.1988C78.7262 58.2307 78.3863 57.0015 77.4181 56.4528Z" fill="#00203A"/>
<path d="M40.8797 18.0856C40.3823 17.0903 39.1716 16.6867 38.1771 17.1846L38.1591 17.1934C37.1638 17.6911 36.7695 18.8966 37.2672 19.8917C37.6196 20.5967 38.3336 21.0025 39.0739 21.0025C39.3789 21.0025 39.6884 20.9336 39.9787 20.7885C40.974 20.291 41.3772 19.0809 40.8797 18.0856Z" fill="#00203A"/>
<path d="M46.7081 16.4058C46.4459 15.3249 45.3583 14.6604 44.2754 14.9227C44.2661 14.925 44.2375 14.9322 44.2282 14.9346C43.1507 15.2123 42.4981 16.3118 42.7755 17.3891C43.0099 18.2982 43.8252 18.9024 44.7216 18.9024C44.8877 18.9024 45.0565 18.8817 45.2249 18.8383C46.3061 18.5762 46.9702 17.4872 46.7081 16.4058Z" fill="#00203A"/>
<path d="M35.5527 20.9907C34.856 20.125 33.5874 19.989 32.7207 20.6841L33.9697 22.2647L32.7146 20.6887C31.8442 21.3818 31.7006 22.6491 32.3935 23.5196C32.7916 24.0192 33.3785 24.2793 33.9711 24.2793C34.4107 24.2793 34.8538 24.1359 35.2247 23.8407L35.2513 23.8194C36.1156 23.1212 36.2494 21.8565 35.5527 20.9907Z" fill="#00203A"/>
<path d="M24.8111 35.3246C23.7376 35.0321 22.6303 35.6645 22.3375 36.738C22.3325 36.7563 22.3228 36.7944 22.3182 36.813C22.0563 37.8939 22.7204 38.9809 23.8011 39.2434C23.9607 39.2821 24.1203 39.3007 24.2774 39.3007C25.1813 39.3007 26.0025 38.6873 26.2314 37.7732C26.5076 36.7078 25.8764 35.6151 24.8111 35.3246Z" fill="#00203A"/>
<path d="M23.5277 41.2439C22.4141 41.1821 21.4643 42.0281 21.3998 43.1387C21.3982 43.1647 21.3972 43.1905 21.3964 43.2162C21.3638 44.3278 22.2384 45.254 23.3502 45.2873C23.3707 45.2879 23.3909 45.2883 23.4112 45.2883C24.4912 45.2883 25.3835 44.4314 25.4234 43.3466C25.4738 42.2467 24.63 41.308 23.5277 41.2439Z" fill="#00203A"/>
<path d="M27.3466 29.8191C26.3611 29.3021 25.1436 29.6819 24.6268 30.6672L24.5939 30.732C24.1029 31.73 24.5148 32.9353 25.5125 33.4267C25.7982 33.5675 26.101 33.634 26.3998 33.634C27.1397 33.634 27.8519 33.2246 28.2049 32.5194C28.7066 31.5376 28.3254 30.3327 27.3466 29.8191Z" fill="#00203A"/>
<path d="M30.985 24.972C30.1289 24.2614 28.8587 24.3793 28.1481 25.2352C28.1384 25.247 28.1162 25.2745 28.1066 25.2863C27.4159 26.1582 27.5636 27.4231 28.435 28.1141C28.8049 28.4077 29.2462 28.5499 29.6846 28.5499C30.2755 28.5499 30.8614 28.2912 31.2594 27.7952C31.9573 26.9395 31.8364 25.679 30.985 24.972Z" fill="#00203A"/>
<path d="M25.8044 48.9382C25.6084 47.8429 24.5609 47.1141 23.4662 47.3104C22.371 47.5066 21.6422 48.5533 21.8383 49.6486L21.8419 49.6683C22.0164 50.6421 22.862 51.3185 23.8172 51.3185C23.9363 51.3185 24.057 51.308 24.1783 51.2862C25.2735 51.0902 26.0007 50.0334 25.8044 48.9382Z" fill="#00203A"/>
<path d="M58.4968 33.6451C55.8745 33.6451 53.4448 34.7264 51.7135 36.5512C49.9819 34.7264 47.5525 33.6451 44.9302 33.6451C39.7716 33.6451 35.575 37.8417 35.575 43.0003C35.575 45.7838 36.8026 48.4034 38.9427 50.1878C38.9556 50.1986 38.9689 50.2093 38.9822 50.22L50.4629 59.3093C50.8292 59.5994 51.2712 59.7443 51.7133 59.7443C52.1573 59.7443 52.6014 59.598 52.9685 59.3054L64.9355 49.7733C64.9942 49.7268 65.05 49.6768 65.103 49.624C66.8758 47.856 67.852 45.5037 67.852 43.0003C67.852 37.8417 63.6553 33.6451 58.4968 33.6451ZM62.3306 46.6977L51.7098 55.1575L41.5048 47.0783C40.2967 46.062 39.6042 44.5773 39.6042 43.0007C39.604 40.0637 41.9934 37.6743 44.9302 37.6743C47.0923 37.6743 49.0243 38.9656 49.8524 40.9639C50.1645 41.7164 50.8989 42.2072 51.7135 42.2072C52.5281 42.2072 53.2625 41.7166 53.5746 40.9639C54.4027 38.9656 56.3347 37.6743 58.4968 37.6743C61.4336 37.6743 63.823 40.0637 63.823 43.0005C63.823 44.3911 63.2937 45.6999 62.3306 46.6977Z" fill="#00203A"/>
<path d="M2.01459 76.077C3.12334 76.077 4.02216 75.1782 4.02216 74.0694C4.02216 72.9607 3.12334 72.0619 2.01459 72.0619C0.905838 72.0619 0.00701904 72.9607 0.00701904 74.0694C0.00701904 75.1782 0.905838 76.077 2.01459 76.077Z" fill="#00203A"/>
<path d="M101.144 16.938C102.253 16.938 103.152 16.0391 103.152 14.9304C103.152 13.8216 102.253 12.9228 101.144 12.9228C100.035 12.9228 99.1365 13.8216 99.1365 14.9304C99.1365 16.0391 100.035 16.938 101.144 16.938Z" fill="#00203A"/>
</g>
<defs>
<clipPath id="clip0">
<rect width="103.159" height="89" fill="white"/>
</clipPath>
</defs>
</svg>
