<svg width="102" height="102" viewBox="0 0 102 102" fill="none" xmlns="http://www.w3.org/2000/svg">
<path d="M26.4959 50.2435L26.4961 50.2431C26.7177 49.7242 27.2277 49.3882 27.7916 49.3882H35.8414V50.7981V52.208H28.8861H28.7212L28.6563 52.3595L24.1078 62.9719L24.1077 62.9722C23.8854 63.4926 23.3746 63.8271 22.8122 63.8271H22.8121H22.812H22.8119H22.8118H22.8117H22.8116H22.8115H22.8114H22.8113H22.8112H22.8111H22.811H22.8109H22.8108H22.8107H22.8106H22.8105H22.8104H22.8103H22.8102H22.8101H22.81H22.8099H22.8098H22.8097H22.8096H22.8095H22.8094H22.8093H22.8092H22.8091H22.809H22.8089H22.8088H22.8087H22.8086H22.8085H22.8084H22.8083H22.8082H22.8081H22.808H22.8079H22.8078H22.8077H22.8076H22.8075H22.8074H22.8073H22.8072H22.8071H22.807H22.8069H22.8068H22.8067H22.8066H22.8065H22.8064H22.8063H22.8062H22.8061H22.806H22.8059H22.8058H22.8057H22.8056H22.8055H22.8054H22.8053H22.8052H22.8051H22.805H22.8049H22.8048H22.8047H22.8046H22.8045H22.8044H22.8043H22.8042H22.8041H22.804H22.8039H22.8038H22.8037H22.8036H22.8035H22.8034H22.8033H22.8032H22.8031H22.803H22.8029H22.8028H22.8027H22.8026H22.8025H22.8024H22.8023H22.8022H22.8021H22.802H22.8019H22.8018H22.8017H22.8016H22.8015H22.8014H22.8013H22.8012H22.8011H22.801H22.8009H22.8008H22.8007H22.8006H22.8005H22.8004H22.8003H22.8002H22.8001H22.8H22.7999H22.7998H22.7997H22.7996H22.7995H22.7994H22.7993H22.7992H22.7991H22.799H22.7989H22.7988H22.7987H22.7986H22.7985H22.7984H22.7983H22.7982H22.7981H22.798H22.7979H22.7978H22.7977H22.7976H22.7975H22.7974H22.7973H22.7972H22.7971H22.797H22.7969H22.7968H22.7967H22.7966H22.7965H22.7964H22.7963H22.7962H22.7961H22.796H22.7959H22.7958H22.7957H22.7956H22.7955H22.7954H22.7953H22.7952H22.7951H22.795H22.7949H22.7948H22.7947H22.7946H22.7945H22.7944H22.7943H22.7942H22.7941H22.794H22.7939H22.7938H22.7937H22.7936H22.7935H22.7934H22.7933H22.7932H22.7931H22.793H22.7929H22.7928H22.7927H22.7926H22.7925H22.7924H22.7923H22.7922H22.7921H22.792H22.7919H22.7918H22.7917H22.7916H22.7915H22.7914H22.7913H22.7912H22.7911H22.791H22.7909H22.7908H22.7907H22.7906H22.7905H22.7904H22.7903H22.7902H22.7901H22.79H22.7899H22.7898H22.7897H22.7896H22.7895H22.7894H22.7893H22.7892H22.7891H22.789H22.7889H22.7888H22.7887H22.7886H22.7885H22.7884H22.7883H22.7882H22.7881H22.788H22.7879H22.7878H22.7877H22.7876H22.7875H22.7874H22.7873H22.7872H22.7871H22.787H22.7869H22.7868H22.7867H22.7866H22.7865H22.7864H22.7863H22.7862H22.7861H22.786H22.7859H22.7858H22.7857H22.7856H22.7855H22.7854H22.7853H22.7852H22.7851H22.785H22.7849H22.7848H22.7847H22.7846H22.7845H22.7844H22.7843H22.7842H22.7841H22.784H22.7839H22.7838H22.7837H22.7836H22.7835H22.7834H22.7833H22.7832H22.7831H22.783H22.7829H22.7829H22.7828H22.7826H22.7826H22.7825H22.7824H22.7823H22.7822H22.7821H22.782H22.7819H22.7818H22.7817H22.7816H22.7815H22.7814H22.7813H22.7812H22.7811H22.781H22.7809H22.7808H22.7807H22.7806H22.7805H22.7804H22.7803H22.7802H22.7801H22.78H22.7799H22.7798H22.7797H22.7796H22.7795H22.7794H22.7793H22.7792H22.7791H22.779H22.7789H22.7788H22.7787H22.7786H22.7785H22.7784H22.7783H22.7782H22.7781H22.778H22.7779H22.7778H22.7777H22.7776H22.7775H22.7774H22.7773H22.7772H22.7771H22.777H22.7769H22.7768H22.7767H22.7766H22.7765H22.7764H22.7763H22.7762H22.7761H22.776H22.7759H22.7758H22.7757H22.7756H22.7755H22.7754H22.7753H22.7752H22.7751H22.775H22.7749H22.7748H22.7747H22.7746H22.7745H22.7744H22.7743H22.7742H22.7741H22.774H22.7739H22.7738H22.7737H22.7736H22.7735H22.7734H22.7733H22.7732H22.7731H22.773H22.7729H22.7728H22.7727H22.7726H22.7725H22.7724H22.7723H22.7722H22.7721H22.772H22.7719H22.7718H22.7717H22.7716H22.7715H22.7714H22.7713H22.7712H22.7711H22.771H22.7709H22.7708H22.7707H22.7706H22.7705H22.7704H22.7703H22.7702H22.7701H22.77H22.7699H22.7698H22.7697H22.7696H22.7695H22.7694H22.7693H22.7692H22.7691H22.769H22.7689H22.7688H22.7687H22.7686H22.7685H22.7684H22.7683H22.7682H22.7681H22.768H22.7679H22.7678H22.7677H22.7676H22.7675H22.7674H22.7673H22.7672H22.7671H22.767H22.7669H22.7668H22.7667H22.7666H22.7665H22.7664H22.7663H22.7662H22.7661H22.766H22.7659H22.7658H22.7657H22.7656H22.7655H22.7655C22.1869 63.8062 21.6792 63.4361 21.4842 62.8907C21.4842 62.8907 21.4842 62.8906 21.4842 62.8906L14.6079 43.6367L14.3937 43.0369L14.1427 43.6223L10.8286 51.3528L10.8284 51.3531C10.6068 51.872 10.0968 52.208 9.53292 52.208H1.48352V49.3882H8.43864H8.60349L8.66843 49.2367L13.2169 38.6243L13.2172 38.6236C13.4415 38.0961 13.9643 37.7706 14.5594 37.7691C15.138 37.7901 15.6456 38.1602 15.8405 38.7056L22.7166 57.9595L22.9308 58.5594L23.1818 57.9739L26.4959 50.2435Z" fill="#00203A" stroke="#CCE5FB" stroke-width="0.5"/>
<path d="M75.9278 52.2082H66.2186V50.7983V49.3884H74.7778H74.951L75.0118 49.2262L79.587 37.0238C79.587 37.0237 79.587 37.0237 79.587 37.0237C79.7947 36.4724 80.2703 36.1341 80.9402 36.1093C81.5342 36.1231 82.0573 36.5093 82.2451 37.073L82.2451 37.073L89.1635 57.8296L89.3714 58.4533L89.6304 57.849L92.8911 50.2435L92.8912 50.2431C93.1096 49.7316 93.6083 49.3979 94.1625 49.3884H94.1867H100.576V52.2082H95.2808H95.1159L95.051 52.3597L90.5025 62.9722L90.5024 62.9724C90.2801 63.4928 89.7693 63.8274 89.2069 63.8274C89.183 63.8274 89.1689 63.8273 89.1556 63.8263L89.1557 63.8262L89.1486 63.8259C88.5632 63.8011 88.0544 63.4182 87.8692 62.8636C87.8692 62.8635 87.8692 62.8635 87.8692 62.8635L81.0523 42.4132L80.829 41.7432L80.5811 42.4045L77.2483 51.2938C77.0417 51.8434 76.5158 52.2082 75.9278 52.2082Z" fill="#00203A" stroke="#CCE5FB" stroke-width="0.5"/>
<path d="M37.8662 52.208H37.5829L37.6182 52.4891C37.9879 55.4346 39.3046 58.0841 41.2569 60.1281L41.8955 60.7968L41.6808 59.8974C41.0951 57.4435 40.7518 54.9519 40.6463 52.4475L40.6362 52.208H40.3965H37.8662ZM40.3965 49.3882H40.6362L40.6463 49.1488C40.7518 46.6443 41.0953 44.1528 41.6808 41.6988L41.8954 40.7996L41.2569 41.4681C39.3046 43.5121 37.9879 46.1617 37.6182 49.1071L37.5829 49.3882H37.8662H40.3965ZM49.3388 64.2098L49.62 64.2452V63.9618V60.7852V60.4906L49.3293 60.5385C47.927 60.7698 46.5973 61.2808 45.4096 62.0547L45.2477 62.1602L45.309 62.3435C45.3384 62.4314 45.3684 62.5274 45.3994 62.6262C45.4462 62.7759 45.4951 62.932 45.5466 63.0758L45.5833 63.1779L45.6828 63.2209C46.8293 63.7163 48.058 64.0489 49.3388 64.2098ZM49.4005 57.681L49.62 57.654V57.4329V52.4582V52.2082H49.37H43.7165H43.4547L43.4667 52.4697C43.5678 54.6686 43.8683 56.8556 44.3684 59.0131L44.4429 59.3343L44.732 59.1759C46.1718 58.3874 47.7504 57.8841 49.4005 57.681ZM49.37 49.3882H49.62V49.1382V44.1636V43.9425L49.4005 43.9155C47.7504 43.7124 46.1718 43.209 44.732 42.4205L44.4429 42.2622L44.3684 42.5833C43.8683 44.7406 43.5678 46.9278 43.4667 49.1268L43.4547 49.3882H43.7165H49.37ZM49.3293 41.0577L49.62 41.1057V40.811V37.6344V37.3511L49.3389 37.3864C48.058 37.5471 46.8291 37.88 45.6828 38.3754L45.5832 38.4184L45.5466 38.5205C45.4951 38.6643 45.4462 38.8203 45.3994 38.97C45.3684 39.0688 45.3384 39.1649 45.309 39.2528L45.2477 39.4361L45.4096 39.5415C46.5973 40.3154 47.9273 40.8262 49.3293 41.0577ZM64.1938 49.3882H64.4771L64.4418 49.1071C64.072 46.1617 62.7554 43.5121 60.8033 41.4681L60.1648 40.7995L60.3794 41.6988C60.9649 44.1527 61.3081 46.6445 61.4137 49.1488L61.4238 49.3882H61.6635H64.1938ZM52.7209 37.3864L52.4398 37.3511V37.6344V40.811V41.1057L52.7305 41.0577C54.1325 40.8264 55.4624 40.3154 56.6502 39.5415L56.8121 39.4361L56.7508 39.2528C56.7214 39.165 56.6914 39.0692 56.6606 38.9706C56.6137 38.8208 56.5648 38.6646 56.5131 38.5206L56.4765 38.4186L56.377 38.3756C55.2305 37.8802 54.0018 37.5474 52.7209 37.3864ZM56.377 63.2209L56.4765 63.1779L56.5131 63.0758C56.5647 62.932 56.6136 62.7758 56.6605 62.6259C56.6914 62.5272 56.7214 62.4313 56.7508 62.3435L56.8121 62.1602L56.6502 62.0547C55.4626 61.2808 54.1325 60.77 52.7305 60.5385L52.4398 60.4905V60.7852V63.962V64.2454L52.7209 64.2101C54.0018 64.0491 55.2307 63.7162 56.377 63.2209ZM57.3277 59.1757L57.6169 59.3341L57.6914 59.0129C58.1915 56.8554 58.4919 54.6686 58.5933 52.4693L58.6053 52.2078H58.3435H52.6898H52.4398V52.4578V57.4327V57.6538L52.6592 57.6808C54.3094 57.8839 55.888 58.3872 57.3277 59.1757ZM52.6592 43.9152L52.4398 43.9423V44.1634V48.888V49.138V49.1382H52.6898V49.388H58.3433H58.6051L58.593 49.1265C58.4919 46.9276 58.1915 44.7406 57.6914 42.5831L57.6169 42.262L57.3277 42.4203C55.888 43.2088 54.3094 43.7122 52.6592 43.9152ZM60.3792 59.8974L60.1646 60.7966L60.8031 60.1281C62.7554 58.0841 64.072 55.4346 64.4416 52.4891L64.4769 52.208H64.1936H61.6633H61.4236L61.4135 52.4475C61.3079 54.9519 60.9647 57.4435 60.3792 59.8974ZM34.6811 50.7981C34.6811 41.7842 42.0152 34.4493 51.0299 34.4493C60.0448 34.4493 67.3787 41.7842 67.3787 50.7981C67.3787 59.812 60.0446 67.1469 51.0299 67.1469C42.0152 67.1469 34.6811 59.812 34.6811 50.7981Z" fill="#00203A" stroke="#CCE5FB" stroke-width="0.5"/>
<path d="M93.8025 9.34427L93.8389 9.56063L94.0581 9.55262C94.0982 9.55116 94.1397 9.55113 94.1868 9.55113C97.7098 9.55113 100.577 12.417 100.577 15.9406C100.577 19.4643 97.71 22.3302 94.187 22.3302H86.7169H86.5919L86.5169 22.4302L84.0277 25.7499L83.7278 26.1499H84.2277H87.5475C88.0817 26.1499 88.5698 26.4515 88.8086 26.9292C89.0474 27.407 88.9957 27.9782 88.6751 28.4049L88.675 28.4051L83.8453 34.8447L81.5901 33.154L84.4275 29.3697L84.7274 28.9697H84.2275H80.9078C80.3735 28.9697 79.8854 28.6681 79.6466 28.1904C79.4078 27.7126 79.4595 27.1414 79.7801 26.7147L79.7803 26.7145L82.7685 22.7302L83.0685 22.3302H82.5685H70.9485C67.4255 22.3302 64.559 19.4643 64.559 15.9406C64.559 12.417 67.4255 9.55113 70.9485 9.55113C72.1104 9.55113 73.2171 9.86329 74.1706 10.42L74.5159 10.6216L74.546 10.2229C74.9236 5.21368 79.122 1.25173 84.2275 1.25173C89.0302 1.25173 93.0306 4.75674 93.8025 9.34427ZM74.2949 14.7367L74.2948 14.7364C73.8105 13.3202 72.4642 12.3709 70.9485 12.3709C68.9795 12.3709 67.3787 13.9726 67.3787 15.9406C67.3787 17.9087 68.9795 19.5104 70.9485 19.5104H94.1868C96.1559 19.5104 97.7565 17.9089 97.7565 15.9409C97.7565 13.9728 96.1557 12.3711 94.1868 12.3711C93.7652 12.3711 93.372 12.4382 93.0217 12.574C92.547 12.7536 92.0142 12.6724 91.6227 12.3541L91.6223 12.3537C91.2296 12.0359 91.0374 11.5307 91.1193 11.0307L91.1227 11.0104L91.1226 10.9899C91.1168 7.16193 88.0274 4.07149 84.2275 4.07149C80.4284 4.07149 77.338 7.16123 77.338 10.961C77.338 11.9139 77.5289 12.8437 77.9059 13.7269C78.0919 14.1639 78.0461 14.6637 77.7856 15.0569L77.7854 15.0572C77.5243 15.4524 77.0824 15.6906 76.6089 15.6906H75.6289C75.0257 15.6906 74.4896 15.3078 74.2949 14.7367Z" fill="#00203A" stroke="#CCE5FB" stroke-width="0.5"/>
<path d="M23.8596 14.9974L23.8598 14.9976L38.6315 31.4106L36.5359 33.2968L34.6171 31.1646L34.1813 30.6803V31.3319V31.7095C34.1813 33.8602 32.4315 35.6092 30.2816 35.6092C28.1317 35.6092 26.3819 33.8602 26.3819 31.7095V25.8999V25.6499H26.1319H24.472H24.222V25.8999C24.222 28.5077 22.1002 30.6296 19.4924 30.6296C16.8846 30.6296 14.7627 28.5077 14.7627 25.8999V24.24V23.99H14.5127H10.9361H10.8248L10.7503 24.0728L2.44863 33.2968L0.353056 31.4106L15.1247 14.9976L15.1249 14.9974C15.2817 14.8229 15.4929 14.7079 15.7409 14.6266L15.9695 14.5517L15.9034 14.3204L13.6192 6.32497L13.5218 5.98398L13.2334 6.19031C12.1852 6.94017 10.9136 7.39125 9.5331 7.39125C6.09379 7.39125 3.28016 4.6599 3.14841 1.25173H5.972C6.10072 3.10364 7.64821 4.57149 9.5331 4.57149C11.418 4.57149 12.9655 3.10364 13.0942 1.25173H15.9313C16.06 3.10364 17.6075 4.57149 19.4924 4.57149C21.3773 4.57149 22.9248 3.10364 23.0535 1.25173H25.8906C26.0193 3.10364 27.5668 4.57149 29.4517 4.57149C31.3365 4.57149 32.884 3.10364 33.0128 1.25173H35.8363C35.7046 4.6599 32.891 7.39125 29.4517 7.39125C28.0712 7.39125 26.7996 6.94017 25.7514 6.19031L25.463 5.98399L25.3655 6.32496L23.0811 14.3204L23.015 14.5517L23.2436 14.6266C23.4916 14.7079 23.7029 14.8229 23.8596 14.9974ZM22.1746 7.23084L22.3143 6.74189L21.8418 6.92988C21.1105 7.22085 20.3214 7.39125 19.4922 7.39125C18.6631 7.39125 17.874 7.22085 17.1426 6.93006L16.6702 6.74224L16.8099 7.23105L18.8437 14.3494L18.8955 14.5308H19.084H19.9005H20.0891L20.1409 14.3494L22.1746 7.23084ZM13.7379 20.753L13.3624 21.1703H13.9237H16.1724C16.9511 21.1703 17.5823 21.8008 17.5823 22.5802V25.8999C17.5823 26.9539 18.4392 27.8098 19.4922 27.8098C20.5452 27.8098 21.4021 26.9539 21.4021 25.8999V24.24C21.4021 23.4607 22.0333 22.8302 22.8119 22.8302H26.5543H27.1157L26.7402 22.4129L22.2585 17.4333L22.184 17.3505H22.0727H16.9115H16.8001L16.7257 17.4333L13.7379 20.753ZM29.6373 25.6318L29.2014 25.1476V25.7991V31.7095C29.2014 32.3045 29.6852 32.7894 30.2814 32.7894C30.8775 32.7894 31.3613 32.3045 31.3613 31.7095V27.6434V27.5475L31.2972 27.4762L29.6373 25.6318Z" fill="#00203A" stroke="#CCE5FB" stroke-width="0.5"/>
<path d="M73.1154 26.7097L74.5516 23.8373L77.0736 25.0983L75.6374 27.9707L73.1154 26.7097Z" fill="#00203A" stroke="#CCE5FB" stroke-width="0.5"/>
<path d="M69.7961 33.3488L71.2323 30.4764L73.7543 31.7374L72.3181 34.6098L69.7961 33.3488Z" fill="#00203A" stroke="#CCE5FB" stroke-width="0.5"/>
<path d="M66.4766 39.9891L67.9128 37.1168L70.4348 38.3778L68.9986 41.2501L66.4766 39.9891Z" fill="#00203A" stroke="#CCE5FB" stroke-width="0.5"/>
<path d="M93.0297 26.7102L94.4659 23.8378L96.9879 25.0988L95.5517 27.9712L93.0297 26.7102Z" fill="#00203A" stroke="#CCE5FB" stroke-width="0.5"/>
<path d="M89.7135 33.3441L91.1496 30.4717L93.6716 31.7327L92.2354 34.6051L89.7135 33.3441Z" fill="#00203A" stroke="#CCE5FB" stroke-width="0.5"/>
<path d="M86.3941 39.9961L87.8303 37.1238L90.3523 38.3848L88.9161 41.2571L86.3941 39.9961Z" fill="#00203A" stroke="#CCE5FB" stroke-width="0.5"/>
<mask id="path-12-inside-1" fill="white">
<path d="M99.6528 96.1012C97.8132 97.9393 94.7507 98.0983 92.6748 96.6122C94.3559 87.2074 90.4637 77.7396 82.55 72.2599C76.6771 68.1928 68.7489 68.9078 63.6981 73.9603L63.1356 74.5228C60.658 76.9997 60.658 81.0326 63.1356 83.5096C65.5362 85.9087 69.7216 85.9087 72.1224 83.5096L72.4637 83.1676C73.4047 84.7205 73.8327 86.708 73.6559 88.8411C73.4094 91.8092 72.0373 94.4577 69.9845 95.9248L70.0048 95.9533C69.9293 96.0051 69.8413 96.0356 69.7755 96.1014C67.8908 97.985 64.725 98.1001 62.6497 96.4934V92.2955C62.6497 91.8546 62.4746 91.4332 62.1633 91.122L55.5238 84.4825C55.1995 84.1582 54.775 83.9961 54.3503 83.9961H46.0509C45.6108 83.9961 45.1886 84.1712 44.8774 84.4825L38.2378 91.122C37.9266 91.4332 37.7515 91.8546 37.7515 92.2955V97.3544C35.88 97.9314 33.7141 97.5289 32.2855 96.1016C31.6631 95.4792 30.5607 95.4792 29.9382 96.1016C29.1081 96.9311 28.0246 97.4036 26.8971 97.5561C27.8458 96.8982 28.8218 96.1031 29.7957 95.1291C35.376 89.5497 33.6294 82.2425 33.5522 81.9343C33.4298 81.4449 33.0926 81.038 32.6355 80.8289C32.1776 80.6166 31.65 80.6278 31.1993 80.8515L29.0199 81.9408C29.1925 80.806 29.0855 79.553 28.4468 78.2741C27.0876 75.5556 25.4099 75.2201 24.2996 74.9981C23.7056 74.8799 23.4527 74.8199 23.156 74.5232C22.6883 74.0547 22.8869 71.607 23.5581 69.5809C23.7689 68.9439 23.5759 68.242 23.0686 67.8028C22.5613 67.3666 21.8424 67.2759 21.2401 67.5727C19.4943 68.4464 10.694 72.9834 8.87852 76.6144C8.01455 78.3424 7.87927 80.0574 8.01123 81.4627L5.90879 80.7625C5.12595 80.4998 4.26841 80.8548 3.89868 81.5941C2.53633 84.319 1.57899 90.6877 7.70706 95.2833C8.32474 95.7464 8.90715 96.1562 9.47297 96.5421C7.39687 98.0993 4.27381 97.9667 2.40727 96.1018L0.0599976 98.4483C1.70286 100.092 3.88872 100.998 6.21317 100.998C8.02057 100.998 9.7429 100.45 11.1928 99.4338C13.3469 100.944 16.1949 101.327 18.7067 100.593C18.9376 100.59 20.2147 100.54 22.0532 99.9602C24.8688 101.431 28.4975 101.266 31.1114 99.4336C32.5613 100.45 34.2836 100.998 36.091 100.998C37.0705 100.998 38.0133 100.803 38.9134 100.494C39.073 100.545 39.2344 100.594 39.4108 100.594H60.9892C61.4548 100.594 61.8727 100.401 62.1741 100.092C63.346 100.664 64.6266 100.998 65.9688 100.998C67.7762 100.998 69.4986 100.45 70.9485 99.4336C73.8485 101.466 78.0077 101.466 80.9077 99.4336C83.8078 101.466 87.967 101.466 90.867 99.4336C92.3169 100.45 94.0393 100.998 95.8467 100.998C98.1711 100.998 100.357 100.092 102 98.4481L99.6528 96.1012ZM18.6608 96.8695C17.2132 95.7024 15.3427 93.7815 15.3427 92.2951C15.3427 90.846 17.031 88.3431 18.6625 86.4434C20.2939 88.3431 21.9822 90.846 21.9822 92.2951C21.982 93.7734 20.1082 95.6976 18.6608 96.8695ZM24.5223 95.1524C24.993 94.2575 25.3018 93.2933 25.3018 92.2951C25.3018 88.4 20.3952 83.3813 19.8358 82.8222C19.1874 82.1738 18.1369 82.1738 17.4885 82.8222C16.9294 83.3813 12.0225 88.4 12.0225 92.2951C12.0225 93.0833 12.2161 93.8504 12.5282 94.5791C11.6715 94.0407 10.7322 93.4022 9.69892 92.6273C5.88721 89.7679 5.99012 86.3038 6.41962 84.4316L9.83752 85.5695C10.4745 85.7851 11.1764 85.5906 11.6165 85.0831C12.0566 84.5756 12.1474 83.8527 11.8474 83.2531C11.8344 83.2272 10.5936 80.606 11.8474 78.0984C12.585 76.6234 16.1998 74.169 19.6175 72.2126C19.47 73.8968 19.6605 75.722 20.8081 76.8696C21.8277 77.8892 22.8796 78.1 23.6481 78.254C24.4691 78.4177 24.8437 78.4922 25.4767 79.7582C26.5741 81.953 24.1475 84.4623 24.128 84.4818C23.5527 85.0572 23.4788 85.9649 23.9554 86.6264C24.4312 87.2879 25.313 87.5034 26.044 87.1404L30.5568 84.884C30.5785 86.949 30.0955 90.1327 27.4478 92.7814C26.449 93.7803 25.4597 94.5484 24.5223 95.1524ZM46.0503 97.2747H41.0706V93.955H46.0503V97.2747ZM43.4179 90.6352L46.7377 87.3155H50.3427L47.023 90.6352H43.4179ZM59.3293 97.2747H56.0096V92.2951H52.6898V97.2747H49.37V92.9823L54.3497 88.0027L59.3293 92.9823V97.2747ZM79.6251 96.1892C78.0179 97.7055 75.559 98.003 73.6005 97.1C75.4824 95.0358 76.7084 92.1965 76.9641 89.1148C77.2236 85.9747 76.4518 83.0336 74.8461 80.7859L76.2761 79.3563C77.5672 80.1085 79.9419 81.997 80.9575 86.0575C82.2527 91.2388 80.1172 95.3391 79.6251 96.1892ZM89.3445 96.3824C87.5834 97.8478 84.9657 98.0057 83.0309 96.8303C84.0169 94.7509 85.4846 90.48 84.1779 85.2537C82.3186 77.8149 76.6914 75.8617 76.4532 75.7824C75.8551 75.5797 75.1994 75.7386 74.7544 76.1829L71.4346 79.5026L69.7747 81.1625C68.5914 82.3458 66.6658 82.3458 65.4823 81.1625C64.2988 79.9792 64.299 78.0535 65.4823 76.8701L66.0448 76.3076C69.9602 72.3929 76.1053 71.8369 80.6596 74.9896C87.5964 79.7929 90.9585 88.1406 89.3445 96.3824Z"/>
</mask>
<path d="M99.6528 96.1012C97.8132 97.9393 94.7507 98.0983 92.6748 96.6122C94.3559 87.2074 90.4637 77.7396 82.55 72.2599C76.6771 68.1928 68.7489 68.9078 63.6981 73.9603L63.1356 74.5228C60.658 76.9997 60.658 81.0326 63.1356 83.5096C65.5362 85.9087 69.7216 85.9087 72.1224 83.5096L72.4637 83.1676C73.4047 84.7205 73.8327 86.708 73.6559 88.8411C73.4094 91.8092 72.0373 94.4577 69.9845 95.9248L70.0048 95.9533C69.9293 96.0051 69.8413 96.0356 69.7755 96.1014C67.8908 97.985 64.725 98.1001 62.6497 96.4934V92.2955C62.6497 91.8546 62.4746 91.4332 62.1633 91.122L55.5238 84.4825C55.1995 84.1582 54.775 83.9961 54.3503 83.9961H46.0509C45.6108 83.9961 45.1886 84.1712 44.8774 84.4825L38.2378 91.122C37.9266 91.4332 37.7515 91.8546 37.7515 92.2955V97.3544C35.88 97.9314 33.7141 97.5289 32.2855 96.1016C31.6631 95.4792 30.5607 95.4792 29.9382 96.1016C29.1081 96.9311 28.0246 97.4036 26.8971 97.5561C27.8458 96.8982 28.8218 96.1031 29.7957 95.1291C35.376 89.5497 33.6294 82.2425 33.5522 81.9343C33.4298 81.4449 33.0926 81.038 32.6355 80.8289C32.1776 80.6166 31.65 80.6278 31.1993 80.8515L29.0199 81.9408C29.1925 80.806 29.0855 79.553 28.4468 78.2741C27.0876 75.5556 25.4099 75.2201 24.2996 74.9981C23.7056 74.8799 23.4527 74.8199 23.156 74.5232C22.6883 74.0547 22.8869 71.607 23.5581 69.5809C23.7689 68.9439 23.5759 68.242 23.0686 67.8028C22.5613 67.3666 21.8424 67.2759 21.2401 67.5727C19.4943 68.4464 10.694 72.9834 8.87852 76.6144C8.01455 78.3424 7.87927 80.0574 8.01123 81.4627L5.90879 80.7625C5.12595 80.4998 4.26841 80.8548 3.89868 81.5941C2.53633 84.319 1.57899 90.6877 7.70706 95.2833C8.32474 95.7464 8.90715 96.1562 9.47297 96.5421C7.39687 98.0993 4.27381 97.9667 2.40727 96.1018L0.0599976 98.4483C1.70286 100.092 3.88872 100.998 6.21317 100.998C8.02057 100.998 9.7429 100.45 11.1928 99.4338C13.3469 100.944 16.1949 101.327 18.7067 100.593C18.9376 100.59 20.2147 100.54 22.0532 99.9602C24.8688 101.431 28.4975 101.266 31.1114 99.4336C32.5613 100.45 34.2836 100.998 36.091 100.998C37.0705 100.998 38.0133 100.803 38.9134 100.494C39.073 100.545 39.2344 100.594 39.4108 100.594H60.9892C61.4548 100.594 61.8727 100.401 62.1741 100.092C63.346 100.664 64.6266 100.998 65.9688 100.998C67.7762 100.998 69.4986 100.45 70.9485 99.4336C73.8485 101.466 78.0077 101.466 80.9077 99.4336C83.8078 101.466 87.967 101.466 90.867 99.4336C92.3169 100.45 94.0393 100.998 95.8467 100.998C98.1711 100.998 100.357 100.092 102 98.4481L99.6528 96.1012ZM18.6608 96.8695C17.2132 95.7024 15.3427 93.7815 15.3427 92.2951C15.3427 90.846 17.031 88.3431 18.6625 86.4434C20.2939 88.3431 21.9822 90.846 21.9822 92.2951C21.982 93.7734 20.1082 95.6976 18.6608 96.8695ZM24.5223 95.1524C24.993 94.2575 25.3018 93.2933 25.3018 92.2951C25.3018 88.4 20.3952 83.3813 19.8358 82.8222C19.1874 82.1738 18.1369 82.1738 17.4885 82.8222C16.9294 83.3813 12.0225 88.4 12.0225 92.2951C12.0225 93.0833 12.2161 93.8504 12.5282 94.5791C11.6715 94.0407 10.7322 93.4022 9.69892 92.6273C5.88721 89.7679 5.99012 86.3038 6.41962 84.4316L9.83752 85.5695C10.4745 85.7851 11.1764 85.5906 11.6165 85.0831C12.0566 84.5756 12.1474 83.8527 11.8474 83.2531C11.8344 83.2272 10.5936 80.606 11.8474 78.0984C12.585 76.6234 16.1998 74.169 19.6175 72.2126C19.47 73.8968 19.6605 75.722 20.8081 76.8696C21.8277 77.8892 22.8796 78.1 23.6481 78.254C24.4691 78.4177 24.8437 78.4922 25.4767 79.7582C26.5741 81.953 24.1475 84.4623 24.128 84.4818C23.5527 85.0572 23.4788 85.9649 23.9554 86.6264C24.4312 87.2879 25.313 87.5034 26.044 87.1404L30.5568 84.884C30.5785 86.949 30.0955 90.1327 27.4478 92.7814C26.449 93.7803 25.4597 94.5484 24.5223 95.1524ZM46.0503 97.2747H41.0706V93.955H46.0503V97.2747ZM43.4179 90.6352L46.7377 87.3155H50.3427L47.023 90.6352H43.4179ZM59.3293 97.2747H56.0096V92.2951H52.6898V97.2747H49.37V92.9823L54.3497 88.0027L59.3293 92.9823V97.2747ZM79.6251 96.1892C78.0179 97.7055 75.559 98.003 73.6005 97.1C75.4824 95.0358 76.7084 92.1965 76.9641 89.1148C77.2236 85.9747 76.4518 83.0336 74.8461 80.7859L76.2761 79.3563C77.5672 80.1085 79.9419 81.997 80.9575 86.0575C82.2527 91.2388 80.1172 95.3391 79.6251 96.1892ZM89.3445 96.3824C87.5834 97.8478 84.9657 98.0057 83.0309 96.8303C84.0169 94.7509 85.4846 90.48 84.1779 85.2537C82.3186 77.8149 76.6914 75.8617 76.4532 75.7824C75.8551 75.5797 75.1994 75.7386 74.7544 76.1829L71.4346 79.5026L69.7747 81.1625C68.5914 82.3458 66.6658 82.3458 65.4823 81.1625C64.2988 79.9792 64.299 78.0535 65.4823 76.8701L66.0448 76.3076C69.9602 72.3929 76.1053 71.8369 80.6596 74.9896C87.5964 79.7929 90.9585 88.1406 89.3445 96.3824Z" fill="#00203A" stroke="#CCE5FB" mask="url(#path-12-inside-1)"/>
</svg>
