<svg width="24" height="24" viewBox="0 0 24 24" fill="none" xmlns="http://www.w3.org/2000/svg">
<path d="M20.7466 0.333984C22.2114 0.333984 23.3927 1.42571 23.4625 2.71042V23.3783L20.6737 21.1958L19.1422 19.9111L17.4712 18.5687L17.8921 20.6859H3.54458C2.08399 20.6859 0.898438 19.6633 0.898438 18.3085V2.71523C0.898438 1.43051 2.08608 0.336865 3.54979 0.336865H20.7393L20.7466 0.333984ZM14.3729 5.79068H14.3417L14.1312 5.98271C16.2909 6.55882 17.3358 7.45851 17.3358 7.45851C15.944 6.81711 14.6896 6.49641 13.4353 6.36678C12.529 6.23716 11.6226 6.30533 10.8569 6.36678H10.6485C10.1589 6.36678 9.11711 6.55882 7.72111 7.07251C7.2346 7.26743 6.9554 7.39513 6.9554 7.39513C6.9554 7.39513 7.99927 6.43303 10.2995 5.91934L10.1589 5.78972C10.1589 5.78972 8.41703 5.72826 6.5366 7.00914C6.5366 7.00914 4.65617 10.0279 4.65617 13.7496C4.65617 13.7496 5.69796 15.4203 8.55559 15.4837C8.55559 15.4837 8.9723 14.9719 9.39422 14.5216C7.78987 14.0722 7.1648 13.1735 7.1648 13.1735C7.1648 13.1735 7.3044 13.2369 7.5138 13.3655H7.5763C7.60756 13.3655 7.62214 13.3799 7.63881 13.3943V13.4001C7.65548 13.4155 7.67006 13.4289 7.70132 13.4289C8.04511 13.5595 8.3889 13.6881 8.67018 13.813C9.15565 14.0069 9.77969 14.1999 10.5454 14.3276C11.5143 14.4572 12.6248 14.5197 13.8895 14.3276C14.5146 14.198 15.1397 14.0713 15.7648 13.8139C16.1711 13.6219 16.6711 13.4299 17.2201 13.1063C17.2201 13.1063 16.5951 14.005 14.923 14.4544C15.2668 14.9018 15.7512 15.4145 15.7512 15.4145C18.6099 15.3569 19.7204 13.6862 19.7829 13.7573C19.7829 10.0414 17.8921 7.01682 17.8921 7.01682C16.1888 5.85117 14.5948 5.807 14.3136 5.807L14.3719 5.7878L14.3729 5.79068ZM14.548 10.0279C15.2803 10.0279 15.871 10.604 15.871 11.3098C15.871 12.0203 15.2772 12.5964 14.548 12.5964C13.8187 12.5964 13.2249 12.0203 13.2249 11.3155C13.227 10.605 13.8218 10.0308 14.548 10.0308V10.0279ZM9.81511 10.0279C10.5444 10.0279 11.134 10.604 11.134 11.3098C11.134 12.0203 10.5402 12.5964 9.81094 12.5964C9.08169 12.5964 8.48787 12.0203 8.48787 11.3155C8.48787 10.605 9.08169 10.0308 9.81094 10.0308L9.81511 10.0279Z" fill="white"/>
</svg>
