<svg width="103" height="102" viewBox="0 0 103 102" fill="none" xmlns="http://www.w3.org/2000/svg">
<g clip-path="url(#clip0)">
<path d="M58.4056 59.8178H82.6972C83.6316 59.8178 84.3893 59.0602 84.3893 58.1257C84.3893 57.1913 83.6316 56.4337 82.6972 56.4337H58.4056C57.4711 56.4337 56.7135 57.1913 56.7135 58.1257C56.7135 59.0602 57.4709 59.8178 58.4056 59.8178Z" fill="#00203A"/>
<path d="M80.7794 63.9783H60.3233C58.6216 63.9783 57.2371 65.3628 57.2371 67.0645V82.4064C57.2371 84.1082 58.6216 85.4927 60.3233 85.4927H80.7792C82.481 85.4927 83.8655 84.1082 83.8655 82.4064V67.0645C83.8655 65.3626 82.4812 63.9783 80.7794 63.9783ZM80.8518 82.4064C80.8518 82.4464 80.8192 82.479 80.7792 82.479H60.3233C60.2833 82.479 60.2508 82.4464 60.2508 82.4064V67.0645C60.2508 67.0245 60.2833 66.992 60.3233 66.992H80.7792C80.8192 66.992 80.8518 67.0245 80.8518 67.0645V82.4064Z" fill="#00203A"/>
<path d="M79.1073 7.52118C79.9395 7.52118 80.6142 6.84651 80.6142 6.01433V1.50685C80.6142 0.674666 79.9395 0 79.1073 0C78.2751 0 77.6005 0.674666 77.6005 1.50685V6.01453C77.6005 6.84651 78.2751 7.52118 79.1073 7.52118Z" fill="#00203A"/>
<path d="M67.4638 10.0808C68.0523 10.6693 69.0064 10.6693 69.5947 10.0808C70.1831 9.49234 70.1831 8.5382 69.5947 7.94993L66.4074 4.76264C65.8189 4.17417 64.8648 4.17417 64.2765 4.76264C63.688 5.35112 63.688 6.30525 64.2765 6.89353L67.4638 10.0808Z" fill="#00203A"/>
<path d="M90.7509 10.0808L93.9384 6.89353C94.5269 6.30505 94.5269 5.35112 93.9384 4.76264C93.3502 4.17417 92.396 4.17417 91.8075 4.76264L88.6201 7.94993C88.0316 8.5384 88.0316 9.49234 88.6201 10.0808C89.2081 10.6693 90.1625 10.6693 90.7509 10.0808Z" fill="#00203A"/>
<path d="M101.361 16.42H96.8529C96.0207 16.42 95.3461 17.0947 95.3461 17.9269C95.3461 18.759 96.0207 19.4337 96.8529 19.4337H101.361C102.193 19.4337 102.867 18.759 102.867 17.9269C102.867 17.0947 102.193 16.42 101.361 16.42Z" fill="#00203A"/>
<path d="M56.8541 19.4337H61.3618C62.1939 19.4337 62.8686 18.759 62.8686 17.9269C62.8686 17.0947 62.1939 16.42 61.3618 16.42H56.8541C56.0219 16.42 55.3472 17.0947 55.3472 17.9269C55.3472 18.759 56.0219 19.4337 56.8541 19.4337Z" fill="#00203A"/>
<path d="M16.6396 36.794H40.9312C41.8656 36.794 42.6233 36.0364 42.6233 35.1019C42.6233 34.1675 41.8656 33.4098 40.9312 33.4098H16.6396C15.7052 33.4098 14.9475 34.1675 14.9475 35.1019C14.9475 36.0364 15.7052 36.794 16.6396 36.794Z" fill="#00203A"/>
<path d="M16.6396 44.4687H40.9312C41.8656 44.4687 42.6233 43.711 42.6233 42.7766C42.6233 41.8421 41.8656 41.0845 40.9312 41.0845H16.6396C15.7052 41.0845 14.9475 41.8421 14.9475 42.7766C14.9475 43.711 15.7052 44.4687 16.6396 44.4687Z" fill="#00203A"/>
<path d="M42.6235 50.451C42.6235 49.5164 41.8658 48.759 40.9314 48.759H16.6396C15.7052 48.759 14.9475 49.5166 14.9475 50.451C14.9475 51.3855 15.7052 52.1431 16.6396 52.1431H40.9312C41.8658 52.1431 42.6235 51.3855 42.6235 50.451Z" fill="#00203A"/>
<path d="M16.6396 80.9227H40.9312C41.8656 80.9227 42.6233 80.1651 42.6233 79.2306C42.6233 78.2962 41.8656 77.5385 40.9312 77.5385H16.6396C15.7052 77.5385 14.9475 78.2962 14.9475 79.2306C14.9475 80.1653 15.7052 80.9227 16.6396 80.9227Z" fill="#00203A"/>
<path d="M95.3882 28.2439H93.4816C93.7805 25.1456 93.0765 22.1179 91.5612 19.548C91.1385 18.8309 90.2145 18.5927 89.4979 19.0152C88.781 19.4379 88.5423 20.3617 88.965 21.0786C91.2739 24.9951 91.0531 30.0091 88.1913 33.7646C88.1757 33.7849 88.1604 33.8054 88.1447 33.8257C87.2151 35.0289 85.2427 36.5752 83.7449 40.2256H74.4692C73.6633 38.262 72.4466 36.3755 70.9152 34.8015C63.7475 27.4356 69.2826 15.0228 79.5575 15.4182C81.3181 15.4857 82.9979 15.9509 84.5502 16.8007C85.2805 17.2003 86.1959 16.9323 86.5955 16.2026C86.9951 15.4727 86.7273 14.5569 85.9974 14.1573C77.3354 9.41535 66.5363 14.6807 64.8754 24.3982H52.5753C51.4624 24.3982 50.4454 24.8129 49.6681 25.495C48.891 24.8131 47.8737 24.3982 46.7611 24.3982H9.25927C7.6803 24.3982 6.39566 25.6829 6.39566 27.2616V28.2437H3.94854C1.77125 28.2439 0 30.0154 0 32.1927V60.9353V68.6063V72.1468C0 72.979 0.674666 73.6536 1.50685 73.6536C2.33903 73.6536 3.01369 72.979 3.01369 72.1468V71.9047C3.21863 71.9232 3.04986 71.918 6.39566 71.918V88.6813C6.39566 90.2603 7.6803 91.5447 9.25927 91.5447H46.7613C47.6373 91.5447 47.8944 92.2031 48.1614 92.4557V97.1341C47.1241 96.4703 45.9044 96.099 44.6398 96.099H3.94854C3.433 96.099 3.01369 95.6797 3.01369 95.1642V79.1788C3.01369 78.3466 2.33903 77.6719 1.50685 77.6719C0.674666 77.6719 0 78.3466 0 79.1788V95.1642C0 97.3415 1.77125 99.1127 3.94854 99.1127H44.6398C45.8835 99.1127 47.0482 99.7806 47.6791 100.856C48.5936 102.415 50.7816 102.348 51.6573 100.856C52.2884 99.7806 53.4531 99.1127 54.6967 99.1127H95.388C97.5653 99.1127 99.3366 97.3415 99.3366 95.1642V32.1927C99.3368 30.0154 97.5655 28.2439 95.3882 28.2439ZM74.9307 46.3871V43.2392H83.2836V46.3871C83.2836 48.69 81.4101 50.5637 79.1071 50.5637C76.804 50.5637 74.9307 48.6902 74.9307 46.3871ZM52.5755 27.4121H64.6769C64.7597 29.5348 65.3323 31.6289 66.2458 33.4098H58.4054C57.4709 33.4098 56.7133 34.1674 56.7133 35.1019C56.7133 36.0365 57.4709 36.794 58.4054 36.794H68.6536C69.9075 38.1085 70.8114 39.3837 71.5543 41.0843H58.4052C57.4707 41.0843 56.7131 41.8419 56.7131 42.7765C56.7131 43.711 57.4707 44.4686 58.4052 44.4686H71.9168V46.3874C71.9168 47.2181 72.06 48.0159 72.3206 48.7589H58.4054C57.4709 48.7589 56.7133 49.5166 56.7133 50.451C56.7133 51.3855 57.4709 52.1431 58.4054 52.1431L74.73 52.0858C75.9433 53.0199 77.461 53.5774 79.1071 53.5774C83.0717 53.5774 86.2973 50.352 86.2973 46.3871V41.999C87.4192 38.8348 89.2164 37.2012 89.9272 36.3986V88.5311H52.5755C52.1355 88.5311 51.6579 88.6012 51.2021 88.7503C51.1932 88.7531 51.184 88.7551 51.1753 88.7581V28.8125C51.1751 28.0402 51.8034 27.4121 52.5755 27.4121ZM3.01369 32.1927C3.01369 31.6771 3.433 31.2578 3.94854 31.2578H6.39566V57.6234H3.31185C3.21139 57.6234 3.11194 57.6278 3.01369 57.6367V32.1927ZM3.31185 68.9043C3.1475 68.9043 3.01369 68.7705 3.01369 68.6061V60.9351C3.01369 60.7707 3.1475 60.6369 3.31185 60.6369H8.99849V68.9041C7.55855 68.9043 10.4177 68.9043 3.31185 68.9043ZM31.7135 71.918C32.0004 71.918 32.315 71.8275 32.573 71.6479C32.5756 71.6461 32.5784 71.6449 32.581 71.6431L39.2809 66.9251C39.9807 66.432 40.3986 65.6268 40.3986 64.7707C40.3986 63.9146 39.9807 63.1093 39.2809 62.6163L32.581 57.8983C32.5782 57.8962 32.575 57.8948 32.5722 57.893C32.3546 57.7417 32.083 57.6405 31.7822 57.627C31.7593 57.626 31.7366 57.6236 31.7135 57.6236C29.0761 57.6236 11.7542 57.6236 9.40936 57.6236V29.7508V27.4119H46.7613C47.5334 27.4119 48.1614 28.04 48.1614 28.8121V88.7577C47.7445 88.6176 47.2491 88.5306 46.7613 88.5306H9.40936V71.9176C11.7532 71.918 29.0743 71.918 31.7135 71.918ZM30.2067 68.9043H12.0122V60.6371H30.2067V68.9043ZM37.106 64.7707L33.2204 67.5071V62.0345L37.106 64.7707ZM96.3231 95.1642C96.3231 95.6797 95.9038 96.099 95.3882 96.099H54.6969C53.4326 96.099 52.2125 96.4705 51.1753 97.1341V92.4557C51.4616 92.1849 51.6891 91.5447 52.5757 91.5447H90.0777C91.6567 91.5447 92.9411 90.2601 92.9411 88.6813V31.2576H95.3882C95.9038 31.2576 96.3231 31.6769 96.3231 32.1925V95.1642Z" fill="#00203A"/>
</g>
<defs>
<clipPath id="clip0">
<rect width="103" height="102" fill="white"/>
</clipPath>
</defs>
</svg>
