<svg width="26" height="26" viewBox="0 0 26 26" fill="none" xmlns="http://www.w3.org/2000/svg">
<circle cx="13" cy="13" r="13" fill="white"/>
<path d="M19.909 11.5455H14.4545V6.09091C14.4545 5.48873 13.9658 5 13.3636 5H12.6364C12.0342 5 11.5455 5.48873 11.5455 6.09091V11.5455H6.09091C5.48873 11.5455 5 12.0342 5 12.6364V13.3636C5 13.9658 5.48873 14.4545 6.09091 14.4545H11.5455V19.909C11.5455 20.5112 12.0342 21 12.6364 21H13.3636C13.9658 21 14.4545 20.5112 14.4545 19.909V14.4545H19.909C20.5112 14.4545 21 13.9658 21 13.3636V12.6364C21 12.0342 20.5112 11.5455 19.909 11.5455V11.5455Z" fill="black"/>
</svg>
