<svg width="28" height="28" viewBox="0 0 28 28" fill="none" xmlns="http://www.w3.org/2000/svg">
<path d="M27.2085 20.5492L23.301 16.6417C21.9055 15.2462 19.5331 15.8044 18.9749 17.6186C18.5562 18.8746 17.1607 19.5724 15.9047 19.2932C13.1137 18.5954 9.34573 14.9671 8.64797 12.0364C8.22931 10.7804 9.06663 9.38488 10.3226 8.96628C12.1368 8.40807 12.695 6.03567 11.2995 4.64014L7.39199 0.732653C6.27557 -0.244218 4.60093 -0.244218 3.62406 0.732653L0.972555 3.38416C-1.67895 6.17522 1.25166 13.5715 7.81065 20.1305C14.3696 26.6895 21.7659 29.7597 24.557 26.9686L27.2085 24.3171C28.1854 23.2007 28.1854 21.526 27.2085 20.5492Z" fill="white"/>
</svg>
