<svg width="792" height="744" viewBox="0 0 792 744" fill="none" xmlns="http://www.w3.org/2000/svg">
<circle cx="532.286" cy="81.3112" r="72.1793" stroke="#BFD9EF" stroke-width="18.1583"/>
<path fill-rule="evenodd" clip-rule="evenodd" d="M428.953 374.133C435.438 384.684 440.751 395.773 444.894 407.22L197.588 654.526C186.141 650.384 175.051 645.071 164.5 638.585L428.953 374.133ZM267.188 665.437C252.033 665.941 236.882 664.633 222.089 661.507L451.874 431.722C455 446.515 456.309 461.665 455.805 476.82L267.188 665.437ZM303.345 660.762C337.991 652.885 371.144 635.284 398.398 608.03C425.651 580.777 443.252 547.624 451.129 512.978L303.345 660.762ZM146.036 625.568C140.958 621.488 136.054 617.095 131.347 612.388C127.785 608.826 124.403 605.151 121.2 601.374L391.741 330.833C395.518 334.036 399.193 337.418 402.755 340.979C407.462 345.686 411.855 350.591 415.935 355.668L146.036 625.568ZM91.0488 551.014C95.472 562.222 101.038 573.056 107.751 583.341L373.708 317.384C363.424 310.671 352.59 305.105 341.381 300.681L91.0488 551.014ZM83.4697 527.111C79.9885 512.799 78.2313 498.107 78.1928 483.36L273.727 287.825C288.474 287.864 303.167 289.621 317.478 293.102L83.4697 527.111ZM135.704 345.337C165.16 315.881 201.508 297.7 239.185 290.886L81.2534 448.817C88.0674 411.141 106.248 374.793 135.704 345.337Z" fill="#5AC1F8"/>
<path d="M55.8512 38.4595C54.6503 38.4595 53.6432 38.0527 52.8297 37.2392C52.0162 36.4257 51.6094 35.4186 51.6094 34.2177C51.6094 33.0168 52.0162 32.0096 52.8297 31.1962C53.6432 30.3827 54.6503 29.9759 55.8512 29.9759C57.0133 29.9759 58.0012 30.3827 58.8147 31.1962C59.6281 32.0096 60.0349 33.0168 60.0349 34.2177C60.0349 35.4186 59.6281 36.4257 58.8147 37.2392C58.0012 38.0527 57.0133 38.4595 55.8512 38.4595ZM84.9613 38.4595C83.7604 38.4595 82.7532 38.0527 81.9397 37.2392C81.1262 36.4257 80.7195 35.4186 80.7195 34.2177C80.7195 33.0168 81.1262 32.0096 81.9397 31.1962C82.7532 30.3827 83.7604 29.9759 84.9613 29.9759C86.1234 29.9759 87.1112 30.3827 87.9247 31.1962C88.7382 32.0096 89.145 33.0168 89.145 34.2177C89.145 35.4186 88.7382 36.4257 87.9247 37.2392C87.1112 38.0527 86.1234 38.4595 84.9613 38.4595ZM114.071 38.4595C112.87 38.4595 111.863 38.0527 111.05 37.2392C110.236 36.4257 109.83 35.4186 109.83 34.2177C109.83 33.0168 110.236 32.0096 111.05 31.1962C111.863 30.3827 112.87 29.9759 114.071 29.9759C115.233 29.9759 116.221 30.3827 117.035 31.1962C117.848 32.0096 118.255 33.0168 118.255 34.2177C118.255 35.4186 117.848 36.4257 117.035 37.2392C116.221 38.0527 115.233 38.4595 114.071 38.4595ZM143.181 38.4595C141.981 38.4595 140.973 38.0527 140.16 37.2392C139.346 36.4257 138.94 35.4186 138.94 34.2177C138.94 33.0168 139.346 32.0096 140.16 31.1962C140.973 30.3827 141.981 29.9759 143.181 29.9759C144.344 29.9759 145.331 30.3827 146.145 31.1962C146.958 32.0096 147.365 33.0168 147.365 34.2177C147.365 35.4186 146.958 36.4257 146.145 37.2392C145.331 38.0527 144.344 38.4595 143.181 38.4595ZM172.291 38.4595C171.091 38.4595 170.083 38.0527 169.27 37.2392C168.456 36.4257 168.05 35.4186 168.05 34.2177C168.05 33.0168 168.456 32.0096 169.27 31.1962C170.083 30.3827 171.091 29.9759 172.291 29.9759C173.454 29.9759 174.441 30.3827 175.255 31.1962C176.068 32.0096 176.475 33.0168 176.475 34.2177C176.475 35.4186 176.068 36.4257 175.255 37.2392C174.441 38.0527 173.454 38.4595 172.291 38.4595ZM201.402 38.4595C200.201 38.4595 199.193 38.0527 198.38 37.2392C197.566 36.4257 197.16 35.4186 197.16 34.2177C197.16 33.0168 197.566 32.0096 198.38 31.1962C199.193 30.3827 200.201 29.9759 201.402 29.9759C202.564 29.9759 203.551 30.3827 204.365 31.1962C205.178 32.0096 205.585 33.0168 205.585 34.2177C205.585 35.4186 205.178 36.4257 204.365 37.2392C203.551 38.0527 202.564 38.4595 201.402 38.4595ZM230.512 38.4595C229.311 38.4595 228.304 38.0527 227.49 37.2392C226.677 36.4257 226.27 35.4186 226.27 34.2177C226.27 33.0168 226.677 32.0096 227.49 31.1962C228.304 30.3827 229.311 29.9759 230.512 29.9759C231.674 29.9759 232.662 30.3827 233.475 31.1962C234.289 32.0096 234.695 33.0168 234.695 34.2177C234.695 35.4186 234.289 36.4257 233.475 37.2392C232.662 38.0527 231.674 38.4595 230.512 38.4595ZM259.622 38.4595C258.421 38.4595 257.414 38.0527 256.6 37.2392C255.787 36.4257 255.38 35.4186 255.38 34.2177C255.38 33.0168 255.787 32.0096 256.6 31.1962C257.414 30.3827 258.421 29.9759 259.622 29.9759C260.784 29.9759 261.772 30.3827 262.585 31.1962C263.399 32.0096 263.805 33.0168 263.805 34.2177C263.805 35.4186 263.399 36.4257 262.585 37.2392C261.772 38.0527 260.784 38.4595 259.622 38.4595ZM288.732 38.4595C287.531 38.4595 286.524 38.0527 285.71 37.2392C284.897 36.4257 284.49 35.4186 284.49 34.2177C284.49 33.0168 284.897 32.0096 285.71 31.1962C286.524 30.3827 287.531 29.9759 288.732 29.9759C289.894 29.9759 290.882 30.3827 291.695 31.1962C292.509 32.0096 292.915 33.0168 292.915 34.2177C292.915 35.4186 292.509 36.4257 291.695 37.2392C290.882 38.0527 289.894 38.4595 288.732 38.4595ZM317.842 38.4595C316.641 38.4595 315.634 38.0527 314.82 37.2392C314.007 36.4257 313.6 35.4186 313.6 34.2177C313.6 33.0168 314.007 32.0096 314.82 31.1962C315.634 30.3827 316.641 29.9759 317.842 29.9759C319.004 29.9759 319.992 30.3827 320.805 31.1962C321.619 32.0096 322.025 33.0168 322.025 34.2177C322.025 35.4186 321.619 36.4257 320.805 37.2392C319.992 38.0527 319.004 38.4595 317.842 38.4595ZM346.952 38.4595C345.751 38.4595 344.744 38.0527 343.93 37.2392C343.117 36.4257 342.71 35.4186 342.71 34.2177C342.71 33.0168 343.117 32.0096 343.93 31.1962C344.744 30.3827 345.751 29.9759 346.952 29.9759C348.114 29.9759 349.102 30.3827 349.915 31.1962C350.729 32.0096 351.136 33.0168 351.136 34.2177C351.136 35.4186 350.729 36.4257 349.915 37.2392C349.102 38.0527 348.114 38.4595 346.952 38.4595ZM376.062 38.4595C374.861 38.4595 373.854 38.0527 373.04 37.2392C372.227 36.4257 371.82 35.4186 371.82 34.2177C371.82 33.0168 372.227 32.0096 373.04 31.1962C373.854 30.3827 374.861 29.9759 376.062 29.9759C377.224 29.9759 378.212 30.3827 379.025 31.1962C379.839 32.0096 380.246 33.0168 380.246 34.2177C380.246 35.4186 379.839 36.4257 379.025 37.2392C378.212 38.0527 377.224 38.4595 376.062 38.4595ZM405.172 38.4595C403.971 38.4595 402.964 38.0527 402.15 37.2392C401.337 36.4257 400.93 35.4186 400.93 34.2177C400.93 33.0168 401.337 32.0096 402.15 31.1962C402.964 30.3827 403.971 29.9759 405.172 29.9759C406.334 29.9759 407.322 30.3827 408.135 31.1962C408.949 32.0096 409.356 33.0168 409.356 34.2177C409.356 35.4186 408.949 36.4257 408.135 37.2392C407.322 38.0527 406.334 38.4595 405.172 38.4595ZM434.282 38.4595C433.081 38.4595 432.074 38.0527 431.26 37.2392C430.447 36.4257 430.04 35.4186 430.04 34.2177C430.04 33.0168 430.447 32.0096 431.26 31.1962C432.074 30.3827 433.081 29.9759 434.282 29.9759C435.444 29.9759 436.432 30.3827 437.245 31.1962C438.059 32.0096 438.466 33.0168 438.466 34.2177C438.466 35.4186 438.059 36.4257 437.245 37.2392C436.432 38.0527 435.444 38.4595 434.282 38.4595ZM55.8512 73.4595C54.6503 73.4595 53.6432 73.0527 52.8297 72.2392C52.0162 71.4257 51.6094 70.4186 51.6094 69.2177C51.6094 68.0168 52.0162 67.0096 52.8297 66.1962C53.6432 65.3827 54.6503 64.9759 55.8512 64.9759C57.0133 64.9759 58.0012 65.3827 58.8147 66.1962C59.6281 67.0096 60.0349 68.0168 60.0349 69.2177C60.0349 70.4186 59.6281 71.4257 58.8147 72.2392C58.0012 73.0527 57.0133 73.4595 55.8512 73.4595ZM84.9613 73.4595C83.7604 73.4595 82.7532 73.0527 81.9397 72.2392C81.1262 71.4257 80.7195 70.4186 80.7195 69.2177C80.7195 68.0168 81.1262 67.0096 81.9397 66.1962C82.7532 65.3827 83.7604 64.9759 84.9613 64.9759C86.1234 64.9759 87.1112 65.3827 87.9247 66.1962C88.7382 67.0096 89.145 68.0168 89.145 69.2177C89.145 70.4186 88.7382 71.4257 87.9247 72.2392C87.1112 73.0527 86.1234 73.4595 84.9613 73.4595ZM114.071 73.4595C112.87 73.4595 111.863 73.0527 111.05 72.2392C110.236 71.4257 109.83 70.4186 109.83 69.2177C109.83 68.0168 110.236 67.0096 111.05 66.1962C111.863 65.3827 112.87 64.9759 114.071 64.9759C115.233 64.9759 116.221 65.3827 117.035 66.1962C117.848 67.0096 118.255 68.0168 118.255 69.2177C118.255 70.4186 117.848 71.4257 117.035 72.2392C116.221 73.0527 115.233 73.4595 114.071 73.4595ZM143.181 73.4595C141.981 73.4595 140.973 73.0527 140.16 72.2392C139.346 71.4257 138.94 70.4186 138.94 69.2177C138.94 68.0168 139.346 67.0096 140.16 66.1962C140.973 65.3827 141.981 64.9759 143.181 64.9759C144.344 64.9759 145.331 65.3827 146.145 66.1962C146.958 67.0096 147.365 68.0168 147.365 69.2177C147.365 70.4186 146.958 71.4257 146.145 72.2392C145.331 73.0527 144.344 73.4595 143.181 73.4595ZM172.291 73.4595C171.091 73.4595 170.083 73.0527 169.27 72.2392C168.456 71.4257 168.05 70.4186 168.05 69.2177C168.05 68.0168 168.456 67.0096 169.27 66.1962C170.083 65.3827 171.091 64.9759 172.291 64.9759C173.454 64.9759 174.441 65.3827 175.255 66.1962C176.068 67.0096 176.475 68.0168 176.475 69.2177C176.475 70.4186 176.068 71.4257 175.255 72.2392C174.441 73.0527 173.454 73.4595 172.291 73.4595ZM201.402 73.4595C200.201 73.4595 199.193 73.0527 198.38 72.2392C197.566 71.4257 197.16 70.4186 197.16 69.2177C197.16 68.0168 197.566 67.0096 198.38 66.1962C199.193 65.3827 200.201 64.9759 201.402 64.9759C202.564 64.9759 203.551 65.3827 204.365 66.1962C205.178 67.0096 205.585 68.0168 205.585 69.2177C205.585 70.4186 205.178 71.4257 204.365 72.2392C203.551 73.0527 202.564 73.4595 201.402 73.4595ZM230.512 73.4595C229.311 73.4595 228.304 73.0527 227.49 72.2392C226.677 71.4257 226.27 70.4186 226.27 69.2177C226.27 68.0168 226.677 67.0096 227.49 66.1962C228.304 65.3827 229.311 64.9759 230.512 64.9759C231.674 64.9759 232.662 65.3827 233.475 66.1962C234.289 67.0096 234.695 68.0168 234.695 69.2177C234.695 70.4186 234.289 71.4257 233.475 72.2392C232.662 73.0527 231.674 73.4595 230.512 73.4595ZM259.622 73.4595C258.421 73.4595 257.414 73.0527 256.6 72.2392C255.787 71.4257 255.38 70.4186 255.38 69.2177C255.38 68.0168 255.787 67.0096 256.6 66.1962C257.414 65.3827 258.421 64.9759 259.622 64.9759C260.784 64.9759 261.772 65.3827 262.585 66.1962C263.399 67.0096 263.805 68.0168 263.805 69.2177C263.805 70.4186 263.399 71.4257 262.585 72.2392C261.772 73.0527 260.784 73.4595 259.622 73.4595ZM288.732 73.4595C287.531 73.4595 286.524 73.0527 285.71 72.2392C284.897 71.4257 284.49 70.4186 284.49 69.2177C284.49 68.0168 284.897 67.0096 285.71 66.1962C286.524 65.3827 287.531 64.9759 288.732 64.9759C289.894 64.9759 290.882 65.3827 291.695 66.1962C292.509 67.0096 292.915 68.0168 292.915 69.2177C292.915 70.4186 292.509 71.4257 291.695 72.2392C290.882 73.0527 289.894 73.4595 288.732 73.4595ZM317.842 73.4595C316.641 73.4595 315.634 73.0527 314.82 72.2392C314.007 71.4257 313.6 70.4186 313.6 69.2177C313.6 68.0168 314.007 67.0096 314.82 66.1962C315.634 65.3827 316.641 64.9759 317.842 64.9759C319.004 64.9759 319.992 65.3827 320.805 66.1962C321.619 67.0096 322.025 68.0168 322.025 69.2177C322.025 70.4186 321.619 71.4257 320.805 72.2392C319.992 73.0527 319.004 73.4595 317.842 73.4595ZM346.952 73.4595C345.751 73.4595 344.744 73.0527 343.93 72.2392C343.117 71.4257 342.71 70.4186 342.71 69.2177C342.71 68.0168 343.117 67.0096 343.93 66.1962C344.744 65.3827 345.751 64.9759 346.952 64.9759C348.114 64.9759 349.102 65.3827 349.915 66.1962C350.729 67.0096 351.136 68.0168 351.136 69.2177C351.136 70.4186 350.729 71.4257 349.915 72.2392C349.102 73.0527 348.114 73.4595 346.952 73.4595ZM376.062 73.4595C374.861 73.4595 373.854 73.0527 373.04 72.2392C372.227 71.4257 371.82 70.4186 371.82 69.2177C371.82 68.0168 372.227 67.0096 373.04 66.1962C373.854 65.3827 374.861 64.9759 376.062 64.9759C377.224 64.9759 378.212 65.3827 379.025 66.1962C379.839 67.0096 380.246 68.0168 380.246 69.2177C380.246 70.4186 379.839 71.4257 379.025 72.2392C378.212 73.0527 377.224 73.4595 376.062 73.4595ZM405.172 73.4595C403.971 73.4595 402.964 73.0527 402.15 72.2392C401.337 71.4257 400.93 70.4186 400.93 69.2177C400.93 68.0168 401.337 67.0096 402.15 66.1962C402.964 65.3827 403.971 64.9759 405.172 64.9759C406.334 64.9759 407.322 65.3827 408.135 66.1962C408.949 67.0096 409.356 68.0168 409.356 69.2177C409.356 70.4186 408.949 71.4257 408.135 72.2392C407.322 73.0527 406.334 73.4595 405.172 73.4595ZM434.282 73.4595C433.081 73.4595 432.074 73.0527 431.26 72.2392C430.447 71.4257 430.04 70.4186 430.04 69.2177C430.04 68.0168 430.447 67.0096 431.26 66.1962C432.074 65.3827 433.081 64.9759 434.282 64.9759C435.444 64.9759 436.432 65.3827 437.245 66.1962C438.059 67.0096 438.466 68.0168 438.466 69.2177C438.466 70.4186 438.059 71.4257 437.245 72.2392C436.432 73.0527 435.444 73.4595 434.282 73.4595ZM55.8512 108.459C54.6503 108.459 53.6432 108.053 52.8297 107.239C52.0162 106.426 51.6094 105.419 51.6094 104.218C51.6094 103.017 52.0162 102.01 52.8297 101.196C53.6432 100.383 54.6503 99.9759 55.8512 99.9759C57.0133 99.9759 58.0012 100.383 58.8147 101.196C59.6281 102.01 60.0349 103.017 60.0349 104.218C60.0349 105.419 59.6281 106.426 58.8147 107.239C58.0012 108.053 57.0133 108.459 55.8512 108.459ZM84.9613 108.459C83.7604 108.459 82.7532 108.053 81.9397 107.239C81.1262 106.426 80.7195 105.419 80.7195 104.218C80.7195 103.017 81.1262 102.01 81.9397 101.196C82.7532 100.383 83.7604 99.9759 84.9613 99.9759C86.1234 99.9759 87.1112 100.383 87.9247 101.196C88.7382 102.01 89.145 103.017 89.145 104.218C89.145 105.419 88.7382 106.426 87.9247 107.239C87.1112 108.053 86.1234 108.459 84.9613 108.459ZM114.071 108.459C112.87 108.459 111.863 108.053 111.05 107.239C110.236 106.426 109.83 105.419 109.83 104.218C109.83 103.017 110.236 102.01 111.05 101.196C111.863 100.383 112.87 99.9759 114.071 99.9759C115.233 99.9759 116.221 100.383 117.035 101.196C117.848 102.01 118.255 103.017 118.255 104.218C118.255 105.419 117.848 106.426 117.035 107.239C116.221 108.053 115.233 108.459 114.071 108.459ZM143.181 108.459C141.981 108.459 140.973 108.053 140.16 107.239C139.346 106.426 138.94 105.419 138.94 104.218C138.94 103.017 139.346 102.01 140.16 101.196C140.973 100.383 141.981 99.9759 143.181 99.9759C144.344 99.9759 145.331 100.383 146.145 101.196C146.958 102.01 147.365 103.017 147.365 104.218C147.365 105.419 146.958 106.426 146.145 107.239C145.331 108.053 144.344 108.459 143.181 108.459ZM172.291 108.459C171.091 108.459 170.083 108.053 169.27 107.239C168.456 106.426 168.05 105.419 168.05 104.218C168.05 103.017 168.456 102.01 169.27 101.196C170.083 100.383 171.091 99.9759 172.291 99.9759C173.454 99.9759 174.441 100.383 175.255 101.196C176.068 102.01 176.475 103.017 176.475 104.218C176.475 105.419 176.068 106.426 175.255 107.239C174.441 108.053 173.454 108.459 172.291 108.459ZM201.402 108.459C200.201 108.459 199.193 108.053 198.38 107.239C197.566 106.426 197.16 105.419 197.16 104.218C197.16 103.017 197.566 102.01 198.38 101.196C199.193 100.383 200.201 99.9759 201.402 99.9759C202.564 99.9759 203.551 100.383 204.365 101.196C205.178 102.01 205.585 103.017 205.585 104.218C205.585 105.419 205.178 106.426 204.365 107.239C203.551 108.053 202.564 108.459 201.402 108.459ZM230.512 108.459C229.311 108.459 228.304 108.053 227.49 107.239C226.677 106.426 226.27 105.419 226.27 104.218C226.27 103.017 226.677 102.01 227.49 101.196C228.304 100.383 229.311 99.9759 230.512 99.9759C231.674 99.9759 232.662 100.383 233.475 101.196C234.289 102.01 234.695 103.017 234.695 104.218C234.695 105.419 234.289 106.426 233.475 107.239C232.662 108.053 231.674 108.459 230.512 108.459ZM259.622 108.459C258.421 108.459 257.414 108.053 256.6 107.239C255.787 106.426 255.38 105.419 255.38 104.218C255.38 103.017 255.787 102.01 256.6 101.196C257.414 100.383 258.421 99.9759 259.622 99.9759C260.784 99.9759 261.772 100.383 262.585 101.196C263.399 102.01 263.805 103.017 263.805 104.218C263.805 105.419 263.399 106.426 262.585 107.239C261.772 108.053 260.784 108.459 259.622 108.459ZM288.732 108.459C287.531 108.459 286.524 108.053 285.71 107.239C284.897 106.426 284.49 105.419 284.49 104.218C284.49 103.017 284.897 102.01 285.71 101.196C286.524 100.383 287.531 99.9759 288.732 99.9759C289.894 99.9759 290.882 100.383 291.695 101.196C292.509 102.01 292.915 103.017 292.915 104.218C292.915 105.419 292.509 106.426 291.695 107.239C290.882 108.053 289.894 108.459 288.732 108.459ZM317.842 108.459C316.641 108.459 315.634 108.053 314.82 107.239C314.007 106.426 313.6 105.419 313.6 104.218C313.6 103.017 314.007 102.01 314.82 101.196C315.634 100.383 316.641 99.9759 317.842 99.9759C319.004 99.9759 319.992 100.383 320.805 101.196C321.619 102.01 322.025 103.017 322.025 104.218C322.025 105.419 321.619 106.426 320.805 107.239C319.992 108.053 319.004 108.459 317.842 108.459ZM346.952 108.459C345.751 108.459 344.744 108.053 343.93 107.239C343.117 106.426 342.71 105.419 342.71 104.218C342.71 103.017 343.117 102.01 343.93 101.196C344.744 100.383 345.751 99.9759 346.952 99.9759C348.114 99.9759 349.102 100.383 349.915 101.196C350.729 102.01 351.136 103.017 351.136 104.218C351.136 105.419 350.729 106.426 349.915 107.239C349.102 108.053 348.114 108.459 346.952 108.459ZM376.062 108.459C374.861 108.459 373.854 108.053 373.04 107.239C372.227 106.426 371.82 105.419 371.82 104.218C371.82 103.017 372.227 102.01 373.04 101.196C373.854 100.383 374.861 99.9759 376.062 99.9759C377.224 99.9759 378.212 100.383 379.025 101.196C379.839 102.01 380.246 103.017 380.246 104.218C380.246 105.419 379.839 106.426 379.025 107.239C378.212 108.053 377.224 108.459 376.062 108.459ZM405.172 108.459C403.971 108.459 402.964 108.053 402.15 107.239C401.337 106.426 400.93 105.419 400.93 104.218C400.93 103.017 401.337 102.01 402.15 101.196C402.964 100.383 403.971 99.9759 405.172 99.9759C406.334 99.9759 407.322 100.383 408.135 101.196C408.949 102.01 409.356 103.017 409.356 104.218C409.356 105.419 408.949 106.426 408.135 107.239C407.322 108.053 406.334 108.459 405.172 108.459ZM434.282 108.459C433.081 108.459 432.074 108.053 431.26 107.239C430.447 106.426 430.04 105.419 430.04 104.218C430.04 103.017 430.447 102.01 431.26 101.196C432.074 100.383 433.081 99.9759 434.282 99.9759C435.444 99.9759 436.432 100.383 437.245 101.196C438.059 102.01 438.466 103.017 438.466 104.218C438.466 105.419 438.059 106.426 437.245 107.239C436.432 108.053 435.444 108.459 434.282 108.459ZM55.8512 143.459C54.6503 143.459 53.6432 143.053 52.8297 142.239C52.0162 141.426 51.6094 140.419 51.6094 139.218C51.6094 138.017 52.0162 137.01 52.8297 136.196C53.6432 135.383 54.6503 134.976 55.8512 134.976C57.0133 134.976 58.0012 135.383 58.8147 136.196C59.6281 137.01 60.0349 138.017 60.0349 139.218C60.0349 140.419 59.6281 141.426 58.8147 142.239C58.0012 143.053 57.0133 143.459 55.8512 143.459ZM84.9613 143.459C83.7604 143.459 82.7532 143.053 81.9397 142.239C81.1262 141.426 80.7195 140.419 80.7195 139.218C80.7195 138.017 81.1262 137.01 81.9397 136.196C82.7532 135.383 83.7604 134.976 84.9613 134.976C86.1234 134.976 87.1112 135.383 87.9247 136.196C88.7382 137.01 89.145 138.017 89.145 139.218C89.145 140.419 88.7382 141.426 87.9247 142.239C87.1112 143.053 86.1234 143.459 84.9613 143.459ZM114.071 143.459C112.87 143.459 111.863 143.053 111.05 142.239C110.236 141.426 109.83 140.419 109.83 139.218C109.83 138.017 110.236 137.01 111.05 136.196C111.863 135.383 112.87 134.976 114.071 134.976C115.233 134.976 116.221 135.383 117.035 136.196C117.848 137.01 118.255 138.017 118.255 139.218C118.255 140.419 117.848 141.426 117.035 142.239C116.221 143.053 115.233 143.459 114.071 143.459ZM143.181 143.459C141.981 143.459 140.973 143.053 140.16 142.239C139.346 141.426 138.94 140.419 138.94 139.218C138.94 138.017 139.346 137.01 140.16 136.196C140.973 135.383 141.981 134.976 143.181 134.976C144.344 134.976 145.331 135.383 146.145 136.196C146.958 137.01 147.365 138.017 147.365 139.218C147.365 140.419 146.958 141.426 146.145 142.239C145.331 143.053 144.344 143.459 143.181 143.459ZM172.291 143.459C171.091 143.459 170.083 143.053 169.27 142.239C168.456 141.426 168.05 140.419 168.05 139.218C168.05 138.017 168.456 137.01 169.27 136.196C170.083 135.383 171.091 134.976 172.291 134.976C173.454 134.976 174.441 135.383 175.255 136.196C176.068 137.01 176.475 138.017 176.475 139.218C176.475 140.419 176.068 141.426 175.255 142.239C174.441 143.053 173.454 143.459 172.291 143.459ZM201.402 143.459C200.201 143.459 199.193 143.053 198.38 142.239C197.566 141.426 197.16 140.419 197.16 139.218C197.16 138.017 197.566 137.01 198.38 136.196C199.193 135.383 200.201 134.976 201.402 134.976C202.564 134.976 203.551 135.383 204.365 136.196C205.178 137.01 205.585 138.017 205.585 139.218C205.585 140.419 205.178 141.426 204.365 142.239C203.551 143.053 202.564 143.459 201.402 143.459ZM230.512 143.459C229.311 143.459 228.304 143.053 227.49 142.239C226.677 141.426 226.27 140.419 226.27 139.218C226.27 138.017 226.677 137.01 227.49 136.196C228.304 135.383 229.311 134.976 230.512 134.976C231.674 134.976 232.662 135.383 233.475 136.196C234.289 137.01 234.695 138.017 234.695 139.218C234.695 140.419 234.289 141.426 233.475 142.239C232.662 143.053 231.674 143.459 230.512 143.459ZM259.622 143.459C258.421 143.459 257.414 143.053 256.6 142.239C255.787 141.426 255.38 140.419 255.38 139.218C255.38 138.017 255.787 137.01 256.6 136.196C257.414 135.383 258.421 134.976 259.622 134.976C260.784 134.976 261.772 135.383 262.585 136.196C263.399 137.01 263.805 138.017 263.805 139.218C263.805 140.419 263.399 141.426 262.585 142.239C261.772 143.053 260.784 143.459 259.622 143.459ZM288.732 143.459C287.531 143.459 286.524 143.053 285.71 142.239C284.897 141.426 284.49 140.419 284.49 139.218C284.49 138.017 284.897 137.01 285.71 136.196C286.524 135.383 287.531 134.976 288.732 134.976C289.894 134.976 290.882 135.383 291.695 136.196C292.509 137.01 292.915 138.017 292.915 139.218C292.915 140.419 292.509 141.426 291.695 142.239C290.882 143.053 289.894 143.459 288.732 143.459ZM317.842 143.459C316.641 143.459 315.634 143.053 314.82 142.239C314.007 141.426 313.6 140.419 313.6 139.218C313.6 138.017 314.007 137.01 314.82 136.196C315.634 135.383 316.641 134.976 317.842 134.976C319.004 134.976 319.992 135.383 320.805 136.196C321.619 137.01 322.025 138.017 322.025 139.218C322.025 140.419 321.619 141.426 320.805 142.239C319.992 143.053 319.004 143.459 317.842 143.459ZM346.952 143.459C345.751 143.459 344.744 143.053 343.93 142.239C343.117 141.426 342.71 140.419 342.71 139.218C342.71 138.017 343.117 137.01 343.93 136.196C344.744 135.383 345.751 134.976 346.952 134.976C348.114 134.976 349.102 135.383 349.915 136.196C350.729 137.01 351.136 138.017 351.136 139.218C351.136 140.419 350.729 141.426 349.915 142.239C349.102 143.053 348.114 143.459 346.952 143.459ZM376.062 143.459C374.861 143.459 373.854 143.053 373.04 142.239C372.227 141.426 371.82 140.419 371.82 139.218C371.82 138.017 372.227 137.01 373.04 136.196C373.854 135.383 374.861 134.976 376.062 134.976C377.224 134.976 378.212 135.383 379.025 136.196C379.839 137.01 380.246 138.017 380.246 139.218C380.246 140.419 379.839 141.426 379.025 142.239C378.212 143.053 377.224 143.459 376.062 143.459ZM405.172 143.459C403.971 143.459 402.964 143.053 402.15 142.239C401.337 141.426 400.93 140.419 400.93 139.218C400.93 138.017 401.337 137.01 402.15 136.196C402.964 135.383 403.971 134.976 405.172 134.976C406.334 134.976 407.322 135.383 408.135 136.196C408.949 137.01 409.356 138.017 409.356 139.218C409.356 140.419 408.949 141.426 408.135 142.239C407.322 143.053 406.334 143.459 405.172 143.459ZM434.282 143.459C433.081 143.459 432.074 143.053 431.26 142.239C430.447 141.426 430.04 140.419 430.04 139.218C430.04 138.017 430.447 137.01 431.26 136.196C432.074 135.383 433.081 134.976 434.282 134.976C435.444 134.976 436.432 135.383 437.245 136.196C438.059 137.01 438.466 138.017 438.466 139.218C438.466 140.419 438.059 141.426 437.245 142.239C436.432 143.053 435.444 143.459 434.282 143.459ZM55.8512 178.459C54.6503 178.459 53.6432 178.053 52.8297 177.239C52.0162 176.426 51.6094 175.419 51.6094 174.218C51.6094 173.017 52.0162 172.01 52.8297 171.196C53.6432 170.383 54.6503 169.976 55.8512 169.976C57.0133 169.976 58.0012 170.383 58.8147 171.196C59.6281 172.01 60.0349 173.017 60.0349 174.218C60.0349 175.419 59.6281 176.426 58.8147 177.239C58.0012 178.053 57.0133 178.459 55.8512 178.459ZM84.9613 178.459C83.7604 178.459 82.7532 178.053 81.9397 177.239C81.1262 176.426 80.7195 175.419 80.7195 174.218C80.7195 173.017 81.1262 172.01 81.9397 171.196C82.7532 170.383 83.7604 169.976 84.9613 169.976C86.1234 169.976 87.1112 170.383 87.9247 171.196C88.7382 172.01 89.145 173.017 89.145 174.218C89.145 175.419 88.7382 176.426 87.9247 177.239C87.1112 178.053 86.1234 178.459 84.9613 178.459ZM114.071 178.459C112.87 178.459 111.863 178.053 111.05 177.239C110.236 176.426 109.83 175.419 109.83 174.218C109.83 173.017 110.236 172.01 111.05 171.196C111.863 170.383 112.87 169.976 114.071 169.976C115.233 169.976 116.221 170.383 117.035 171.196C117.848 172.01 118.255 173.017 118.255 174.218C118.255 175.419 117.848 176.426 117.035 177.239C116.221 178.053 115.233 178.459 114.071 178.459ZM143.181 178.459C141.981 178.459 140.973 178.053 140.16 177.239C139.346 176.426 138.94 175.419 138.94 174.218C138.94 173.017 139.346 172.01 140.16 171.196C140.973 170.383 141.981 169.976 143.181 169.976C144.344 169.976 145.331 170.383 146.145 171.196C146.958 172.01 147.365 173.017 147.365 174.218C147.365 175.419 146.958 176.426 146.145 177.239C145.331 178.053 144.344 178.459 143.181 178.459ZM172.291 178.459C171.091 178.459 170.083 178.053 169.27 177.239C168.456 176.426 168.05 175.419 168.05 174.218C168.05 173.017 168.456 172.01 169.27 171.196C170.083 170.383 171.091 169.976 172.291 169.976C173.454 169.976 174.441 170.383 175.255 171.196C176.068 172.01 176.475 173.017 176.475 174.218C176.475 175.419 176.068 176.426 175.255 177.239C174.441 178.053 173.454 178.459 172.291 178.459ZM201.402 178.459C200.201 178.459 199.193 178.053 198.38 177.239C197.566 176.426 197.16 175.419 197.16 174.218C197.16 173.017 197.566 172.01 198.38 171.196C199.193 170.383 200.201 169.976 201.402 169.976C202.564 169.976 203.551 170.383 204.365 171.196C205.178 172.01 205.585 173.017 205.585 174.218C205.585 175.419 205.178 176.426 204.365 177.239C203.551 178.053 202.564 178.459 201.402 178.459ZM230.512 178.459C229.311 178.459 228.304 178.053 227.49 177.239C226.677 176.426 226.27 175.419 226.27 174.218C226.27 173.017 226.677 172.01 227.49 171.196C228.304 170.383 229.311 169.976 230.512 169.976C231.674 169.976 232.662 170.383 233.475 171.196C234.289 172.01 234.695 173.017 234.695 174.218C234.695 175.419 234.289 176.426 233.475 177.239C232.662 178.053 231.674 178.459 230.512 178.459ZM259.622 178.459C258.421 178.459 257.414 178.053 256.6 177.239C255.787 176.426 255.38 175.419 255.38 174.218C255.38 173.017 255.787 172.01 256.6 171.196C257.414 170.383 258.421 169.976 259.622 169.976C260.784 169.976 261.772 170.383 262.585 171.196C263.399 172.01 263.805 173.017 263.805 174.218C263.805 175.419 263.399 176.426 262.585 177.239C261.772 178.053 260.784 178.459 259.622 178.459ZM288.732 178.459C287.531 178.459 286.524 178.053 285.71 177.239C284.897 176.426 284.49 175.419 284.49 174.218C284.49 173.017 284.897 172.01 285.71 171.196C286.524 170.383 287.531 169.976 288.732 169.976C289.894 169.976 290.882 170.383 291.695 171.196C292.509 172.01 292.915 173.017 292.915 174.218C292.915 175.419 292.509 176.426 291.695 177.239C290.882 178.053 289.894 178.459 288.732 178.459ZM317.842 178.459C316.641 178.459 315.634 178.053 314.82 177.239C314.007 176.426 313.6 175.419 313.6 174.218C313.6 173.017 314.007 172.01 314.82 171.196C315.634 170.383 316.641 169.976 317.842 169.976C319.004 169.976 319.992 170.383 320.805 171.196C321.619 172.01 322.025 173.017 322.025 174.218C322.025 175.419 321.619 176.426 320.805 177.239C319.992 178.053 319.004 178.459 317.842 178.459ZM346.952 178.459C345.751 178.459 344.744 178.053 343.93 177.239C343.117 176.426 342.71 175.419 342.71 174.218C342.71 173.017 343.117 172.01 343.93 171.196C344.744 170.383 345.751 169.976 346.952 169.976C348.114 169.976 349.102 170.383 349.915 171.196C350.729 172.01 351.136 173.017 351.136 174.218C351.136 175.419 350.729 176.426 349.915 177.239C349.102 178.053 348.114 178.459 346.952 178.459ZM376.062 178.459C374.861 178.459 373.854 178.053 373.04 177.239C372.227 176.426 371.82 175.419 371.82 174.218C371.82 173.017 372.227 172.01 373.04 171.196C373.854 170.383 374.861 169.976 376.062 169.976C377.224 169.976 378.212 170.383 379.025 171.196C379.839 172.01 380.246 173.017 380.246 174.218C380.246 175.419 379.839 176.426 379.025 177.239C378.212 178.053 377.224 178.459 376.062 178.459ZM405.172 178.459C403.971 178.459 402.964 178.053 402.15 177.239C401.337 176.426 400.93 175.419 400.93 174.218C400.93 173.017 401.337 172.01 402.15 171.196C402.964 170.383 403.971 169.976 405.172 169.976C406.334 169.976 407.322 170.383 408.135 171.196C408.949 172.01 409.356 173.017 409.356 174.218C409.356 175.419 408.949 176.426 408.135 177.239C407.322 178.053 406.334 178.459 405.172 178.459ZM434.282 178.459C433.081 178.459 432.074 178.053 431.26 177.239C430.447 176.426 430.04 175.419 430.04 174.218C430.04 173.017 430.447 172.01 431.26 171.196C432.074 170.383 433.081 169.976 434.282 169.976C435.444 169.976 436.432 170.383 437.245 171.196C438.059 172.01 438.466 173.017 438.466 174.218C438.466 175.419 438.059 176.426 437.245 177.239C436.432 178.053 435.444 178.459 434.282 178.459ZM55.8512 213.459C54.6503 213.459 53.6432 213.053 52.8297 212.239C52.0162 211.426 51.6094 210.419 51.6094 209.218C51.6094 208.017 52.0162 207.01 52.8297 206.196C53.6432 205.383 54.6503 204.976 55.8512 204.976C57.0133 204.976 58.0012 205.383 58.8147 206.196C59.6281 207.01 60.0349 208.017 60.0349 209.218C60.0349 210.419 59.6281 211.426 58.8147 212.239C58.0012 213.053 57.0133 213.459 55.8512 213.459ZM84.9613 213.459C83.7604 213.459 82.7532 213.053 81.9397 212.239C81.1262 211.426 80.7195 210.419 80.7195 209.218C80.7195 208.017 81.1262 207.01 81.9397 206.196C82.7532 205.383 83.7604 204.976 84.9613 204.976C86.1234 204.976 87.1112 205.383 87.9247 206.196C88.7382 207.01 89.145 208.017 89.145 209.218C89.145 210.419 88.7382 211.426 87.9247 212.239C87.1112 213.053 86.1234 213.459 84.9613 213.459ZM114.071 213.459C112.87 213.459 111.863 213.053 111.05 212.239C110.236 211.426 109.83 210.419 109.83 209.218C109.83 208.017 110.236 207.01 111.05 206.196C111.863 205.383 112.87 204.976 114.071 204.976C115.233 204.976 116.221 205.383 117.035 206.196C117.848 207.01 118.255 208.017 118.255 209.218C118.255 210.419 117.848 211.426 117.035 212.239C116.221 213.053 115.233 213.459 114.071 213.459ZM143.181 213.459C141.981 213.459 140.973 213.053 140.16 212.239C139.346 211.426 138.94 210.419 138.94 209.218C138.94 208.017 139.346 207.01 140.16 206.196C140.973 205.383 141.981 204.976 143.181 204.976C144.344 204.976 145.331 205.383 146.145 206.196C146.958 207.01 147.365 208.017 147.365 209.218C147.365 210.419 146.958 211.426 146.145 212.239C145.331 213.053 144.344 213.459 143.181 213.459ZM172.291 213.459C171.091 213.459 170.083 213.053 169.27 212.239C168.456 211.426 168.05 210.419 168.05 209.218C168.05 208.017 168.456 207.01 169.27 206.196C170.083 205.383 171.091 204.976 172.291 204.976C173.454 204.976 174.441 205.383 175.255 206.196C176.068 207.01 176.475 208.017 176.475 209.218C176.475 210.419 176.068 211.426 175.255 212.239C174.441 213.053 173.454 213.459 172.291 213.459ZM201.402 213.459C200.201 213.459 199.193 213.053 198.38 212.239C197.566 211.426 197.16 210.419 197.16 209.218C197.16 208.017 197.566 207.01 198.38 206.196C199.193 205.383 200.201 204.976 201.402 204.976C202.564 204.976 203.551 205.383 204.365 206.196C205.178 207.01 205.585 208.017 205.585 209.218C205.585 210.419 205.178 211.426 204.365 212.239C203.551 213.053 202.564 213.459 201.402 213.459ZM230.512 213.459C229.311 213.459 228.304 213.053 227.49 212.239C226.677 211.426 226.27 210.419 226.27 209.218C226.27 208.017 226.677 207.01 227.49 206.196C228.304 205.383 229.311 204.976 230.512 204.976C231.674 204.976 232.662 205.383 233.475 206.196C234.289 207.01 234.695 208.017 234.695 209.218C234.695 210.419 234.289 211.426 233.475 212.239C232.662 213.053 231.674 213.459 230.512 213.459ZM259.622 213.459C258.421 213.459 257.414 213.053 256.6 212.239C255.787 211.426 255.38 210.419 255.38 209.218C255.38 208.017 255.787 207.01 256.6 206.196C257.414 205.383 258.421 204.976 259.622 204.976C260.784 204.976 261.772 205.383 262.585 206.196C263.399 207.01 263.805 208.017 263.805 209.218C263.805 210.419 263.399 211.426 262.585 212.239C261.772 213.053 260.784 213.459 259.622 213.459ZM288.732 213.459C287.531 213.459 286.524 213.053 285.71 212.239C284.897 211.426 284.49 210.419 284.49 209.218C284.49 208.017 284.897 207.01 285.71 206.196C286.524 205.383 287.531 204.976 288.732 204.976C289.894 204.976 290.882 205.383 291.695 206.196C292.509 207.01 292.915 208.017 292.915 209.218C292.915 210.419 292.509 211.426 291.695 212.239C290.882 213.053 289.894 213.459 288.732 213.459ZM317.842 213.459C316.641 213.459 315.634 213.053 314.82 212.239C314.007 211.426 313.6 210.419 313.6 209.218C313.6 208.017 314.007 207.01 314.82 206.196C315.634 205.383 316.641 204.976 317.842 204.976C319.004 204.976 319.992 205.383 320.805 206.196C321.619 207.01 322.025 208.017 322.025 209.218C322.025 210.419 321.619 211.426 320.805 212.239C319.992 213.053 319.004 213.459 317.842 213.459ZM346.952 213.459C345.751 213.459 344.744 213.053 343.93 212.239C343.117 211.426 342.71 210.419 342.71 209.218C342.71 208.017 343.117 207.01 343.93 206.196C344.744 205.383 345.751 204.976 346.952 204.976C348.114 204.976 349.102 205.383 349.915 206.196C350.729 207.01 351.136 208.017 351.136 209.218C351.136 210.419 350.729 211.426 349.915 212.239C349.102 213.053 348.114 213.459 346.952 213.459ZM376.062 213.459C374.861 213.459 373.854 213.053 373.04 212.239C372.227 211.426 371.82 210.419 371.82 209.218C371.82 208.017 372.227 207.01 373.04 206.196C373.854 205.383 374.861 204.976 376.062 204.976C377.224 204.976 378.212 205.383 379.025 206.196C379.839 207.01 380.246 208.017 380.246 209.218C380.246 210.419 379.839 211.426 379.025 212.239C378.212 213.053 377.224 213.459 376.062 213.459ZM405.172 213.459C403.971 213.459 402.964 213.053 402.15 212.239C401.337 211.426 400.93 210.419 400.93 209.218C400.93 208.017 401.337 207.01 402.15 206.196C402.964 205.383 403.971 204.976 405.172 204.976C406.334 204.976 407.322 205.383 408.135 206.196C408.949 207.01 409.356 208.017 409.356 209.218C409.356 210.419 408.949 211.426 408.135 212.239C407.322 213.053 406.334 213.459 405.172 213.459ZM434.282 213.459C433.081 213.459 432.074 213.053 431.26 212.239C430.447 211.426 430.04 210.419 430.04 209.218C430.04 208.017 430.447 207.01 431.26 206.196C432.074 205.383 433.081 204.976 434.282 204.976C435.444 204.976 436.432 205.383 437.245 206.196C438.059 207.01 438.466 208.017 438.466 209.218C438.466 210.419 438.059 211.426 437.245 212.239C436.432 213.053 435.444 213.459 434.282 213.459ZM55.8512 248.459C54.6503 248.459 53.6432 248.053 52.8297 247.239C52.0162 246.426 51.6094 245.419 51.6094 244.218C51.6094 243.017 52.0162 242.01 52.8297 241.196C53.6432 240.383 54.6503 239.976 55.8512 239.976C57.0133 239.976 58.0012 240.383 58.8147 241.196C59.6281 242.01 60.0349 243.017 60.0349 244.218C60.0349 245.419 59.6281 246.426 58.8147 247.239C58.0012 248.053 57.0133 248.459 55.8512 248.459ZM84.9613 248.459C83.7604 248.459 82.7532 248.053 81.9397 247.239C81.1262 246.426 80.7195 245.419 80.7195 244.218C80.7195 243.017 81.1262 242.01 81.9397 241.196C82.7532 240.383 83.7604 239.976 84.9613 239.976C86.1234 239.976 87.1112 240.383 87.9247 241.196C88.7382 242.01 89.145 243.017 89.145 244.218C89.145 245.419 88.7382 246.426 87.9247 247.239C87.1112 248.053 86.1234 248.459 84.9613 248.459ZM114.071 248.459C112.87 248.459 111.863 248.053 111.05 247.239C110.236 246.426 109.83 245.419 109.83 244.218C109.83 243.017 110.236 242.01 111.05 241.196C111.863 240.383 112.87 239.976 114.071 239.976C115.233 239.976 116.221 240.383 117.035 241.196C117.848 242.01 118.255 243.017 118.255 244.218C118.255 245.419 117.848 246.426 117.035 247.239C116.221 248.053 115.233 248.459 114.071 248.459ZM143.181 248.459C141.981 248.459 140.973 248.053 140.16 247.239C139.346 246.426 138.94 245.419 138.94 244.218C138.94 243.017 139.346 242.01 140.16 241.196C140.973 240.383 141.981 239.976 143.181 239.976C144.344 239.976 145.331 240.383 146.145 241.196C146.958 242.01 147.365 243.017 147.365 244.218C147.365 245.419 146.958 246.426 146.145 247.239C145.331 248.053 144.344 248.459 143.181 248.459ZM172.291 248.459C171.091 248.459 170.083 248.053 169.27 247.239C168.456 246.426 168.05 245.419 168.05 244.218C168.05 243.017 168.456 242.01 169.27 241.196C170.083 240.383 171.091 239.976 172.291 239.976C173.454 239.976 174.441 240.383 175.255 241.196C176.068 242.01 176.475 243.017 176.475 244.218C176.475 245.419 176.068 246.426 175.255 247.239C174.441 248.053 173.454 248.459 172.291 248.459ZM201.402 248.459C200.201 248.459 199.193 248.053 198.38 247.239C197.566 246.426 197.16 245.419 197.16 244.218C197.16 243.017 197.566 242.01 198.38 241.196C199.193 240.383 200.201 239.976 201.402 239.976C202.564 239.976 203.551 240.383 204.365 241.196C205.178 242.01 205.585 243.017 205.585 244.218C205.585 245.419 205.178 246.426 204.365 247.239C203.551 248.053 202.564 248.459 201.402 248.459ZM230.512 248.459C229.311 248.459 228.304 248.053 227.49 247.239C226.677 246.426 226.27 245.419 226.27 244.218C226.27 243.017 226.677 242.01 227.49 241.196C228.304 240.383 229.311 239.976 230.512 239.976C231.674 239.976 232.662 240.383 233.475 241.196C234.289 242.01 234.695 243.017 234.695 244.218C234.695 245.419 234.289 246.426 233.475 247.239C232.662 248.053 231.674 248.459 230.512 248.459ZM259.622 248.459C258.421 248.459 257.414 248.053 256.6 247.239C255.787 246.426 255.38 245.419 255.38 244.218C255.38 243.017 255.787 242.01 256.6 241.196C257.414 240.383 258.421 239.976 259.622 239.976C260.784 239.976 261.772 240.383 262.585 241.196C263.399 242.01 263.805 243.017 263.805 244.218C263.805 245.419 263.399 246.426 262.585 247.239C261.772 248.053 260.784 248.459 259.622 248.459ZM288.732 248.459C287.531 248.459 286.524 248.053 285.71 247.239C284.897 246.426 284.49 245.419 284.49 244.218C284.49 243.017 284.897 242.01 285.71 241.196C286.524 240.383 287.531 239.976 288.732 239.976C289.894 239.976 290.882 240.383 291.695 241.196C292.509 242.01 292.915 243.017 292.915 244.218C292.915 245.419 292.509 246.426 291.695 247.239C290.882 248.053 289.894 248.459 288.732 248.459ZM317.842 248.459C316.641 248.459 315.634 248.053 314.82 247.239C314.007 246.426 313.6 245.419 313.6 244.218C313.6 243.017 314.007 242.01 314.82 241.196C315.634 240.383 316.641 239.976 317.842 239.976C319.004 239.976 319.992 240.383 320.805 241.196C321.619 242.01 322.025 243.017 322.025 244.218C322.025 245.419 321.619 246.426 320.805 247.239C319.992 248.053 319.004 248.459 317.842 248.459ZM346.952 248.459C345.751 248.459 344.744 248.053 343.93 247.239C343.117 246.426 342.71 245.419 342.71 244.218C342.71 243.017 343.117 242.01 343.93 241.196C344.744 240.383 345.751 239.976 346.952 239.976C348.114 239.976 349.102 240.383 349.915 241.196C350.729 242.01 351.136 243.017 351.136 244.218C351.136 245.419 350.729 246.426 349.915 247.239C349.102 248.053 348.114 248.459 346.952 248.459ZM376.062 248.459C374.861 248.459 373.854 248.053 373.04 247.239C372.227 246.426 371.82 245.419 371.82 244.218C371.82 243.017 372.227 242.01 373.04 241.196C373.854 240.383 374.861 239.976 376.062 239.976C377.224 239.976 378.212 240.383 379.025 241.196C379.839 242.01 380.246 243.017 380.246 244.218C380.246 245.419 379.839 246.426 379.025 247.239C378.212 248.053 377.224 248.459 376.062 248.459ZM405.172 248.459C403.971 248.459 402.964 248.053 402.15 247.239C401.337 246.426 400.93 245.419 400.93 244.218C400.93 243.017 401.337 242.01 402.15 241.196C402.964 240.383 403.971 239.976 405.172 239.976C406.334 239.976 407.322 240.383 408.135 241.196C408.949 242.01 409.356 243.017 409.356 244.218C409.356 245.419 408.949 246.426 408.135 247.239C407.322 248.053 406.334 248.459 405.172 248.459ZM434.282 248.459C433.081 248.459 432.074 248.053 431.26 247.239C430.447 246.426 430.04 245.419 430.04 244.218C430.04 243.017 430.447 242.01 431.26 241.196C432.074 240.383 433.081 239.976 434.282 239.976C435.444 239.976 436.432 240.383 437.245 241.196C438.059 242.01 438.466 243.017 438.466 244.218C438.466 245.419 438.059 246.426 437.245 247.239C436.432 248.053 435.444 248.459 434.282 248.459Z" fill="url(#paint0_radial)"/>
<path d="M361.82 408.889C360.619 408.889 359.612 408.482 358.798 407.669C357.985 406.855 357.578 405.848 357.578 404.647C357.578 403.447 357.985 402.439 358.798 401.626C359.612 400.812 360.619 400.406 361.82 400.406C362.982 400.406 363.97 400.812 364.783 401.626C365.597 402.439 366.004 403.447 366.004 404.647C366.004 405.848 365.597 406.855 364.783 407.669C363.97 408.482 362.982 408.889 361.82 408.889ZM390.93 408.889C389.729 408.889 388.722 408.482 387.908 407.669C387.095 406.855 386.688 405.848 386.688 404.647C386.688 403.447 387.095 402.439 387.908 401.626C388.722 400.812 389.729 400.406 390.93 400.406C392.092 400.406 393.08 400.812 393.893 401.626C394.707 402.439 395.114 403.447 395.114 404.647C395.114 405.848 394.707 406.855 393.893 407.669C393.08 408.482 392.092 408.889 390.93 408.889ZM420.04 408.889C418.839 408.889 417.832 408.482 417.019 407.669C416.205 406.855 415.798 405.848 415.798 404.647C415.798 403.447 416.205 402.439 417.019 401.626C417.832 400.812 418.839 400.406 420.04 400.406C421.202 400.406 422.19 400.812 423.004 401.626C423.817 402.439 424.224 403.447 424.224 404.647C424.224 405.848 423.817 406.855 423.004 407.669C422.19 408.482 421.202 408.889 420.04 408.889ZM449.15 408.889C447.949 408.889 446.942 408.482 446.129 407.669C445.315 406.855 444.908 405.848 444.908 404.647C444.908 403.447 445.315 402.439 446.129 401.626C446.942 400.812 447.949 400.406 449.15 400.406C450.312 400.406 451.3 400.812 452.114 401.626C452.927 402.439 453.334 403.447 453.334 404.647C453.334 405.848 452.927 406.855 452.114 407.669C451.3 408.482 450.312 408.889 449.15 408.889ZM478.26 408.889C477.059 408.889 476.052 408.482 475.239 407.669C474.425 406.855 474.018 405.848 474.018 404.647C474.018 403.447 474.425 402.439 475.239 401.626C476.052 400.812 477.059 400.406 478.26 400.406C479.422 400.406 480.41 400.812 481.224 401.626C482.037 402.439 482.444 403.447 482.444 404.647C482.444 405.848 482.037 406.855 481.224 407.669C480.41 408.482 479.422 408.889 478.26 408.889ZM507.37 408.889C506.169 408.889 505.162 408.482 504.349 407.669C503.535 406.855 503.128 405.848 503.128 404.647C503.128 403.447 503.535 402.439 504.349 401.626C505.162 400.812 506.169 400.406 507.37 400.406C508.532 400.406 509.52 400.812 510.334 401.626C511.147 402.439 511.554 403.447 511.554 404.647C511.554 405.848 511.147 406.855 510.334 407.669C509.52 408.482 508.532 408.889 507.37 408.889ZM536.48 408.889C535.279 408.889 534.272 408.482 533.459 407.669C532.645 406.855 532.239 405.848 532.239 404.647C532.239 403.447 532.645 402.439 533.459 401.626C534.272 400.812 535.279 400.406 536.48 400.406C537.642 400.406 538.63 400.812 539.444 401.626C540.257 402.439 540.664 403.447 540.664 404.647C540.664 405.848 540.257 406.855 539.444 407.669C538.63 408.482 537.642 408.889 536.48 408.889ZM565.59 408.889C564.39 408.889 563.382 408.482 562.569 407.669C561.755 406.855 561.349 405.848 561.349 404.647C561.349 403.447 561.755 402.439 562.569 401.626C563.382 400.812 564.39 400.406 565.59 400.406C566.753 400.406 567.74 400.812 568.554 401.626C569.367 402.439 569.774 403.447 569.774 404.647C569.774 405.848 569.367 406.855 568.554 407.669C567.74 408.482 566.753 408.889 565.59 408.889ZM594.7 408.889C593.5 408.889 592.492 408.482 591.679 407.669C590.865 406.855 590.459 405.848 590.459 404.647C590.459 403.447 590.865 402.439 591.679 401.626C592.492 400.812 593.5 400.406 594.7 400.406C595.863 400.406 596.85 400.812 597.664 401.626C598.477 402.439 598.884 403.447 598.884 404.647C598.884 405.848 598.477 406.855 597.664 407.669C596.85 408.482 595.863 408.889 594.7 408.889ZM623.811 408.889C622.61 408.889 621.602 408.482 620.789 407.669C619.975 406.855 619.569 405.848 619.569 404.647C619.569 403.447 619.975 402.439 620.789 401.626C621.602 400.812 622.61 400.406 623.811 400.406C624.973 400.406 625.96 400.812 626.774 401.626C627.587 402.439 627.994 403.447 627.994 404.647C627.994 405.848 627.587 406.855 626.774 407.669C625.96 408.482 624.973 408.889 623.811 408.889ZM652.921 408.889C651.72 408.889 650.713 408.482 649.899 407.669C649.086 406.855 648.679 405.848 648.679 404.647C648.679 403.447 649.086 402.439 649.899 401.626C650.713 400.812 651.72 400.406 652.921 400.406C654.083 400.406 655.071 400.812 655.884 401.626C656.698 402.439 657.104 403.447 657.104 404.647C657.104 405.848 656.698 406.855 655.884 407.669C655.071 408.482 654.083 408.889 652.921 408.889ZM682.031 408.889C680.83 408.889 679.823 408.482 679.009 407.669C678.196 406.855 677.789 405.848 677.789 404.647C677.789 403.447 678.196 402.439 679.009 401.626C679.823 400.812 680.83 400.406 682.031 400.406C683.193 400.406 684.181 400.812 684.994 401.626C685.808 402.439 686.214 403.447 686.214 404.647C686.214 405.848 685.808 406.855 684.994 407.669C684.181 408.482 683.193 408.889 682.031 408.889ZM711.141 408.889C709.94 408.889 708.933 408.482 708.119 407.669C707.306 406.855 706.899 405.848 706.899 404.647C706.899 403.447 707.306 402.439 708.119 401.626C708.933 400.812 709.94 400.406 711.141 400.406C712.303 400.406 713.291 400.812 714.104 401.626C714.918 402.439 715.324 403.447 715.324 404.647C715.324 405.848 714.918 406.855 714.104 407.669C713.291 408.482 712.303 408.889 711.141 408.889ZM740.251 408.889C739.05 408.889 738.043 408.482 737.229 407.669C736.416 406.855 736.009 405.848 736.009 404.647C736.009 403.447 736.416 402.439 737.229 401.626C738.043 400.812 739.05 400.406 740.251 400.406C741.413 400.406 742.401 400.812 743.214 401.626C744.028 402.439 744.434 403.447 744.434 404.647C744.434 405.848 744.028 406.855 743.214 407.669C742.401 408.482 741.413 408.889 740.251 408.889ZM361.82 443.889C360.619 443.889 359.612 443.482 358.798 442.669C357.985 441.855 357.578 440.848 357.578 439.647C357.578 438.447 357.985 437.439 358.798 436.626C359.612 435.812 360.619 435.406 361.82 435.406C362.982 435.406 363.97 435.812 364.783 436.626C365.597 437.439 366.004 438.447 366.004 439.647C366.004 440.848 365.597 441.855 364.783 442.669C363.97 443.482 362.982 443.889 361.82 443.889ZM390.93 443.889C389.729 443.889 388.722 443.482 387.908 442.669C387.095 441.855 386.688 440.848 386.688 439.647C386.688 438.447 387.095 437.439 387.908 436.626C388.722 435.812 389.729 435.406 390.93 435.406C392.092 435.406 393.08 435.812 393.893 436.626C394.707 437.439 395.114 438.447 395.114 439.647C395.114 440.848 394.707 441.855 393.893 442.669C393.08 443.482 392.092 443.889 390.93 443.889ZM420.04 443.889C418.839 443.889 417.832 443.482 417.019 442.669C416.205 441.855 415.798 440.848 415.798 439.647C415.798 438.447 416.205 437.439 417.019 436.626C417.832 435.812 418.839 435.406 420.04 435.406C421.202 435.406 422.19 435.812 423.004 436.626C423.817 437.439 424.224 438.447 424.224 439.647C424.224 440.848 423.817 441.855 423.004 442.669C422.19 443.482 421.202 443.889 420.04 443.889ZM449.15 443.889C447.949 443.889 446.942 443.482 446.129 442.669C445.315 441.855 444.908 440.848 444.908 439.647C444.908 438.447 445.315 437.439 446.129 436.626C446.942 435.812 447.949 435.406 449.15 435.406C450.312 435.406 451.3 435.812 452.114 436.626C452.927 437.439 453.334 438.447 453.334 439.647C453.334 440.848 452.927 441.855 452.114 442.669C451.3 443.482 450.312 443.889 449.15 443.889ZM478.26 443.889C477.059 443.889 476.052 443.482 475.239 442.669C474.425 441.855 474.018 440.848 474.018 439.647C474.018 438.447 474.425 437.439 475.239 436.626C476.052 435.812 477.059 435.406 478.26 435.406C479.422 435.406 480.41 435.812 481.224 436.626C482.037 437.439 482.444 438.447 482.444 439.647C482.444 440.848 482.037 441.855 481.224 442.669C480.41 443.482 479.422 443.889 478.26 443.889ZM507.37 443.889C506.169 443.889 505.162 443.482 504.349 442.669C503.535 441.855 503.128 440.848 503.128 439.647C503.128 438.447 503.535 437.439 504.349 436.626C505.162 435.812 506.169 435.406 507.37 435.406C508.532 435.406 509.52 435.812 510.334 436.626C511.147 437.439 511.554 438.447 511.554 439.647C511.554 440.848 511.147 441.855 510.334 442.669C509.52 443.482 508.532 443.889 507.37 443.889ZM536.48 443.889C535.279 443.889 534.272 443.482 533.459 442.669C532.645 441.855 532.239 440.848 532.239 439.647C532.239 438.447 532.645 437.439 533.459 436.626C534.272 435.812 535.279 435.406 536.48 435.406C537.642 435.406 538.63 435.812 539.444 436.626C540.257 437.439 540.664 438.447 540.664 439.647C540.664 440.848 540.257 441.855 539.444 442.669C538.63 443.482 537.642 443.889 536.48 443.889ZM565.59 443.889C564.39 443.889 563.382 443.482 562.569 442.669C561.755 441.855 561.349 440.848 561.349 439.647C561.349 438.447 561.755 437.439 562.569 436.626C563.382 435.812 564.39 435.406 565.59 435.406C566.753 435.406 567.74 435.812 568.554 436.626C569.367 437.439 569.774 438.447 569.774 439.647C569.774 440.848 569.367 441.855 568.554 442.669C567.74 443.482 566.753 443.889 565.59 443.889ZM594.7 443.889C593.5 443.889 592.492 443.482 591.679 442.669C590.865 441.855 590.459 440.848 590.459 439.647C590.459 438.447 590.865 437.439 591.679 436.626C592.492 435.812 593.5 435.406 594.7 435.406C595.863 435.406 596.85 435.812 597.664 436.626C598.477 437.439 598.884 438.447 598.884 439.647C598.884 440.848 598.477 441.855 597.664 442.669C596.85 443.482 595.863 443.889 594.7 443.889ZM623.811 443.889C622.61 443.889 621.602 443.482 620.789 442.669C619.975 441.855 619.569 440.848 619.569 439.647C619.569 438.447 619.975 437.439 620.789 436.626C621.602 435.812 622.61 435.406 623.811 435.406C624.973 435.406 625.96 435.812 626.774 436.626C627.587 437.439 627.994 438.447 627.994 439.647C627.994 440.848 627.587 441.855 626.774 442.669C625.96 443.482 624.973 443.889 623.811 443.889ZM652.921 443.889C651.72 443.889 650.713 443.482 649.899 442.669C649.086 441.855 648.679 440.848 648.679 439.647C648.679 438.447 649.086 437.439 649.899 436.626C650.713 435.812 651.72 435.406 652.921 435.406C654.083 435.406 655.071 435.812 655.884 436.626C656.698 437.439 657.104 438.447 657.104 439.647C657.104 440.848 656.698 441.855 655.884 442.669C655.071 443.482 654.083 443.889 652.921 443.889ZM682.031 443.889C680.83 443.889 679.823 443.482 679.009 442.669C678.196 441.855 677.789 440.848 677.789 439.647C677.789 438.447 678.196 437.439 679.009 436.626C679.823 435.812 680.83 435.406 682.031 435.406C683.193 435.406 684.181 435.812 684.994 436.626C685.808 437.439 686.214 438.447 686.214 439.647C686.214 440.848 685.808 441.855 684.994 442.669C684.181 443.482 683.193 443.889 682.031 443.889ZM711.141 443.889C709.94 443.889 708.933 443.482 708.119 442.669C707.306 441.855 706.899 440.848 706.899 439.647C706.899 438.447 707.306 437.439 708.119 436.626C708.933 435.812 709.94 435.406 711.141 435.406C712.303 435.406 713.291 435.812 714.104 436.626C714.918 437.439 715.324 438.447 715.324 439.647C715.324 440.848 714.918 441.855 714.104 442.669C713.291 443.482 712.303 443.889 711.141 443.889ZM740.251 443.889C739.05 443.889 738.043 443.482 737.229 442.669C736.416 441.855 736.009 440.848 736.009 439.647C736.009 438.447 736.416 437.439 737.229 436.626C738.043 435.812 739.05 435.406 740.251 435.406C741.413 435.406 742.401 435.812 743.214 436.626C744.028 437.439 744.434 438.447 744.434 439.647C744.434 440.848 744.028 441.855 743.214 442.669C742.401 443.482 741.413 443.889 740.251 443.889ZM361.82 478.889C360.619 478.889 359.612 478.482 358.798 477.669C357.985 476.855 357.578 475.848 357.578 474.647C357.578 473.447 357.985 472.439 358.798 471.626C359.612 470.812 360.619 470.406 361.82 470.406C362.982 470.406 363.97 470.812 364.783 471.626C365.597 472.439 366.004 473.447 366.004 474.647C366.004 475.848 365.597 476.855 364.783 477.669C363.97 478.482 362.982 478.889 361.82 478.889ZM390.93 478.889C389.729 478.889 388.722 478.482 387.908 477.669C387.095 476.855 386.688 475.848 386.688 474.647C386.688 473.447 387.095 472.439 387.908 471.626C388.722 470.812 389.729 470.406 390.93 470.406C392.092 470.406 393.08 470.812 393.893 471.626C394.707 472.439 395.114 473.447 395.114 474.647C395.114 475.848 394.707 476.855 393.893 477.669C393.08 478.482 392.092 478.889 390.93 478.889ZM420.04 478.889C418.839 478.889 417.832 478.482 417.019 477.669C416.205 476.855 415.798 475.848 415.798 474.647C415.798 473.447 416.205 472.439 417.019 471.626C417.832 470.812 418.839 470.406 420.04 470.406C421.202 470.406 422.19 470.812 423.004 471.626C423.817 472.439 424.224 473.447 424.224 474.647C424.224 475.848 423.817 476.855 423.004 477.669C422.19 478.482 421.202 478.889 420.04 478.889ZM449.15 478.889C447.949 478.889 446.942 478.482 446.129 477.669C445.315 476.855 444.908 475.848 444.908 474.647C444.908 473.447 445.315 472.439 446.129 471.626C446.942 470.812 447.949 470.406 449.15 470.406C450.312 470.406 451.3 470.812 452.114 471.626C452.927 472.439 453.334 473.447 453.334 474.647C453.334 475.848 452.927 476.855 452.114 477.669C451.3 478.482 450.312 478.889 449.15 478.889ZM478.26 478.889C477.059 478.889 476.052 478.482 475.239 477.669C474.425 476.855 474.018 475.848 474.018 474.647C474.018 473.447 474.425 472.439 475.239 471.626C476.052 470.812 477.059 470.406 478.26 470.406C479.422 470.406 480.41 470.812 481.224 471.626C482.037 472.439 482.444 473.447 482.444 474.647C482.444 475.848 482.037 476.855 481.224 477.669C480.41 478.482 479.422 478.889 478.26 478.889ZM507.37 478.889C506.169 478.889 505.162 478.482 504.349 477.669C503.535 476.855 503.128 475.848 503.128 474.647C503.128 473.447 503.535 472.439 504.349 471.626C505.162 470.812 506.169 470.406 507.37 470.406C508.532 470.406 509.52 470.812 510.334 471.626C511.147 472.439 511.554 473.447 511.554 474.647C511.554 475.848 511.147 476.855 510.334 477.669C509.52 478.482 508.532 478.889 507.37 478.889ZM536.48 478.889C535.279 478.889 534.272 478.482 533.459 477.669C532.645 476.855 532.239 475.848 532.239 474.647C532.239 473.447 532.645 472.439 533.459 471.626C534.272 470.812 535.279 470.406 536.48 470.406C537.642 470.406 538.63 470.812 539.444 471.626C540.257 472.439 540.664 473.447 540.664 474.647C540.664 475.848 540.257 476.855 539.444 477.669C538.63 478.482 537.642 478.889 536.48 478.889ZM565.59 478.889C564.39 478.889 563.382 478.482 562.569 477.669C561.755 476.855 561.349 475.848 561.349 474.647C561.349 473.447 561.755 472.439 562.569 471.626C563.382 470.812 564.39 470.406 565.59 470.406C566.753 470.406 567.74 470.812 568.554 471.626C569.367 472.439 569.774 473.447 569.774 474.647C569.774 475.848 569.367 476.855 568.554 477.669C567.74 478.482 566.753 478.889 565.59 478.889ZM594.7 478.889C593.5 478.889 592.492 478.482 591.679 477.669C590.865 476.855 590.459 475.848 590.459 474.647C590.459 473.447 590.865 472.439 591.679 471.626C592.492 470.812 593.5 470.406 594.7 470.406C595.863 470.406 596.85 470.812 597.664 471.626C598.477 472.439 598.884 473.447 598.884 474.647C598.884 475.848 598.477 476.855 597.664 477.669C596.85 478.482 595.863 478.889 594.7 478.889ZM623.811 478.889C622.61 478.889 621.602 478.482 620.789 477.669C619.975 476.855 619.569 475.848 619.569 474.647C619.569 473.447 619.975 472.439 620.789 471.626C621.602 470.812 622.61 470.406 623.811 470.406C624.973 470.406 625.96 470.812 626.774 471.626C627.587 472.439 627.994 473.447 627.994 474.647C627.994 475.848 627.587 476.855 626.774 477.669C625.96 478.482 624.973 478.889 623.811 478.889ZM652.921 478.889C651.72 478.889 650.713 478.482 649.899 477.669C649.086 476.855 648.679 475.848 648.679 474.647C648.679 473.447 649.086 472.439 649.899 471.626C650.713 470.812 651.72 470.406 652.921 470.406C654.083 470.406 655.071 470.812 655.884 471.626C656.698 472.439 657.104 473.447 657.104 474.647C657.104 475.848 656.698 476.855 655.884 477.669C655.071 478.482 654.083 478.889 652.921 478.889ZM682.031 478.889C680.83 478.889 679.823 478.482 679.009 477.669C678.196 476.855 677.789 475.848 677.789 474.647C677.789 473.447 678.196 472.439 679.009 471.626C679.823 470.812 680.83 470.406 682.031 470.406C683.193 470.406 684.181 470.812 684.994 471.626C685.808 472.439 686.214 473.447 686.214 474.647C686.214 475.848 685.808 476.855 684.994 477.669C684.181 478.482 683.193 478.889 682.031 478.889ZM711.141 478.889C709.94 478.889 708.933 478.482 708.119 477.669C707.306 476.855 706.899 475.848 706.899 474.647C706.899 473.447 707.306 472.439 708.119 471.626C708.933 470.812 709.94 470.406 711.141 470.406C712.303 470.406 713.291 470.812 714.104 471.626C714.918 472.439 715.324 473.447 715.324 474.647C715.324 475.848 714.918 476.855 714.104 477.669C713.291 478.482 712.303 478.889 711.141 478.889ZM740.251 478.889C739.05 478.889 738.043 478.482 737.229 477.669C736.416 476.855 736.009 475.848 736.009 474.647C736.009 473.447 736.416 472.439 737.229 471.626C738.043 470.812 739.05 470.406 740.251 470.406C741.413 470.406 742.401 470.812 743.214 471.626C744.028 472.439 744.434 473.447 744.434 474.647C744.434 475.848 744.028 476.855 743.214 477.669C742.401 478.482 741.413 478.889 740.251 478.889ZM361.82 513.889C360.619 513.889 359.612 513.482 358.798 512.669C357.985 511.855 357.578 510.848 357.578 509.647C357.578 508.447 357.985 507.439 358.798 506.626C359.612 505.812 360.619 505.406 361.82 505.406C362.982 505.406 363.97 505.812 364.783 506.626C365.597 507.439 366.004 508.447 366.004 509.647C366.004 510.848 365.597 511.855 364.783 512.669C363.97 513.482 362.982 513.889 361.82 513.889ZM390.93 513.889C389.729 513.889 388.722 513.482 387.908 512.669C387.095 511.855 386.688 510.848 386.688 509.647C386.688 508.447 387.095 507.439 387.908 506.626C388.722 505.812 389.729 505.406 390.93 505.406C392.092 505.406 393.08 505.812 393.893 506.626C394.707 507.439 395.114 508.447 395.114 509.647C395.114 510.848 394.707 511.855 393.893 512.669C393.08 513.482 392.092 513.889 390.93 513.889ZM420.04 513.889C418.839 513.889 417.832 513.482 417.019 512.669C416.205 511.855 415.798 510.848 415.798 509.647C415.798 508.447 416.205 507.439 417.019 506.626C417.832 505.812 418.839 505.406 420.04 505.406C421.202 505.406 422.19 505.812 423.004 506.626C423.817 507.439 424.224 508.447 424.224 509.647C424.224 510.848 423.817 511.855 423.004 512.669C422.19 513.482 421.202 513.889 420.04 513.889ZM449.15 513.889C447.949 513.889 446.942 513.482 446.129 512.669C445.315 511.855 444.908 510.848 444.908 509.647C444.908 508.447 445.315 507.439 446.129 506.626C446.942 505.812 447.949 505.406 449.15 505.406C450.312 505.406 451.3 505.812 452.114 506.626C452.927 507.439 453.334 508.447 453.334 509.647C453.334 510.848 452.927 511.855 452.114 512.669C451.3 513.482 450.312 513.889 449.15 513.889ZM478.26 513.889C477.059 513.889 476.052 513.482 475.239 512.669C474.425 511.855 474.018 510.848 474.018 509.647C474.018 508.447 474.425 507.439 475.239 506.626C476.052 505.812 477.059 505.406 478.26 505.406C479.422 505.406 480.41 505.812 481.224 506.626C482.037 507.439 482.444 508.447 482.444 509.647C482.444 510.848 482.037 511.855 481.224 512.669C480.41 513.482 479.422 513.889 478.26 513.889ZM507.37 513.889C506.169 513.889 505.162 513.482 504.349 512.669C503.535 511.855 503.128 510.848 503.128 509.647C503.128 508.447 503.535 507.439 504.349 506.626C505.162 505.812 506.169 505.406 507.37 505.406C508.532 505.406 509.52 505.812 510.334 506.626C511.147 507.439 511.554 508.447 511.554 509.647C511.554 510.848 511.147 511.855 510.334 512.669C509.52 513.482 508.532 513.889 507.37 513.889ZM536.48 513.889C535.279 513.889 534.272 513.482 533.459 512.669C532.645 511.855 532.239 510.848 532.239 509.647C532.239 508.447 532.645 507.439 533.459 506.626C534.272 505.812 535.279 505.406 536.48 505.406C537.642 505.406 538.63 505.812 539.444 506.626C540.257 507.439 540.664 508.447 540.664 509.647C540.664 510.848 540.257 511.855 539.444 512.669C538.63 513.482 537.642 513.889 536.48 513.889ZM565.59 513.889C564.39 513.889 563.382 513.482 562.569 512.669C561.755 511.855 561.349 510.848 561.349 509.647C561.349 508.447 561.755 507.439 562.569 506.626C563.382 505.812 564.39 505.406 565.59 505.406C566.753 505.406 567.74 505.812 568.554 506.626C569.367 507.439 569.774 508.447 569.774 509.647C569.774 510.848 569.367 511.855 568.554 512.669C567.74 513.482 566.753 513.889 565.59 513.889ZM594.7 513.889C593.5 513.889 592.492 513.482 591.679 512.669C590.865 511.855 590.459 510.848 590.459 509.647C590.459 508.447 590.865 507.439 591.679 506.626C592.492 505.812 593.5 505.406 594.7 505.406C595.863 505.406 596.85 505.812 597.664 506.626C598.477 507.439 598.884 508.447 598.884 509.647C598.884 510.848 598.477 511.855 597.664 512.669C596.85 513.482 595.863 513.889 594.7 513.889ZM623.811 513.889C622.61 513.889 621.602 513.482 620.789 512.669C619.975 511.855 619.569 510.848 619.569 509.647C619.569 508.447 619.975 507.439 620.789 506.626C621.602 505.812 622.61 505.406 623.811 505.406C624.973 505.406 625.96 505.812 626.774 506.626C627.587 507.439 627.994 508.447 627.994 509.647C627.994 510.848 627.587 511.855 626.774 512.669C625.96 513.482 624.973 513.889 623.811 513.889ZM652.921 513.889C651.72 513.889 650.713 513.482 649.899 512.669C649.086 511.855 648.679 510.848 648.679 509.647C648.679 508.447 649.086 507.439 649.899 506.626C650.713 505.812 651.72 505.406 652.921 505.406C654.083 505.406 655.071 505.812 655.884 506.626C656.698 507.439 657.104 508.447 657.104 509.647C657.104 510.848 656.698 511.855 655.884 512.669C655.071 513.482 654.083 513.889 652.921 513.889ZM682.031 513.889C680.83 513.889 679.823 513.482 679.009 512.669C678.196 511.855 677.789 510.848 677.789 509.647C677.789 508.447 678.196 507.439 679.009 506.626C679.823 505.812 680.83 505.406 682.031 505.406C683.193 505.406 684.181 505.812 684.994 506.626C685.808 507.439 686.214 508.447 686.214 509.647C686.214 510.848 685.808 511.855 684.994 512.669C684.181 513.482 683.193 513.889 682.031 513.889ZM711.141 513.889C709.94 513.889 708.933 513.482 708.119 512.669C707.306 511.855 706.899 510.848 706.899 509.647C706.899 508.447 707.306 507.439 708.119 506.626C708.933 505.812 709.94 505.406 711.141 505.406C712.303 505.406 713.291 505.812 714.104 506.626C714.918 507.439 715.324 508.447 715.324 509.647C715.324 510.848 714.918 511.855 714.104 512.669C713.291 513.482 712.303 513.889 711.141 513.889ZM740.251 513.889C739.05 513.889 738.043 513.482 737.229 512.669C736.416 511.855 736.009 510.848 736.009 509.647C736.009 508.447 736.416 507.439 737.229 506.626C738.043 505.812 739.05 505.406 740.251 505.406C741.413 505.406 742.401 505.812 743.214 506.626C744.028 507.439 744.434 508.447 744.434 509.647C744.434 510.848 744.028 511.855 743.214 512.669C742.401 513.482 741.413 513.889 740.251 513.889ZM361.82 548.889C360.619 548.889 359.612 548.482 358.798 547.669C357.985 546.855 357.578 545.848 357.578 544.647C357.578 543.447 357.985 542.439 358.798 541.626C359.612 540.812 360.619 540.406 361.82 540.406C362.982 540.406 363.97 540.812 364.783 541.626C365.597 542.439 366.004 543.447 366.004 544.647C366.004 545.848 365.597 546.855 364.783 547.669C363.97 548.482 362.982 548.889 361.82 548.889ZM390.93 548.889C389.729 548.889 388.722 548.482 387.908 547.669C387.095 546.855 386.688 545.848 386.688 544.647C386.688 543.447 387.095 542.439 387.908 541.626C388.722 540.812 389.729 540.406 390.93 540.406C392.092 540.406 393.08 540.812 393.893 541.626C394.707 542.439 395.114 543.447 395.114 544.647C395.114 545.848 394.707 546.855 393.893 547.669C393.08 548.482 392.092 548.889 390.93 548.889ZM420.04 548.889C418.839 548.889 417.832 548.482 417.019 547.669C416.205 546.855 415.798 545.848 415.798 544.647C415.798 543.447 416.205 542.439 417.019 541.626C417.832 540.812 418.839 540.406 420.04 540.406C421.202 540.406 422.19 540.812 423.004 541.626C423.817 542.439 424.224 543.447 424.224 544.647C424.224 545.848 423.817 546.855 423.004 547.669C422.19 548.482 421.202 548.889 420.04 548.889ZM449.15 548.889C447.949 548.889 446.942 548.482 446.129 547.669C445.315 546.855 444.908 545.848 444.908 544.647C444.908 543.447 445.315 542.439 446.129 541.626C446.942 540.812 447.949 540.406 449.15 540.406C450.312 540.406 451.3 540.812 452.114 541.626C452.927 542.439 453.334 543.447 453.334 544.647C453.334 545.848 452.927 546.855 452.114 547.669C451.3 548.482 450.312 548.889 449.15 548.889ZM478.26 548.889C477.059 548.889 476.052 548.482 475.239 547.669C474.425 546.855 474.018 545.848 474.018 544.647C474.018 543.447 474.425 542.439 475.239 541.626C476.052 540.812 477.059 540.406 478.26 540.406C479.422 540.406 480.41 540.812 481.224 541.626C482.037 542.439 482.444 543.447 482.444 544.647C482.444 545.848 482.037 546.855 481.224 547.669C480.41 548.482 479.422 548.889 478.26 548.889ZM507.37 548.889C506.169 548.889 505.162 548.482 504.349 547.669C503.535 546.855 503.128 545.848 503.128 544.647C503.128 543.447 503.535 542.439 504.349 541.626C505.162 540.812 506.169 540.406 507.37 540.406C508.532 540.406 509.52 540.812 510.334 541.626C511.147 542.439 511.554 543.447 511.554 544.647C511.554 545.848 511.147 546.855 510.334 547.669C509.52 548.482 508.532 548.889 507.37 548.889ZM536.48 548.889C535.279 548.889 534.272 548.482 533.459 547.669C532.645 546.855 532.239 545.848 532.239 544.647C532.239 543.447 532.645 542.439 533.459 541.626C534.272 540.812 535.279 540.406 536.48 540.406C537.642 540.406 538.63 540.812 539.444 541.626C540.257 542.439 540.664 543.447 540.664 544.647C540.664 545.848 540.257 546.855 539.444 547.669C538.63 548.482 537.642 548.889 536.48 548.889ZM565.59 548.889C564.39 548.889 563.382 548.482 562.569 547.669C561.755 546.855 561.349 545.848 561.349 544.647C561.349 543.447 561.755 542.439 562.569 541.626C563.382 540.812 564.39 540.406 565.59 540.406C566.753 540.406 567.74 540.812 568.554 541.626C569.367 542.439 569.774 543.447 569.774 544.647C569.774 545.848 569.367 546.855 568.554 547.669C567.74 548.482 566.753 548.889 565.59 548.889ZM594.7 548.889C593.5 548.889 592.492 548.482 591.679 547.669C590.865 546.855 590.459 545.848 590.459 544.647C590.459 543.447 590.865 542.439 591.679 541.626C592.492 540.812 593.5 540.406 594.7 540.406C595.863 540.406 596.85 540.812 597.664 541.626C598.477 542.439 598.884 543.447 598.884 544.647C598.884 545.848 598.477 546.855 597.664 547.669C596.85 548.482 595.863 548.889 594.7 548.889ZM623.811 548.889C622.61 548.889 621.602 548.482 620.789 547.669C619.975 546.855 619.569 545.848 619.569 544.647C619.569 543.447 619.975 542.439 620.789 541.626C621.602 540.812 622.61 540.406 623.811 540.406C624.973 540.406 625.96 540.812 626.774 541.626C627.587 542.439 627.994 543.447 627.994 544.647C627.994 545.848 627.587 546.855 626.774 547.669C625.96 548.482 624.973 548.889 623.811 548.889ZM652.921 548.889C651.72 548.889 650.713 548.482 649.899 547.669C649.086 546.855 648.679 545.848 648.679 544.647C648.679 543.447 649.086 542.439 649.899 541.626C650.713 540.812 651.72 540.406 652.921 540.406C654.083 540.406 655.071 540.812 655.884 541.626C656.698 542.439 657.104 543.447 657.104 544.647C657.104 545.848 656.698 546.855 655.884 547.669C655.071 548.482 654.083 548.889 652.921 548.889ZM682.031 548.889C680.83 548.889 679.823 548.482 679.009 547.669C678.196 546.855 677.789 545.848 677.789 544.647C677.789 543.447 678.196 542.439 679.009 541.626C679.823 540.812 680.83 540.406 682.031 540.406C683.193 540.406 684.181 540.812 684.994 541.626C685.808 542.439 686.214 543.447 686.214 544.647C686.214 545.848 685.808 546.855 684.994 547.669C684.181 548.482 683.193 548.889 682.031 548.889ZM711.141 548.889C709.94 548.889 708.933 548.482 708.119 547.669C707.306 546.855 706.899 545.848 706.899 544.647C706.899 543.447 707.306 542.439 708.119 541.626C708.933 540.812 709.94 540.406 711.141 540.406C712.303 540.406 713.291 540.812 714.104 541.626C714.918 542.439 715.324 543.447 715.324 544.647C715.324 545.848 714.918 546.855 714.104 547.669C713.291 548.482 712.303 548.889 711.141 548.889ZM740.251 548.889C739.05 548.889 738.043 548.482 737.229 547.669C736.416 546.855 736.009 545.848 736.009 544.647C736.009 543.447 736.416 542.439 737.229 541.626C738.043 540.812 739.05 540.406 740.251 540.406C741.413 540.406 742.401 540.812 743.214 541.626C744.028 542.439 744.434 543.447 744.434 544.647C744.434 545.848 744.028 546.855 743.214 547.669C742.401 548.482 741.413 548.889 740.251 548.889ZM361.82 583.889C360.619 583.889 359.612 583.482 358.798 582.669C357.985 581.855 357.578 580.848 357.578 579.647C357.578 578.447 357.985 577.439 358.798 576.626C359.612 575.812 360.619 575.406 361.82 575.406C362.982 575.406 363.97 575.812 364.783 576.626C365.597 577.439 366.004 578.447 366.004 579.647C366.004 580.848 365.597 581.855 364.783 582.669C363.97 583.482 362.982 583.889 361.82 583.889ZM390.93 583.889C389.729 583.889 388.722 583.482 387.908 582.669C387.095 581.855 386.688 580.848 386.688 579.647C386.688 578.447 387.095 577.439 387.908 576.626C388.722 575.812 389.729 575.406 390.93 575.406C392.092 575.406 393.08 575.812 393.893 576.626C394.707 577.439 395.114 578.447 395.114 579.647C395.114 580.848 394.707 581.855 393.893 582.669C393.08 583.482 392.092 583.889 390.93 583.889ZM420.04 583.889C418.839 583.889 417.832 583.482 417.019 582.669C416.205 581.855 415.798 580.848 415.798 579.647C415.798 578.447 416.205 577.439 417.019 576.626C417.832 575.812 418.839 575.406 420.04 575.406C421.202 575.406 422.19 575.812 423.004 576.626C423.817 577.439 424.224 578.447 424.224 579.647C424.224 580.848 423.817 581.855 423.004 582.669C422.19 583.482 421.202 583.889 420.04 583.889ZM449.15 583.889C447.949 583.889 446.942 583.482 446.129 582.669C445.315 581.855 444.908 580.848 444.908 579.647C444.908 578.447 445.315 577.439 446.129 576.626C446.942 575.812 447.949 575.406 449.15 575.406C450.312 575.406 451.3 575.812 452.114 576.626C452.927 577.439 453.334 578.447 453.334 579.647C453.334 580.848 452.927 581.855 452.114 582.669C451.3 583.482 450.312 583.889 449.15 583.889ZM478.26 583.889C477.059 583.889 476.052 583.482 475.239 582.669C474.425 581.855 474.018 580.848 474.018 579.647C474.018 578.447 474.425 577.439 475.239 576.626C476.052 575.812 477.059 575.406 478.26 575.406C479.422 575.406 480.41 575.812 481.224 576.626C482.037 577.439 482.444 578.447 482.444 579.647C482.444 580.848 482.037 581.855 481.224 582.669C480.41 583.482 479.422 583.889 478.26 583.889ZM507.37 583.889C506.169 583.889 505.162 583.482 504.349 582.669C503.535 581.855 503.128 580.848 503.128 579.647C503.128 578.447 503.535 577.439 504.349 576.626C505.162 575.812 506.169 575.406 507.37 575.406C508.532 575.406 509.52 575.812 510.334 576.626C511.147 577.439 511.554 578.447 511.554 579.647C511.554 580.848 511.147 581.855 510.334 582.669C509.52 583.482 508.532 583.889 507.37 583.889ZM536.48 583.889C535.279 583.889 534.272 583.482 533.459 582.669C532.645 581.855 532.239 580.848 532.239 579.647C532.239 578.447 532.645 577.439 533.459 576.626C534.272 575.812 535.279 575.406 536.48 575.406C537.642 575.406 538.63 575.812 539.444 576.626C540.257 577.439 540.664 578.447 540.664 579.647C540.664 580.848 540.257 581.855 539.444 582.669C538.63 583.482 537.642 583.889 536.48 583.889ZM565.59 583.889C564.39 583.889 563.382 583.482 562.569 582.669C561.755 581.855 561.349 580.848 561.349 579.647C561.349 578.447 561.755 577.439 562.569 576.626C563.382 575.812 564.39 575.406 565.59 575.406C566.753 575.406 567.74 575.812 568.554 576.626C569.367 577.439 569.774 578.447 569.774 579.647C569.774 580.848 569.367 581.855 568.554 582.669C567.74 583.482 566.753 583.889 565.59 583.889ZM594.7 583.889C593.5 583.889 592.492 583.482 591.679 582.669C590.865 581.855 590.459 580.848 590.459 579.647C590.459 578.447 590.865 577.439 591.679 576.626C592.492 575.812 593.5 575.406 594.7 575.406C595.863 575.406 596.85 575.812 597.664 576.626C598.477 577.439 598.884 578.447 598.884 579.647C598.884 580.848 598.477 581.855 597.664 582.669C596.85 583.482 595.863 583.889 594.7 583.889ZM623.811 583.889C622.61 583.889 621.602 583.482 620.789 582.669C619.975 581.855 619.569 580.848 619.569 579.647C619.569 578.447 619.975 577.439 620.789 576.626C621.602 575.812 622.61 575.406 623.811 575.406C624.973 575.406 625.96 575.812 626.774 576.626C627.587 577.439 627.994 578.447 627.994 579.647C627.994 580.848 627.587 581.855 626.774 582.669C625.96 583.482 624.973 583.889 623.811 583.889ZM652.921 583.889C651.72 583.889 650.713 583.482 649.899 582.669C649.086 581.855 648.679 580.848 648.679 579.647C648.679 578.447 649.086 577.439 649.899 576.626C650.713 575.812 651.72 575.406 652.921 575.406C654.083 575.406 655.071 575.812 655.884 576.626C656.698 577.439 657.104 578.447 657.104 579.647C657.104 580.848 656.698 581.855 655.884 582.669C655.071 583.482 654.083 583.889 652.921 583.889ZM682.031 583.889C680.83 583.889 679.823 583.482 679.009 582.669C678.196 581.855 677.789 580.848 677.789 579.647C677.789 578.447 678.196 577.439 679.009 576.626C679.823 575.812 680.83 575.406 682.031 575.406C683.193 575.406 684.181 575.812 684.994 576.626C685.808 577.439 686.214 578.447 686.214 579.647C686.214 580.848 685.808 581.855 684.994 582.669C684.181 583.482 683.193 583.889 682.031 583.889ZM711.141 583.889C709.94 583.889 708.933 583.482 708.119 582.669C707.306 581.855 706.899 580.848 706.899 579.647C706.899 578.447 707.306 577.439 708.119 576.626C708.933 575.812 709.94 575.406 711.141 575.406C712.303 575.406 713.291 575.812 714.104 576.626C714.918 577.439 715.324 578.447 715.324 579.647C715.324 580.848 714.918 581.855 714.104 582.669C713.291 583.482 712.303 583.889 711.141 583.889ZM740.251 583.889C739.05 583.889 738.043 583.482 737.229 582.669C736.416 581.855 736.009 580.848 736.009 579.647C736.009 578.447 736.416 577.439 737.229 576.626C738.043 575.812 739.05 575.406 740.251 575.406C741.413 575.406 742.401 575.812 743.214 576.626C744.028 577.439 744.434 578.447 744.434 579.647C744.434 580.848 744.028 581.855 743.214 582.669C742.401 583.482 741.413 583.889 740.251 583.889ZM361.82 618.889C360.619 618.889 359.612 618.482 358.798 617.669C357.985 616.855 357.578 615.848 357.578 614.647C357.578 613.447 357.985 612.439 358.798 611.626C359.612 610.812 360.619 610.406 361.82 610.406C362.982 610.406 363.97 610.812 364.783 611.626C365.597 612.439 366.004 613.447 366.004 614.647C366.004 615.848 365.597 616.855 364.783 617.669C363.97 618.482 362.982 618.889 361.82 618.889ZM390.93 618.889C389.729 618.889 388.722 618.482 387.908 617.669C387.095 616.855 386.688 615.848 386.688 614.647C386.688 613.447 387.095 612.439 387.908 611.626C388.722 610.812 389.729 610.406 390.93 610.406C392.092 610.406 393.08 610.812 393.893 611.626C394.707 612.439 395.114 613.447 395.114 614.647C395.114 615.848 394.707 616.855 393.893 617.669C393.08 618.482 392.092 618.889 390.93 618.889ZM420.04 618.889C418.839 618.889 417.832 618.482 417.019 617.669C416.205 616.855 415.798 615.848 415.798 614.647C415.798 613.447 416.205 612.439 417.019 611.626C417.832 610.812 418.839 610.406 420.04 610.406C421.202 610.406 422.19 610.812 423.004 611.626C423.817 612.439 424.224 613.447 424.224 614.647C424.224 615.848 423.817 616.855 423.004 617.669C422.19 618.482 421.202 618.889 420.04 618.889ZM449.15 618.889C447.949 618.889 446.942 618.482 446.129 617.669C445.315 616.855 444.908 615.848 444.908 614.647C444.908 613.447 445.315 612.439 446.129 611.626C446.942 610.812 447.949 610.406 449.15 610.406C450.312 610.406 451.3 610.812 452.114 611.626C452.927 612.439 453.334 613.447 453.334 614.647C453.334 615.848 452.927 616.855 452.114 617.669C451.3 618.482 450.312 618.889 449.15 618.889ZM478.26 618.889C477.059 618.889 476.052 618.482 475.239 617.669C474.425 616.855 474.018 615.848 474.018 614.647C474.018 613.447 474.425 612.439 475.239 611.626C476.052 610.812 477.059 610.406 478.26 610.406C479.422 610.406 480.41 610.812 481.224 611.626C482.037 612.439 482.444 613.447 482.444 614.647C482.444 615.848 482.037 616.855 481.224 617.669C480.41 618.482 479.422 618.889 478.26 618.889ZM507.37 618.889C506.169 618.889 505.162 618.482 504.349 617.669C503.535 616.855 503.128 615.848 503.128 614.647C503.128 613.447 503.535 612.439 504.349 611.626C505.162 610.812 506.169 610.406 507.37 610.406C508.532 610.406 509.52 610.812 510.334 611.626C511.147 612.439 511.554 613.447 511.554 614.647C511.554 615.848 511.147 616.855 510.334 617.669C509.52 618.482 508.532 618.889 507.37 618.889ZM536.48 618.889C535.279 618.889 534.272 618.482 533.459 617.669C532.645 616.855 532.239 615.848 532.239 614.647C532.239 613.447 532.645 612.439 533.459 611.626C534.272 610.812 535.279 610.406 536.48 610.406C537.642 610.406 538.63 610.812 539.444 611.626C540.257 612.439 540.664 613.447 540.664 614.647C540.664 615.848 540.257 616.855 539.444 617.669C538.63 618.482 537.642 618.889 536.48 618.889ZM565.59 618.889C564.39 618.889 563.382 618.482 562.569 617.669C561.755 616.855 561.349 615.848 561.349 614.647C561.349 613.447 561.755 612.439 562.569 611.626C563.382 610.812 564.39 610.406 565.59 610.406C566.753 610.406 567.74 610.812 568.554 611.626C569.367 612.439 569.774 613.447 569.774 614.647C569.774 615.848 569.367 616.855 568.554 617.669C567.74 618.482 566.753 618.889 565.59 618.889ZM594.7 618.889C593.5 618.889 592.492 618.482 591.679 617.669C590.865 616.855 590.459 615.848 590.459 614.647C590.459 613.447 590.865 612.439 591.679 611.626C592.492 610.812 593.5 610.406 594.7 610.406C595.863 610.406 596.85 610.812 597.664 611.626C598.477 612.439 598.884 613.447 598.884 614.647C598.884 615.848 598.477 616.855 597.664 617.669C596.85 618.482 595.863 618.889 594.7 618.889ZM623.811 618.889C622.61 618.889 621.602 618.482 620.789 617.669C619.975 616.855 619.569 615.848 619.569 614.647C619.569 613.447 619.975 612.439 620.789 611.626C621.602 610.812 622.61 610.406 623.811 610.406C624.973 610.406 625.96 610.812 626.774 611.626C627.587 612.439 627.994 613.447 627.994 614.647C627.994 615.848 627.587 616.855 626.774 617.669C625.96 618.482 624.973 618.889 623.811 618.889ZM652.921 618.889C651.72 618.889 650.713 618.482 649.899 617.669C649.086 616.855 648.679 615.848 648.679 614.647C648.679 613.447 649.086 612.439 649.899 611.626C650.713 610.812 651.72 610.406 652.921 610.406C654.083 610.406 655.071 610.812 655.884 611.626C656.698 612.439 657.104 613.447 657.104 614.647C657.104 615.848 656.698 616.855 655.884 617.669C655.071 618.482 654.083 618.889 652.921 618.889ZM682.031 618.889C680.83 618.889 679.823 618.482 679.009 617.669C678.196 616.855 677.789 615.848 677.789 614.647C677.789 613.447 678.196 612.439 679.009 611.626C679.823 610.812 680.83 610.406 682.031 610.406C683.193 610.406 684.181 610.812 684.994 611.626C685.808 612.439 686.214 613.447 686.214 614.647C686.214 615.848 685.808 616.855 684.994 617.669C684.181 618.482 683.193 618.889 682.031 618.889ZM711.141 618.889C709.94 618.889 708.933 618.482 708.119 617.669C707.306 616.855 706.899 615.848 706.899 614.647C706.899 613.447 707.306 612.439 708.119 611.626C708.933 610.812 709.94 610.406 711.141 610.406C712.303 610.406 713.291 610.812 714.104 611.626C714.918 612.439 715.324 613.447 715.324 614.647C715.324 615.848 714.918 616.855 714.104 617.669C713.291 618.482 712.303 618.889 711.141 618.889ZM740.251 618.889C739.05 618.889 738.043 618.482 737.229 617.669C736.416 616.855 736.009 615.848 736.009 614.647C736.009 613.447 736.416 612.439 737.229 611.626C738.043 610.812 739.05 610.406 740.251 610.406C741.413 610.406 742.401 610.812 743.214 611.626C744.028 612.439 744.434 613.447 744.434 614.647C744.434 615.848 744.028 616.855 743.214 617.669C742.401 618.482 741.413 618.889 740.251 618.889Z" fill="url(#paint1_radial)"/>
<defs>
<radialGradient id="paint0_radial" cx="0" cy="0" r="1" gradientUnits="userSpaceOnUse" gradientTransform="translate(267.174 172.557) rotate(90) scale(172.504 218.354)">
<stop stop-color="white"/>
<stop offset="1" stop-color="white" stop-opacity="0"/>
</radialGradient>
<radialGradient id="paint1_radial" cx="0" cy="0" r="1" gradientUnits="userSpaceOnUse" gradientTransform="translate(573.143 542.986) rotate(90) scale(172.504 218.354)">
<stop stop-color="white"/>
<stop offset="1" stop-color="white" stop-opacity="0"/>
</radialGradient>
</defs>
</svg>
