<svg width="40" height="34" viewBox="0 0 40 34" fill="none" xmlns="http://www.w3.org/2000/svg">
<path d="M10.8125 33.174H17.8781V25.9489H22.1251V33.174H29.1907V0.826172H10.8125V33.174ZM21.2908 4.63838H25.5377V8.88537H21.2908V4.63838ZM21.2908 11.4639H25.5377V15.7109H21.2908V11.4639ZM21.2908 18.2893H25.5377V22.5363H21.2908V18.2893ZM14.4654 4.63838H18.7123V8.88537H14.4654V4.63838ZM14.4654 11.4639H18.7123V15.7109H14.4654V11.4639ZM14.4654 18.2893H18.7123V22.5363H14.4654V18.2893Z" fill="white"/>
<path d="M30.8398 3.72461V26.597H33.5683V33.1747H40.001V3.72461H30.8398ZM36.6754 23.4901H32.8088V19.6236H36.6753V23.4901H36.6754ZM36.6754 17.2759H32.8088V13.4095H36.6753V17.2759H36.6754ZM36.6754 11.0618H32.8088V7.19543H36.6753V11.0618H36.6754Z" fill="white"/>
<path d="M0 33.1747H6.43267V26.597H9.16115V3.72461H0V33.1747ZM3.32567 7.19543H7.19217V11.0618H3.32567V7.19543ZM3.32567 13.4095H7.19217V17.2759H3.32567V13.4095ZM3.32567 19.6234H7.19217V23.4898H3.32567V19.6234Z" fill="white"/>
</svg>
