<svg width="45" height="61" viewBox="0 0 45 61" fill="none" xmlns="http://www.w3.org/2000/svg">
<path d="M22.0917 0C34.2732 0 44.1836 9.91035 44.1836 22.0918C44.1836 37.2093 24.4135 59.4027 23.5718 60.3401C22.7812 61.2206 21.4008 61.2191 20.6116 60.3401C19.7699 59.4027 -0.000173007 37.2093 -0.000173007 22.0918C6.52744e-05 9.91035 9.9103 0 22.0917 0ZM22.0917 33.2067C28.2205 33.2067 33.2066 28.2206 33.2066 22.0918C33.2066 15.9629 28.2204 10.9769 22.0917 10.9769C15.963 10.9769 10.977 15.9631 10.977 22.0919C10.977 28.2207 15.963 33.2067 22.0917 33.2067Z" fill="#55AAFD"/>
</svg>
