<svg width="75" height="102" viewBox="0 0 75 102" fill="none" xmlns="http://www.w3.org/2000/svg">
<g clip-path="url(#clip0)">
<path d="M73.9772 43.8099C73.2586 41.7932 71.3476 40.4481 69.2066 40.4519C67.0677 40.4584 65.1643 41.8103 64.4537 43.8278H54.0149V37.076H60.7668C61.6987 37.0762 62.4545 36.3208 62.4547 35.3888C62.4547 35.3886 62.4547 35.3882 62.4547 35.388V28.3251C65.0915 27.3929 66.4736 24.4998 65.5414 21.8627C64.6092 19.2259 61.716 17.8439 59.079 18.7761C56.442 19.7083 55.0602 22.6014 55.9924 25.2385C56.5021 26.6806 57.6366 27.8151 59.0788 28.3251V33.7002H54.0149V30.3243C54.0151 29.3923 53.2598 28.6365 52.3278 28.6363C52.3276 28.6363 52.3271 28.6363 52.3269 28.6363H48.951V19.8851C51.5878 18.9529 52.9698 16.0597 52.0377 13.4227C51.1055 10.7859 48.2123 9.40387 45.5753 10.336C42.9385 11.2682 41.5565 14.1614 42.4886 16.7984C42.9984 18.2406 44.1329 19.3751 45.5751 19.8851V28.6361H38.8232V1.68797C38.8234 0.755998 38.0681 0.000210996 37.1361 0C37.1359 0 37.1355 0 37.1352 0C16.3119 0 0 15.0763 0 34.3214C0 43.4634 3.62892 55.5676 9.47181 65.9081C10.5211 67.7642 11.89 69.7159 13.3389 71.7831C16.4028 76.1505 19.8125 81.0618 20.1832 85.337C18.8856 86.2542 18.1262 87.7546 18.1555 89.3434C18.1604 90.4847 18.5545 91.5903 19.2728 92.4773C18.2737 93.4631 17.715 94.8105 17.7236 96.214C17.7266 99.0095 19.9921 101.275 22.7875 101.278H51.483C54.2974 101.26 56.565 98.9648 56.5475 96.1503C56.5473 96.132 56.5471 96.1136 56.5469 96.0953C56.5458 94.7223 55.9848 93.4093 54.9933 92.4594C55.7208 91.5382 56.116 90.3984 56.1149 89.2246C56.1099 86.5511 53.9385 84.3879 51.265 84.393C51.1937 84.3932 51.1224 84.3949 51.051 84.3981H38.8232V52.2674H42.1991V57.3313C42.1989 58.2633 42.9543 59.0191 43.8863 59.0193C43.8865 59.0193 43.8869 59.0193 43.8871 59.0193H48.951V61.0183C46.3142 61.9505 44.9324 64.8438 45.8648 67.4804C46.7972 70.117 49.6903 71.4991 52.3269 70.5667C54.9638 69.6345 56.3456 66.7411 55.4132 64.1045C54.9034 62.6623 53.7689 61.528 52.3269 61.0183V57.3313C52.3271 56.3994 51.5718 55.6436 50.6398 55.6434C50.6396 55.6434 50.6392 55.6434 50.639 55.6434H45.5751V52.2674H52.3269C53.2589 52.2676 54.0147 51.5123 54.0149 50.5803C54.0149 50.5801 54.0149 50.5797 54.0149 50.5795V47.2035H64.4539C65.3912 49.8334 68.2826 51.2055 70.9125 50.2682C73.5421 49.3312 74.9142 46.4397 73.9772 43.8099ZM60.7668 21.8841C61.6989 21.8841 62.4547 22.6398 62.4547 23.572C62.4547 24.5042 61.6989 25.26 60.7668 25.26C59.8346 25.26 59.0788 24.5042 59.0788 23.572C59.0796 22.6403 59.835 21.8851 60.7668 21.8841ZM16.1032 69.8444C14.702 67.8465 13.3792 65.9608 12.4108 64.2465C6.92256 54.5325 3.37593 42.7859 3.37593 34.3214C3.37593 17.488 17.3306 4.19185 35.4473 3.41222V15.2043C34.9991 15.2379 34.5419 15.2786 34.0528 15.3385C33.3363 15.4257 32.7546 15.9591 32.6056 16.6655L32.0912 19.1118C31.6675 19.2124 31.2451 19.3262 30.8235 19.453L29.1413 17.577C28.6593 17.0379 27.8875 16.8662 27.2225 17.1502C25.3332 17.9648 23.5501 19.0061 21.9121 20.2507C21.3355 20.6854 21.0994 21.4389 21.3245 22.125L22.0993 24.4856C21.7802 24.7857 21.4697 25.0971 21.1688 25.4153L18.8107 24.6405C18.1247 24.4183 17.3732 24.6536 16.9364 25.2273C15.6901 26.8657 14.648 28.6496 13.8333 30.5401C13.5497 31.2052 13.7215 31.9768 14.2601 32.4589L16.137 34.1404C16.0108 34.5575 15.8979 34.9755 15.7983 35.3947L13.1733 35.9189C12.3842 36.0763 11.816 36.7692 11.816 37.5739V43.3299C11.816 44.1346 12.3842 44.8275 13.1735 44.9849L15.7985 45.509C15.8983 45.9276 16.0112 46.3458 16.1372 46.7634L14.2597 48.4448C13.7217 48.9274 13.5501 49.6986 13.8329 50.3636C14.6477 52.2539 15.6896 54.0381 16.936 55.6765C17.3723 56.2508 18.1243 56.4861 18.8103 56.2633L21.1684 55.4885C21.4701 55.8067 21.7798 56.1181 22.0988 56.4181L21.3241 58.7754C21.0991 59.4613 21.3348 60.2144 21.9109 60.6497C23.5488 61.8962 25.3328 62.9385 27.2229 63.7536C27.8879 64.0359 28.6589 63.8644 29.1417 63.3268L30.8239 61.4508C31.2451 61.5778 31.6677 61.6916 32.0916 61.792L32.6052 64.2366C32.7535 64.9436 33.3354 65.4779 34.0524 65.5652C34.5421 65.6252 34.9995 65.6659 35.4477 65.6994V84.3983H23.4864C22.7962 79.4236 19.2726 74.3633 16.1032 69.8444ZM21.9436 40.4517C21.9543 48.1834 27.7643 54.6768 35.4473 55.5438V61.3485L35.1679 60.0198C35.027 59.347 34.4921 58.8267 33.8154 58.7045C32.8149 58.5224 31.8312 58.2572 30.8748 57.9116C30.6914 57.8464 30.4982 57.813 30.3036 57.8126C29.8238 57.8126 29.3666 58.0171 29.0467 58.3747L27.4594 60.1452C26.5798 59.7057 25.7309 59.2071 24.9184 58.6534L25.6512 56.4232C25.8658 55.7695 25.6626 55.0513 25.1376 54.6067C24.3592 53.9478 23.6366 53.2256 22.9774 52.4474C22.5316 51.926 21.8157 51.7243 21.1633 51.9364L18.9339 52.67C18.3798 51.8573 17.8813 51.008 17.4413 50.1281L19.2133 48.5408C19.7243 48.0819 19.907 47.3595 19.6756 46.7128C19.3304 45.7561 19.0652 44.7724 18.8826 43.7721C18.7594 43.09 18.2315 42.5526 17.5515 42.4171L15.1917 41.9453V38.9585L17.5515 38.4871C18.2313 38.3518 18.7594 37.8142 18.8826 37.1321C19.0652 36.1311 19.3304 35.1468 19.6754 34.1895C19.9072 33.5426 19.7241 32.82 19.2122 32.3615L17.4417 30.7756C17.8821 29.8962 18.3805 29.0469 18.9335 28.2338L21.1637 28.9674C21.8161 29.1792 22.5318 28.9777 22.9779 28.4564C23.6387 27.6776 24.3618 26.9539 25.1397 26.292C25.6626 25.8482 25.8647 25.1319 25.6508 24.4804L24.9188 22.2501C25.7313 21.6967 26.58 21.1983 27.459 20.7584L29.0463 22.5289C29.5054 23.0395 30.2275 23.2224 30.8744 22.992C31.8308 22.6462 32.8145 22.3809 33.815 22.1991C34.4915 22.0775 35.0263 21.5579 35.1675 20.8852L35.4473 19.5566V25.3596C27.7643 26.2268 21.9543 32.7199 21.9436 40.4517ZM35.4473 28.7707V52.1326C28.9961 51.2091 24.515 45.2305 25.4385 38.7793C26.1814 33.5905 30.2583 29.5137 35.4473 28.7707ZM53.1709 96.214C53.1701 97.1458 52.4147 97.9012 51.483 97.902H22.7875C21.8383 97.886 21.0816 97.1034 21.0977 96.1541C21.0981 96.1345 21.0987 96.1149 21.0996 96.0953C21.1004 95.1635 21.8558 94.4081 22.7875 94.4073H51.483C52.4322 94.4233 53.1889 95.2059 53.1728 96.1552C53.1726 96.1748 53.172 96.1944 53.1709 96.214ZM51.051 87.7742C51.9014 87.6957 52.6544 88.3217 52.7327 89.1721C52.738 89.229 52.7401 89.2862 52.739 89.3434C52.7382 90.2751 51.9828 91.0305 51.051 91.0314H23.2194C22.2702 91.0153 21.5135 90.2329 21.5296 89.2835C21.53 89.2638 21.5306 89.2442 21.5315 89.2246C21.5676 88.3831 22.279 87.7303 23.1205 87.7666C23.1536 87.7681 23.1865 87.7706 23.2194 87.774H51.051V87.7742ZM50.639 64.0832C51.5712 64.0832 52.3269 64.839 52.3269 65.7712C52.3269 66.7033 51.5712 67.4591 50.639 67.4591C49.7068 67.4591 48.951 66.7033 48.951 65.7712C48.9519 64.8394 49.7072 64.0843 50.639 64.0832ZM47.263 13.4442C48.1952 13.4442 48.951 14.2 48.951 15.1322C48.951 16.0644 48.1952 16.8202 47.263 16.8202C46.3309 16.8202 45.5751 16.0644 45.5751 15.1322C45.5759 14.2004 46.3313 13.4453 47.263 13.4442ZM50.639 48.8915H38.8232V32.0118H50.639V48.8915ZM69.2066 47.2035C68.2744 47.2035 67.5186 46.4477 67.5186 45.5156C67.5186 44.5834 68.2744 43.8276 69.2066 43.8276C70.1388 43.8276 70.8946 44.5834 70.8946 45.5156C70.8937 46.4475 70.1384 47.2027 69.2066 47.2035Z" fill="#00203A"/>
</g>
<defs>
<clipPath id="clip0">
<rect width="74.2718" height="102" fill="white"/>
</clipPath>
</defs>
</svg>
