<svg width="1501" height="1763" viewBox="0 0 1501 1763" fill="none" xmlns="http://www.w3.org/2000/svg">
<path d="M19.1179 19L19.1121 264.297C16.5542 308.147 57.4801 394.395 241.647 388.589C471.856 381.331 479.502 473.5 574.002 593.5C596.023 621.464 678.015 687.07 774.964 687.07C774.964 687.07 1138.1 687.07 1243.06 687.07C1348.02 687.07 1479.46 736.266 1481.02 859.5C1482.59 982.734 1384.6 1023.5 1119 1023.5C1119 1023.5 461.624 1023.5 402.793 1023.5C343.962 1023.5 216.068 1051 216.068 1189.68C216.068 1321 349.358 1347.54 402.793 1355.5C456.228 1363.46 866.502 1364 866.502 1364C1015.29 1370.65 1298.05 1349 1298.05 1744" stroke="#ACB1B4" stroke-width="38" stroke-linecap="square" stroke-linejoin="round"/>
<path d="M19.1179 19L19.1121 264.297C16.5542 308.147 57.4801 394.395 241.647 388.589C471.856 381.331 479.502 473.5 574.002 593.5C596.023 621.464 678.015 687.07 774.964 687.07C774.964 687.07 1138.1 687.07 1243.06 687.07C1348.02 687.07 1479.46 736.266 1481.02 859.5C1482.59 982.734 1384.6 1023.5 1119 1023.5C1119 1023.5 461.624 1023.5 402.793 1023.5C343.962 1023.5 216.068 1051 216.068 1189.68C216.068 1321 349.358 1347.54 402.793 1355.5C456.228 1363.46 866.502 1364 866.502 1364C1015.29 1370.65 1298.05 1349 1298.05 1744" stroke="black" stroke-width="4" stroke-linecap="square" stroke-linejoin="round" stroke-dasharray="10 20"/>
</svg>
