<svg width="101" height="102" viewBox="0 0 101 102" fill="none" xmlns="http://www.w3.org/2000/svg">
<path d="M95.6058 32.1106C93.8616 31.7833 92.0583 32.1358 90.5658 33.096C89.0734 34.0561 88.005 35.5511 87.5798 37.274L83.5719 52.2061C82.5215 51.511 81.298 51.1228 80.039 51.0851C78.78 51.0473 77.5355 51.3615 76.4453 51.9923L64.8424 58.7982C62.5482 60.1488 60.6453 62.0735 59.321 64.3829C57.9967 66.6923 57.2967 69.3068 57.2899 71.969V84.8444H53.8962C53.4462 84.8444 53.0146 85.0232 52.6964 85.3414C52.3782 85.6596 52.1994 86.0912 52.1994 86.5413V100.116C52.1994 100.566 52.3782 100.997 52.6964 101.316C53.0146 101.634 53.4462 101.813 53.8962 101.813H84.439C84.889 101.813 85.3206 101.634 85.6388 101.316C85.9571 100.997 86.1358 100.566 86.1358 100.116V86.5413C86.1358 86.0912 85.9571 85.6596 85.6388 85.3414C85.3206 85.0232 84.889 84.8444 84.439 84.8444H81.0454V82.8761C81.0452 82.1418 81.2039 81.4162 81.5105 80.749C81.8172 80.0818 82.2645 79.4888 82.8219 79.0108L90.7342 72.2235C92.0339 71.1123 92.9663 69.6332 93.4084 67.9814L100.771 40.5065C100.926 39.9305 101.003 39.3365 101 38.7401C100.992 37.1856 100.452 35.6807 99.471 34.4749C98.4899 33.2691 97.1261 32.4349 95.6058 32.1106ZM82.7422 98.419H55.593V88.2381H82.7422V98.419ZM97.4944 39.6258L90.1301 67.1042C89.8658 68.0954 89.3067 68.983 88.5267 69.6494L80.6144 76.4367C79.6854 77.2329 78.9397 78.2207 78.4283 79.3322C77.917 80.4437 77.652 81.6526 77.6517 82.8761V84.8444H60.6835V71.969C60.6878 69.8988 61.2311 67.8653 62.26 66.0689C63.2888 64.2724 64.7677 62.7749 66.5511 61.7235L78.1404 54.9244C78.6567 54.6278 79.2418 54.4716 79.8372 54.4713C80.4671 54.4657 81.0857 54.6379 81.6221 54.968C82.1584 55.2982 82.5908 55.773 82.8695 56.3378C83.2405 57.1581 83.2874 58.0883 83.0007 58.9417C82.7139 59.795 82.1147 60.5082 81.3237 60.9379L71.8214 66.4136C71.6283 66.525 71.4589 66.6734 71.323 66.8502C71.1872 67.0271 71.0875 67.229 71.0297 67.4444C70.9719 67.6598 70.957 67.8844 70.986 68.1056C71.015 68.3267 71.0873 68.5399 71.1987 68.7331C71.3101 68.9263 71.4585 69.0957 71.6354 69.2315C71.8122 69.3674 72.0141 69.4671 72.2295 69.5249C72.4449 69.5827 72.6696 69.5975 72.8907 69.5685C73.1118 69.5395 73.3251 69.4673 73.5183 69.3559L83.0205 63.8802C84.4439 63.0869 85.5421 61.8173 86.1221 60.2945C86.7021 58.7716 86.7268 57.0931 86.1918 55.5539L90.8598 38.1615C91.0714 37.2834 91.6052 36.517 92.3554 36.0141C93.1057 35.5112 94.0175 35.3086 94.9101 35.4466C95.6671 35.6077 96.3466 36.0219 96.8367 36.6209C97.3268 37.2199 97.5982 37.9679 97.6063 38.7418C97.6086 39.0402 97.5709 39.3375 97.4944 39.6258Z" fill="#00203A"/>
<path d="M47.1089 84.8444H43.7152V71.9689C43.7096 69.3073 43.011 66.693 41.6882 64.3834C40.3654 62.0737 38.464 60.1483 36.1712 58.7965L24.5547 51.9821C23.4637 51.353 22.2189 51.0405 20.9601 51.0794C19.7012 51.1184 18.4782 51.5073 17.4281 52.2027L13.4219 37.2706C12.9945 35.5483 11.9252 34.0543 10.4326 33.0945C8.93994 32.1346 7.13696 31.7814 5.39252 32.1072C4.49048 32.2978 3.63663 32.6698 2.88291 33.2008C2.12918 33.7317 1.49134 34.4104 1.00819 35.1956C0.525031 35.9808 0.206656 36.8561 0.072428 37.7683C-0.0617996 38.6804 -0.00907389 39.6103 0.227398 40.5014L7.5916 67.9797C8.03238 69.6317 8.96431 71.111 10.2641 72.2218L18.1764 79.0091C18.7352 79.4866 19.184 80.0796 19.4919 80.7471C19.7997 81.4147 19.9593 82.141 19.9597 82.8761V84.8444H16.5661C16.1161 84.8444 15.6845 85.0232 15.3663 85.3414C15.048 85.6596 14.8693 86.0912 14.8693 86.5413V100.116C14.8693 100.566 15.048 100.997 15.3663 101.316C15.6845 101.634 16.1161 101.813 16.5661 101.813H47.1089C47.5589 101.813 47.9905 101.634 48.3087 101.316C48.6269 100.997 48.8057 100.566 48.8057 100.116V86.5413C48.8057 86.0912 48.6269 85.6596 48.3087 85.3414C47.9905 85.0232 47.5589 84.8444 47.1089 84.8444ZM20.3907 76.4333L12.4784 69.646C11.6979 68.9801 11.1386 68.0923 10.875 67.1008L3.51075 39.6241C3.43428 39.3363 3.39662 39.0396 3.39876 38.7418C3.40357 37.9648 3.67394 37.2128 4.16499 36.6106C4.65605 36.0085 5.33826 35.5923 6.0984 35.4313C6.99083 35.2946 7.90208 35.4976 8.65204 36.0003C9.40199 36.503 9.93607 37.2688 10.1487 38.1462L14.8167 55.5369C14.2812 57.0764 14.3057 58.7553 14.8857 60.2785C15.4658 61.8017 16.5642 63.0716 17.988 63.8649L27.4902 69.3406C27.8804 69.5656 28.344 69.6264 28.779 69.5096C29.214 69.3928 29.5848 69.108 29.8098 68.7178C30.0348 68.3277 30.0956 67.8641 29.9788 67.4291C29.862 66.9941 29.5772 66.6233 29.1871 66.3983L19.6849 60.9226C18.8935 60.4933 18.2939 59.7802 18.0069 58.9268C17.7198 58.0734 17.7664 57.143 18.1374 56.3226C18.4183 55.7617 18.8508 55.2909 19.386 54.9637C19.9211 54.6364 20.5373 54.4659 21.1645 54.4713C21.7558 54.47 22.3372 54.6233 22.8511 54.9159L34.454 61.7252C36.2375 62.776 37.7165 64.2733 38.7454 66.0695C39.7743 67.8657 40.3175 69.8989 40.3216 71.9689V84.8444H23.3534V82.8761C23.3536 81.6521 23.0889 80.4424 22.5775 79.3303C22.0661 78.2182 21.3201 77.2299 20.3907 76.4333ZM45.4121 98.419H18.2629V88.2381H45.4121V98.419Z" fill="#00203A"/>
<path d="M77.6517 23.0801V1.70017C77.6522 1.40204 77.5743 1.109 77.4256 0.850589C77.2769 0.592172 77.0627 0.377493 76.8047 0.228169C76.5466 0.078845 76.2538 0.000146962 75.9557 2.0563e-07C75.6575 -0.000146551 75.3646 0.0782629 75.1064 0.227333L72.6884 1.60855C70.0222 3.13595 67.0194 3.98005 63.9478 4.06561C60.8762 4.15117 57.8311 3.47554 55.0839 2.09893L51.2474 0.181519C51.0119 0.0638298 50.7522 0.00256184 50.4889 0.00256184C50.2256 0.00256184 49.966 0.0638298 49.7304 0.181519L45.9211 2.09214C43.1736 3.47114 40.1274 4.14853 37.0544 4.06385C33.9814 3.97917 30.9772 3.13506 28.3098 1.60685L25.8986 0.227333C25.6404 0.0782629 25.3475 -0.000146551 25.0493 2.0563e-07C24.7512 0.000146962 24.4584 0.078845 24.2003 0.228169C23.9423 0.377493 23.7281 0.592172 23.5794 0.850589C23.4307 1.109 23.3528 1.40204 23.3534 1.70017V23.0801C23.3451 30.7703 25.4312 38.3175 29.3876 44.9118C33.3441 51.5061 39.0216 56.8985 45.8108 60.5103L49.7033 62.5855C49.9492 62.7168 50.2237 62.7855 50.5025 62.7855C50.7813 62.7855 51.0558 62.7168 51.3017 62.5855L55.1942 60.5103C61.9837 56.8988 67.6614 51.5065 71.6179 44.9121C75.5744 38.3177 77.6603 30.7703 77.6517 23.0801ZM50.5025 59.1664L47.4092 57.5154C41.1629 54.1929 35.9393 49.232 32.2991 43.1653C28.6589 37.0986 26.7395 30.1551 26.747 23.0801V4.6238C29.8894 6.39797 33.4197 7.37233 37.0273 7.4611C40.6348 7.54987 44.2088 6.75031 47.4346 5.13284L50.4889 3.60571L53.567 5.14302C56.794 6.75968 60.3691 7.5579 63.9773 7.46735C67.5855 7.37681 71.1161 6.40028 74.258 4.6238V23.0801C74.2658 30.1552 72.3466 37.0988 68.7064 43.1656C65.0662 49.2324 59.8424 54.1932 53.5958 57.5154L50.5025 59.1664Z" fill="#00203A"/>
<path d="M70.8644 11.9388C70.8645 11.6855 70.8079 11.4354 70.6988 11.2068C70.5896 10.9782 70.4307 10.777 70.2336 10.6178C70.0366 10.4587 69.8064 10.3457 69.56 10.2871C69.3135 10.2285 69.0571 10.2259 68.8095 10.2793C63.1472 11.4863 57.2432 10.743 52.0568 8.17015L51.2559 7.7714C51.0191 7.65206 50.7575 7.58989 50.4923 7.58989C50.2271 7.58989 49.9656 7.65206 49.7288 7.7714L48.9448 8.16337C43.7578 10.7398 37.8515 11.4849 32.187 10.2776C31.94 10.2256 31.6845 10.2294 31.4392 10.2886C31.1938 10.3479 30.9648 10.4611 30.7687 10.6201C30.5726 10.7791 30.4145 10.9798 30.3059 11.2076C30.1972 11.4355 30.1408 11.6847 30.1406 11.9371V23.0801C30.1334 29.5399 31.8857 35.8797 35.2094 41.4188C38.533 46.958 43.3026 51.4873 49.0059 54.5205L49.7033 54.8938C49.949 55.0249 50.2232 55.0934 50.5017 55.0934C50.7801 55.0934 51.0543 55.0249 51.3 54.8938L51.9991 54.5205C57.7024 51.4873 62.472 46.958 65.7956 41.4188C69.1193 35.8797 70.8716 29.5399 70.8644 23.0801V11.9388ZM67.4707 23.0801C67.4771 28.9054 65.9021 34.6232 62.9138 39.6235C59.9254 44.6239 55.6358 48.7194 50.5025 51.473C45.3692 48.7194 41.0796 44.6239 38.0912 39.6235C35.1029 34.6232 33.5279 28.9054 33.5343 23.0801V13.9631C39.3293 14.7673 45.2322 13.8052 50.472 11.2024L50.5025 11.1854L50.5432 11.2075C55.7796 13.8092 61.6793 14.7702 67.4707 13.9648V23.0801Z" fill="#00203A"/>
<path d="M60.1015 20.2447L47.1089 33.2373L41.8114 27.9398C41.4914 27.6307 41.0628 27.4597 40.6179 27.4636C40.173 27.4674 39.7474 27.6459 39.4328 27.9605C39.1182 28.2751 38.9397 28.7007 38.9359 29.1456C38.932 29.5905 39.103 30.0191 39.4121 30.3391L45.9092 36.8363C46.2274 37.1544 46.659 37.3331 47.1089 37.3331C47.5588 37.3331 47.9903 37.1544 48.3085 36.8363L62.5008 22.644C62.6628 22.4875 62.7921 22.3003 62.881 22.0933C62.9699 21.8862 63.0168 21.6636 63.0187 21.4383C63.0207 21.213 62.9777 20.9895 62.8924 20.781C62.8071 20.5725 62.6811 20.383 62.5218 20.2237C62.3625 20.0644 62.173 19.9384 61.9645 19.8531C61.756 19.7678 61.5325 19.7248 61.3072 19.7268C61.0819 19.7287 60.8593 19.7755 60.6522 19.8645C60.4452 19.9534 60.258 20.0827 60.1015 20.2447Z" fill="#00203A"/>
</svg>
