<svg width="82" height="66" viewBox="0 0 82 66" fill="none" xmlns="http://www.w3.org/2000/svg">
<path d="M6.64368 4.74947L57.8684 49.4708L44.2732 62.3292C41.7377 64.5573 40.304 64.5566 37.7184 62.3292L5.51074 34.6715C1.54546 30.3857 1.99948 31.1129 2.03102 27.0697C2.06256 23.0265 2.03102 8.2269 2.03102 8.2269C1.88765 0.987026 2.11192 0.382778 6.64368 4.74947Z" fill="#55BEF6"/>
<path d="M57.8684 49.4708L6.64368 4.74947C2.11192 0.382778 1.88765 0.987025 2.03102 8.2269C2.03102 8.2269 2.06256 23.0265 2.03102 27.0697C1.99948 31.1129 1.54545 30.3857 5.51074 34.6715L37.7184 62.3292C40.304 64.5566 41.7377 64.5573 44.2732 62.3292L57.8684 49.4708ZM57.8684 49.4708L76.8855 33.8628C79.092 32.1401 79.692 31.0188 79.7987 28.6871L79.7987 6.20514C79.9949 1.38591 78.5706 1.94103 74.8624 5.39643L50.0997 26.5845" stroke="white" stroke-width="2.53061"/>
</svg>
