<svg width="82" height="66" viewBox="0 0 82 66" fill="none" xmlns="http://www.w3.org/2000/svg">
<path d="M75.1727 61.2505L23.948 16.5292L37.5432 3.6708C40.0787 1.44273 41.5124 1.44341 44.098 3.6708L76.3057 31.3285C80.271 35.6143 79.8169 34.8871 79.7854 38.9303C79.7538 42.9735 79.7854 57.7731 79.7854 57.7731C79.9288 65.013 79.7045 65.6172 75.1727 61.2505Z" fill="#55BEF6"/>
<path d="M23.948 16.5292L75.1727 61.2505C79.7045 65.6172 79.9288 65.013 79.7854 57.7731C79.7854 57.7731 79.7538 42.9735 79.7854 38.9303C79.8169 34.8871 80.271 35.6143 76.3057 31.3285L44.098 3.6708C41.5124 1.44341 40.0787 1.44273 37.5432 3.6708L23.948 16.5292ZM23.948 16.5292L4.93091 32.1372C2.72437 33.8599 2.1244 34.9812 2.01766 37.3129L2.01766 59.7949C1.82155 64.6141 3.24582 64.059 6.95401 60.6036L31.7167 39.4155" stroke="white" stroke-width="2.53061"/>
</svg>
